<?xml version="1.0" standalone="no"?>
<!DOCTYPE svg PUBLIC "-//W3C//DTD SVG 20010904//EN"
 "http://www.w3.org/TR/2001/REC-SVG-20010904/DTD/svg10.dtd">
<svg version="1.0" xmlns="http://www.w3.org/2000/svg"
 width="1476.000000pt" height="800.000000pt" viewBox="0 0 1476.000000 800.000000"
 preserveAspectRatio="xMidYMid meet">

<g transform="translate(0.000000,800.000000) scale(0.100000,-0.100000)"
fill="#000000" stroke="none">
<path d="M12060 7561 c-39 -8 -135 -55 -145 -71 -3 -5 5 -15 19 -21 14 -7 23
-15 21 -20 -6 -9 -45 1 -45 12 0 12 -37 12 -45 0 -3 -5 4 -12 15 -16 11 -3 20
-15 20 -25 0 -10 9 -20 22 -23 19 -5 20 -8 8 -23 -9 -10 -16 -12 -18 -5 -6 17
-42 13 -42 -5 0 -10 5 -14 15 -10 20 7 29 -16 21 -49 -9 -34 -25 -32 -39 5 -9
24 -15 28 -34 24 -20 -5 -23 -2 -23 20 0 15 7 29 15 32 15 6 21 44 7 44 -11 0
-63 -56 -93 -100 -21 -30 -24 -46 -23 -111 2 -76 15 -112 113 -295 19 -37 2
-48 -69 -45 -52 2 -63 -1 -85 -23 -24 -24 -26 -31 -20 -89 4 -34 8 -67 10 -74
3 -7 30 -13 72 -15 l68 -3 3 -525 c2 -478 -3 -643 -23 -692 -6 -15 -2 -18 20
-18 39 0 27 -20 -36 -58 -30 -18 -54 -38 -54 -45 0 -9 85 -13 363 -15 265 -2
362 0 362 9 0 6 -21 34 -46 63 -26 28 -57 67 -70 86 -26 39 -25 16 -24 927 l0
272 63 3 62 3 3 89 c3 103 0 108 -72 100 -52 -7 -66 2 -66 44 0 22 -34 91
-111 227 -93 163 -102 198 -64 243 22 26 34 32 66 32 60 0 72 -47 48 -187 -15
-84 4 -139 61 -178 36 -25 46 -27 117 -23 64 3 84 8 111 28 106 79 103 268 -7
393 -50 57 -140 96 -247 107 -100 11 -153 11 -204 1z"/>
<path d="M3040 7428 c-130 -13 -269 -57 -384 -121 -70 -39 -90 -78 -55 -110
10 -10 17 -22 14 -28 -4 -5 8 -9 24 -9 17 0 31 -3 31 -7 0 -5 -26 -35 -58 -68
-53 -56 -74 -85 -104 -142 -16 -32 -35 -29 -54 9 l-17 33 -15 -23 c-20 -30
-48 -28 -56 3 -12 47 -34 30 -98 -75 -64 -104 -108 -288 -108 -446 0 -303 117
-611 309 -817 53 -56 227 -197 244 -197 3 0 36 -17 74 -38 70 -40 242 -107
348 -136 132 -36 300 -56 563 -67 420 -18 719 9 957 87 206 67 351 182 374
297 l7 31 247 1 c136 1 250 5 253 8 4 3 -8 24 -25 46 -82 103 -115 235 -108
429 2 73 7 135 9 138 3 2 126 4 273 4 237 0 270 -2 286 -16 11 -10 19 -23 19
-30 0 -7 11 -48 24 -91 13 -43 32 -121 41 -174 16 -88 16 -100 1 -158 -11 -43
-13 -68 -6 -81 8 -14 4 -21 -15 -34 -14 -9 -25 -23 -25 -30 0 -24 645 -35 668
-11 3 2 -17 28 -43 57 -98 108 -75 38 -295 929 -102 414 -102 417 -86 450 19
38 56 130 56 141 0 3 -30 9 -67 13 -87 8 -189 43 -328 110 -167 81 -241 99
-410 99 -133 1 -144 -1 -213 -29 -70 -29 -172 -104 -172 -128 0 -7 -16 -23
-35 -37 -19 -14 -37 -37 -40 -52 -13 -56 54 -153 124 -180 51 -19 122 45 156
142 27 77 83 146 102 126 11 -11 -40 -249 -133 -621 -118 -476 -203 -742 -279
-875 -8 -13 -13 -26 -11 -27 8 -8 56 18 56 31 0 14 34 28 44 18 16 -15 0 -36
-61 -77 -37 -25 -77 -45 -87 -45 -38 0 -86 -24 -86 -42 0 -14 8 -18 39 -18 44
0 59 -13 41 -35 -14 -17 -50 -20 -50 -5 0 16 -21 12 -146 -29 -199 -65 -283
-76 -564 -76 -253 0 -333 8 -555 56 -49 10 -98 19 -107 19 -26 0 -256 79 -313
107 -240 120 -395 275 -509 508 -115 236 -134 373 -75 565 48 161 116 277 214
369 78 72 129 103 225 136 87 30 140 31 306 6 132 -20 203 -46 280 -106 110
-83 325 -173 504 -210 105 -22 391 -26 428 -6 31 17 24 42 -16 62 -102 51
-251 176 -369 308 -104 117 -125 124 -133 41 -6 -62 -14 -80 -36 -80 -13 0
-15 10 -12 48 l3 47 -140 5 c-77 3 -146 9 -152 13 -7 5 -57 17 -110 27 -316
64 -463 81 -583 68z m2153 -228 c-29 -44 -38 -48 -47 -24 -13 33 -6 44 24 44
17 0 30 5 30 10 0 6 4 10 9 10 6 0 -2 -18 -16 -40z m522 -103 c46 -61 62 -107
147 -437 10 -41 28 -104 39 -139 11 -35 18 -65 17 -66 -2 -1 -104 -6 -227 -10
l-224 -7 6 34 c6 30 51 199 124 468 14 52 31 120 38 150 8 30 14 56 14 58 5
13 33 -9 66 -51z m-272 -197 c-3 -11 -9 -20 -13 -20 -5 0 -6 9 -3 20 3 11 9
20 13 20 5 0 6 -9 3 -20z m-16 -67 c-3 -10 -8 -30 -11 -45 -4 -16 -10 -28 -14
-28 -5 0 -4 20 2 45 6 25 14 45 19 45 5 0 6 -8 4 -17z m-41 -174 l-14 -34 -1
32 c-1 17 4 44 11 60 l12 28 3 -26 c2 -15 -3 -42 -11 -60z m-17 -66 c0 -5 -4
-17 -9 -28 -8 -18 -9 -17 -9 8 -1 15 4 27 9 27 6 0 10 -3 9 -7z m-60 -237 c-9
-8 -10 -5 -5 14 3 14 6 32 7 40 1 8 4 2 6 -14 3 -16 -1 -34 -8 -40z m709 32
c-7 -20 -56 -34 -69 -21 -18 18 -1 33 37 33 24 0 34 -4 32 -12z m-733 -128
c-5 -16 -10 -19 -18 -11 -7 7 -6 15 3 26 17 20 24 13 15 -15z m-25 -126 c0
-49 -15 -88 -31 -79 -21 14 -1 125 23 125 4 0 8 -21 8 -46z m-37 -309 c-7 -21
-13 -19 -13 6 0 11 4 18 10 14 5 -3 7 -12 3 -20z"/>
<path d="M6787 7361 c-31 -3 -58 -10 -59 -15 0 -5 22 -32 49 -60 l50 -51 1
-734 c1 -546 -1 -745 -10 -775 -10 -31 -10 -40 0 -44 22 -7 12 -23 -23 -38
-19 -8 -35 -21 -35 -29 0 -12 49 -14 358 -9 417 7 716 -6 854 -36 103 -23 102
-24 112 50 7 52 44 168 70 218 9 17 41 59 71 93 39 44 55 70 55 90 0 26 -3 28
-55 34 -67 9 -120 -4 -230 -56 -295 -139 -455 -187 -636 -191 l-114 -3 -3 720
-2 720 45 48 c25 27 45 55 45 63 0 12 -39 14 -242 12 -134 -1 -269 -4 -301 -7z
m837 -1587 c9 -3 16 -10 16 -15 0 -9 -33 -15 -114 -22 -43 -4 -46 -3 -33 10 8
9 35 18 59 20 23 3 45 7 47 9 6 5 7 5 25 -2z"/>
<path d="M8310 7363 c-88 -6 -89 -8 -32 -66 l52 -52 3 -710 c2 -399 0 -738 -6
-773 -7 -49 -6 -67 5 -79 10 -13 10 -17 1 -20 -7 -3 -23 -12 -34 -22 -49 -39
-23 -42 304 -35 388 7 758 -7 872 -35 49 -12 84 -16 91 -10 6 5 16 35 23 66
18 81 56 188 82 230 12 19 44 60 71 91 27 31 47 63 46 71 -3 14 -28 23 -100
38 -15 3 -59 -5 -99 -16 -61 -19 -120 -45 -324 -142 -143 -68 -377 -114 -479
-95 l-36 7 0 719 0 719 51 50 c28 28 48 55 44 61 -6 9 -392 12 -535 3z m995
-1503 c3 -5 1 -10 -4 -10 -6 0 -11 5 -11 10 0 6 2 10 4 10 3 0 8 -4 11 -10z
m73 -56 c33 -14 35 -17 17 -24 -25 -11 -109 -12 -119 -3 -8 8 33 42 52 43 7 0
29 -7 50 -16z m-160 -31 c-4 -20 -58 -31 -162 -32 -87 -1 -58 19 46 35 119 17
120 17 116 -3z"/>
<path d="M10817 7334 c-69 -25 -81 -31 -172 -90 -73 -47 -110 -94 -227 -286
-90 -148 -129 -296 -131 -498 -2 -149 37 -323 104 -475 110 -250 337 -415 570
-415 219 0 439 155 556 391 95 191 130 349 120 553 -5 125 -12 164 -54 302
-114 383 -471 624 -766 518z m-194 -266 c-24 -23 -40 -20 -30 7 4 8 17 15 29
15 l22 0 -21 -22z m-54 -17 c11 -7 5 -20 -33 -62 -27 -30 -64 -82 -85 -117
-46 -80 -56 -52 -13 35 16 32 27 64 24 72 -3 8 0 11 7 7 6 -4 11 -3 11 3 0 15
50 71 63 71 7 0 18 -4 26 -9z m417 -120 c95 -32 188 -90 265 -166 109 -107
166 -201 200 -330 24 -90 24 -138 -2 -237 -21 -83 -18 -97 19 -98 17 0 15 -9
-14 -65 -46 -87 -111 -140 -109 -89 1 13 10 33 20 44 10 11 15 23 12 26 -4 4
-14 -2 -24 -13 -22 -26 -137 -45 -261 -44 -70 1 -101 6 -152 27 -36 14 -72 32
-80 39 -8 7 -29 20 -47 29 -76 38 -207 185 -261 291 -90 180 -84 375 16 494
41 48 140 106 196 115 58 8 162 -2 222 -23z"/>
<path d="M11411 6076 c-8 -10 -9 -16 -1 -21 5 -3 13 1 16 10 9 22 -1 29 -15
11z"/>
<path d="M4975 5700 c-3 -5 -1 -10 4 -10 6 0 11 5 11 10 0 6 -2 10 -4 10 -3 0
-8 -4 -11 -10z"/>
<path d="M1595 5335 c-157 -26 -384 -103 -370 -126 4 -5 12 -9 19 -9 6 0 17
-5 24 -12 9 -9 5 -16 -18 -30 -17 -10 -30 -25 -30 -34 0 -9 -18 -34 -41 -56
-35 -34 -40 -45 -35 -69 5 -24 1 -31 -24 -44 -18 -9 -31 -11 -35 -5 -13 20
-54 10 -72 -17 -10 -16 -31 -39 -46 -52 -15 -13 -35 -37 -43 -55 -9 -17 -29
-45 -46 -62 -16 -17 -28 -37 -26 -44 2 -7 -7 -16 -19 -19 -12 -3 -35 -25 -52
-48 -36 -50 -61 -49 -86 4 -18 38 -36 39 -45 2 -3 -13 -12 -24 -20 -24 -28 0
-96 -175 -137 -350 -14 -65 -18 -117 -17 -275 1 -107 7 -217 13 -245 6 -27 17
-84 25 -125 39 -208 157 -462 290 -623 192 -235 448 -404 796 -527 290 -102
685 -150 1229 -150 505 0 858 59 1131 187 200 95 339 233 340 339 0 37 -20 57
-52 52 -19 -2 -23 -9 -23 -37 -1 -28 -9 -41 -45 -72 -62 -54 -288 -165 -303
-150 -7 7 -7 11 0 11 5 0 27 14 48 30 21 17 48 30 59 30 12 0 32 9 44 20 12
11 25 20 29 21 4 0 28 16 53 35 25 19 53 37 63 40 20 7 23 24 3 24 -7 0 -44
-14 -82 -31 -137 -62 -263 -98 -452 -129 -259 -42 -611 -48 -852 -14 -58 9
-134 19 -170 24 -68 9 -292 51 -396 74 -217 48 -474 174 -662 325 -225 182
-402 453 -487 746 -43 147 -49 196 -36 298 26 200 88 381 179 523 76 117 119
164 217 237 97 72 154 102 259 134 75 23 91 24 221 19 170 -7 346 -41 436 -84
35 -17 94 -53 131 -80 116 -85 389 -209 554 -251 230 -58 511 -74 648 -35 38
10 71 24 73 31 3 7 -23 25 -60 41 -169 77 -347 229 -546 465 -40 48 -79 87
-86 87 -24 0 -45 -36 -39 -66 8 -40 -11 -86 -34 -82 -13 3 -17 13 -17 45 l0
42 -175 5 c-123 3 -193 10 -235 22 -33 9 -80 20 -105 24 -25 4 -79 15 -120 23
-349 75 -584 98 -745 72z m-315 -264 c0 -5 -7 -11 -15 -15 -9 -3 -15 0 -15 9
0 8 7 15 15 15 8 0 15 -4 15 -9z m-63 -48 c-9 -9 -20 -12 -28 -8 -9 6 -8 11 6
21 23 17 42 6 22 -13z"/>
<path d="M1171 5191 c-18 -11 -5 -31 20 -31 12 0 19 7 19 20 0 21 -16 26 -39
11z"/>
<path d="M12090 5160 c-11 -7 -5 -18 26 -52 92 -99 117 -229 89 -468 -9 -80
-22 -172 -30 -205 -7 -33 -16 -80 -20 -105 -7 -43 -45 -196 -86 -345 -10 -38
-26 -103 -34 -143 -8 -41 -17 -77 -20 -81 -8 -15 -24 -139 -35 -280 -26 -331
57 -596 246 -786 69 -69 97 -89 195 -138 76 -38 154 -68 234 -89 l120 -32 300
1 c322 2 456 16 596 64 226 76 362 221 436 464 15 49 18 94 17 245 0 205 -8
257 -75 520 -59 230 -97 600 -83 810 15 228 93 450 196 552 27 28 47 56 44 64
-8 22 -866 15 -866 -7 0 -5 17 -17 38 -28 130 -66 202 -221 257 -551 8 -47 19
-103 24 -125 12 -44 44 -243 61 -370 11 -82 38 -242 64 -375 41 -213 51 -299
51 -450 -1 -130 -5 -169 -24 -238 -36 -131 -63 -182 -125 -239 -90 -82 -142
-95 -416 -103 -326 -9 -386 4 -479 106 -87 94 -141 287 -141 506 0 99 32 425
50 508 9 42 34 188 65 380 66 408 189 808 286 931 16 20 29 41 29 46 0 6 -59
13 -132 17 -182 9 -842 6 -858 -4z m1725 -2409 c-3 -6 -11 -11 -17 -11 -6 0
-6 6 2 15 14 17 26 13 15 -4z m-29 -30 c-6 -9 -82 -51 -93 -51 -9 0 81 60 90
60 5 0 6 -4 3 -9z"/>
<path d="M4027 4746 c-9 -13 -31 -68 -50 -122 -19 -55 -45 -124 -57 -154 -12
-30 -28 -75 -37 -100 -8 -25 -22 -59 -31 -77 -21 -41 -6 -60 54 -69 73 -11
124 20 319 191 33 30 71 62 85 72 31 23 113 63 129 63 9 0 12 -168 10 -729 -1
-401 1 -734 5 -739 7 -12 -7 -23 -49 -37 -16 -5 -30 -17 -30 -25 0 -13 39 -15
290 -15 250 0 290 2 292 15 2 8 -15 27 -36 43 -22 15 -49 47 -61 71 -21 45
-21 48 -19 712 1 367 4 675 6 685 7 25 18 24 88 -11 38 -19 103 -69 171 -131
126 -116 200 -158 284 -162 44 -2 55 1 58 15 3 17 -7 55 -90 323 -22 72 -43
141 -47 155 -13 45 -40 49 -159 27 -95 -18 -151 -20 -487 -21 -322 -1 -396 2
-485 17 -58 10 -112 20 -121 23 -10 3 -23 -5 -32 -20z"/>
<path d="M712 4748 c-16 -16 -15 -28 3 -28 8 0 15 9 15 20 0 23 -2 24 -18 8z"/>
<path d="M8834 4741 c-176 -4 -245 -10 -257 -19 -12 -10 -82 -13 -311 -12
-163 0 -296 -3 -296 -7 0 -5 17 -19 37 -33 99 -68 129 -128 167 -337 33 -178
64 -358 72 -423 3 -30 11 -63 16 -73 13 -26 38 -220 38 -305 0 -82 -35 -259
-56 -283 -29 -33 -12 -29 31 8 25 20 48 45 51 55 7 22 24 24 24 2 0 -24 -48
-101 -80 -128 -43 -36 -120 -70 -131 -59 -6 6 5 20 32 37 22 15 38 30 35 33
-3 3 -36 -3 -73 -13 -53 -15 -101 -19 -218 -19 -134 0 -154 2 -190 21 -22 12
-47 30 -56 40 -43 50 -75 145 -85 259 -6 72 16 302 41 425 7 36 16 92 20 125
9 81 61 311 92 410 24 76 66 167 98 210 9 13 11 25 5 35 -8 13 -51 15 -267 17
-276 2 -329 -2 -337 -23 -3 -7 5 -26 18 -41 30 -37 46 -97 46 -170 0 -62 -24
-238 -41 -308 -6 -22 -16 -70 -24 -107 -7 -36 -18 -74 -24 -85 -6 -10 -17 -47
-25 -83 -8 -36 -20 -85 -26 -110 -8 -30 -10 -96 -7 -195 4 -130 9 -159 31
-218 15 -37 34 -80 43 -95 100 -161 270 -250 512 -269 93 -6 348 12 416 31
145 39 242 115 296 231 62 131 61 268 -5 536 -41 171 -54 288 -50 464 5 197
41 309 130 398 l47 46 29 -17 c16 -9 41 -29 55 -44 l26 -27 1 -790 1 -789 -25
-27 c-20 -21 -22 -28 -10 -35 8 -5 17 -7 21 -4 4 2 194 4 423 4 436 0 691 -15
764 -46 20 -8 41 -13 48 -10 7 2 22 38 34 78 51 173 71 214 145 301 30 36 55
74 55 85 0 24 -39 42 -94 42 -55 0 -85 -10 -221 -72 -128 -59 -123 -57 -243
-103 -51 -20 -117 -40 -145 -46 -29 -6 -80 -17 -114 -25 -34 -8 -98 -14 -143
-14 l-80 0 0 727 0 727 46 47 c49 50 51 70 6 68 -15 -1 -38 0 -52 3 -14 2
-133 2 -266 -1z m991 -1442 c4 -5 4 -21 1 -35 -5 -20 -10 -23 -24 -15 -11 6
-28 4 -51 -5 -41 -17 -41 -17 -41 2 0 8 15 21 34 29 19 8 37 19 41 25 8 13 32
13 40 -1z m-110 -144 c-22 -8 -56 -13 -75 -13 l-35 0 40 13 c22 7 56 13 75 13
l35 0 -40 -13z"/>
<path d="M5601 4717 c-49 -10 -52 -25 -18 -89 21 -41 22 -53 21 -273 0 -160
-7 -297 -22 -450 -12 -121 -24 -251 -27 -290 -7 -84 -40 -305 -60 -395 -8 -36
-17 -85 -21 -110 -4 -25 -15 -54 -25 -66 -11 -11 -17 -22 -15 -25 2 -2 126 -2
275 1 188 3 274 9 282 17 9 9 7 19 -9 45 -31 52 -46 134 -47 253 0 125 12 275
25 295 6 10 68 13 316 12 169 -1 310 -5 313 -8 8 -8 8 -404 0 -480 -8 -74 -21
-101 -57 -117 -22 -10 29 -12 272 -15 164 -1 301 0 304 3 3 2 -9 36 -27 75
-65 147 -102 343 -121 645 -13 216 -25 378 -46 623 -15 169 -15 186 0 226 9
24 28 53 41 66 56 53 30 60 -224 60 -293 0 -330 -10 -265 -71 53 -49 59 -82
69 -354 3 -82 8 -211 11 -287 5 -126 4 -137 -13 -142 -34 -10 -532 -2 -536 9
-2 5 2 84 9 175 7 91 20 256 28 367 8 111 20 211 25 221 6 11 22 27 36 36 51
34 33 43 -97 50 -142 8 -337 5 -397 -7z m1009 -912 c0 -9 -9 -15 -21 -15 -18
0 -19 2 -9 15 7 8 16 15 21 15 5 0 9 -7 9 -15z"/>
<path d="M10268 4699 c-33 -13 -34 -21 -9 -63 37 -61 52 -295 31 -489 -5 -51
-14 -164 -20 -252 -19 -302 -68 -679 -99 -758 -6 -16 -11 -40 -11 -54 0 -13
-10 -33 -22 -44 -42 -35 -9 -39 272 -36 251 2 265 3 268 21 2 10 -5 36 -17 56
-34 61 -47 214 -32 382 7 77 15 146 18 154 4 12 58 14 314 14 l308 0 7 -37
c10 -47 11 -305 3 -433 l-6 -94 -37 -25 c-33 -22 -36 -26 -20 -32 26 -10 572
-11 578 -1 2 4 -9 35 -25 68 -67 141 -116 410 -129 719 -4 110 -18 313 -31
450 -26 295 -23 334 28 382 68 65 44 71 -280 68 -236 -2 -257 -6 -216 -47 60
-59 75 -126 84 -358 15 -401 15 -427 2 -438 -14 -12 -530 -12 -541 -1 -4 3 1
84 9 180 8 96 19 250 25 343 11 187 21 234 56 267 26 24 31 54 12 61 -28 10
-494 7 -520 -3z m107 -79 c3 -6 -1 -7 -9 -4 -18 7 -21 14 -7 14 6 0 13 -4 16
-10z m955 -820 c13 -9 13 -11 0 -20 -20 -13 -57 -13 -65 0 -16 26 33 41 65 20z"/>
<path d="M10370 2040 c-25 -25 -26 -72 -2 -92 9 -8 42 -29 73 -47 61 -33 86
-62 139 -155 30 -54 32 -63 27 -120 -8 -82 -23 -113 -58 -121 -34 -8 -37 -26
-10 -63 26 -39 31 -78 21 -178 -5 -49 -12 -127 -15 -174 -4 -47 -16 -113 -28
-147 -17 -50 -19 -68 -11 -90 8 -23 5 -49 -14 -127 -22 -87 -23 -100 -9 -113
24 -24 53 -1 73 59 30 93 71 165 107 187 66 40 161 52 328 40 83 -6 153 -8
157 -5 12 13 -53 55 -118 78 -56 20 -83 23 -201 22 l-137 -1 20 71 c11 39 26
83 34 98 8 14 23 53 35 85 28 74 44 93 84 93 18 0 45 4 61 9 33 11 94 17 244
26 94 6 109 4 144 -14 21 -11 43 -18 47 -15 13 7 11 52 -2 59 -13 9 -102 23
-209 34 -74 8 -168 20 -287 37 -28 4 -33 9 -33 33 0 38 -27 128 -53 174 l-21
38 32 98 c18 55 39 105 48 111 10 9 35 11 82 7 301 -29 381 -45 442 -89 56
-42 52 -64 -22 -103 -72 -37 -79 -65 -17 -65 48 0 99 28 129 70 28 39 25 71
-7 102 -30 27 -114 68 -142 68 -9 0 -38 8 -66 19 -27 10 -81 22 -120 26 -38 3
-110 13 -160 20 -49 7 -146 16 -215 20 -159 7 -269 23 -297 41 -30 19 -49 18
-73 -6z m340 -109 c0 -20 -43 -81 -56 -81 -8 0 -20 12 -26 26 -11 23 -9 28 12
45 26 19 70 26 70 10z m36 -427 c-5 -13 -10 -14 -18 -6 -6 6 -8 18 -4 28 5 13
10 14 18 6 6 -6 8 -18 4 -28z m-9 -216 c-34 -142 -45 -168 -73 -168 -17 0 -17
19 -3 96 11 59 36 94 66 94 11 0 14 -7 10 -22z"/>
<path d="M3805 1990 c-99 -32 -94 -30 -217 -89 -120 -57 -133 -87 -54 -128 25
-13 54 -15 164 -10 114 5 134 4 139 -9 5 -14 -6 -66 -57 -274 -10 -41 -23
-102 -29 -135 -39 -226 -101 -501 -116 -512 -10 -6 -48 -21 -85 -32 -77 -24
-101 -41 -93 -71 7 -25 26 -25 82 0 49 23 91 26 91 8 0 -7 -11 -58 -24 -113
-13 -55 -21 -106 -18 -112 6 -18 47 -16 66 2 8 8 22 39 30 68 59 195 74 240
87 247 8 4 46 17 84 30 39 12 88 30 110 40 22 11 52 21 67 24 15 4 33 13 42
21 8 8 23 15 33 15 26 0 126 52 131 69 5 16 -34 6 -58 -14 -8 -8 -28 -17 -45
-21 -16 -4 -36 -12 -44 -18 -15 -11 -69 -29 -161 -50 -30 -8 -81 -21 -113 -31
-32 -9 -61 -14 -64 -11 -8 8 62 313 91 396 15 41 32 97 38 123 5 27 15 50 22
53 6 2 12 14 13 25 1 12 9 29 17 38 9 10 16 28 16 41 0 22 -1 23 -20 5 -20
-18 -20 -17 -19 11 1 47 23 109 39 109 11 0 15 -11 14 -45 l-2 -45 14 30 c7
17 13 35 14 41 0 6 12 24 26 39 25 27 27 28 114 22 81 -5 97 -10 177 -52 100
-53 160 -106 193 -172 30 -61 24 -156 -15 -225 -27 -48 -162 -183 -202 -201
-29 -13 -38 -37 -14 -37 27 0 170 109 212 161 66 83 83 126 83 210 -1 67 -5
83 -33 132 -62 108 -208 192 -396 227 -90 17 -92 18 -105 53 l-11 32 -15 -27
c-18 -34 -44 -37 -44 -5 0 37 36 86 58 80 14 -3 22 1 27 17 15 48 -43 100
-112 100 -21 -1 -78 -14 -128 -30z m65 -108 c0 -81 -7 -84 -132 -58 -59 12
-110 25 -113 28 -10 10 19 25 85 46 36 12 72 23 80 26 8 2 30 5 48 5 32 1 32
1 32 -47z m35 -392 c-4 -12 -9 -19 -12 -17 -3 3 -2 15 2 27 4 12 9 19 12 17 3
-3 2 -15 -2 -27z"/>
<path d="M6419 1981 c-92 -59 -118 -101 -336 -551 -119 -245 -133 -274 -133
-287 0 -6 -7 -24 -14 -40 -18 -33 -38 -95 -72 -218 -18 -65 -26 -126 -30 -220
-5 -125 -5 -132 19 -175 20 -35 34 -49 70 -62 43 -16 87 -15 87 3 0 5 -12 12
-27 15 -38 9 -80 50 -95 93 -19 59 -10 268 14 314 5 10 14 46 19 80 6 34 17
72 25 84 8 12 14 31 14 41 0 10 9 35 20 57 11 22 20 46 20 55 1 8 16 42 35 75
19 33 38 67 42 75 3 8 19 33 34 55 74 108 209 328 209 340 0 15 91 146 107
152 20 8 69 -44 79 -84 4 -15 3 -43 -3 -62 -6 -20 -22 -76 -37 -126 -15 -49
-28 -112 -29 -140 -2 -49 -1 -50 28 -52 54 -5 83 31 111 138 13 52 33 115 44
140 10 25 24 76 30 114 l11 68 -43 45 c-54 56 -116 102 -138 102 -9 0 -36 -13
-61 -29z"/>
<path d="M9462 1716 c-15 -24 -32 -52 -38 -62 -10 -18 -20 -17 -109 11 -27 8
-67 -29 -63 -58 3 -20 10 -22 71 -25 37 -2 67 -7 67 -11 0 -19 -103 -247 -140
-311 -66 -113 -91 -147 -136 -190 -50 -48 -65 -70 -46 -70 26 0 149 124 194
197 31 50 48 65 48 43 0 -5 -18 -70 -40 -144 -52 -170 -44 -217 29 -187 43 18
184 169 206 221 21 50 51 88 61 77 6 -6 -10 -122 -32 -228 -7 -32 6 -42 39
-30 16 6 41 37 67 81 23 39 43 70 45 68 2 -2 -1 -38 -7 -81 -8 -57 -8 -84 0
-102 16 -34 69 -65 112 -65 45 0 98 32 106 65 4 16 18 31 38 39 45 19 106 79
106 105 0 16 -5 21 -16 19 -15 -3 -24 -14 -44 -58 -8 -18 -58 -26 -72 -12 -19
19 1 58 45 90 80 57 111 182 47 182 -31 0 -165 -139 -174 -180 -11 -58 -6
-104 15 -139 26 -43 19 -65 -19 -57 -38 9 -72 51 -72 89 0 18 9 64 20 102 11
38 20 80 20 92 0 33 -35 30 -90 -7 -27 -18 -47 -25 -49 -19 -2 6 4 43 12 83 8
39 20 96 25 126 6 30 16 74 23 97 15 49 4 69 -30 58 -25 -8 -53 -60 -70 -130
-7 -27 -30 -77 -52 -111 -21 -33 -39 -64 -39 -69 0 -5 -17 -29 -39 -54 -21
-26 -42 -57 -46 -70 -9 -31 -93 -121 -111 -121 -26 0 -12 78 44 245 17 50 49
150 72 223 45 143 52 152 118 152 96 0 172 28 172 63 0 5 -32 6 -75 2 -41 -4
-91 -4 -111 -1 -31 6 -35 10 -29 29 19 60 18 77 -4 77 -15 0 -30 -14 -49 -44z
m498 -549 c0 -23 -17 -47 -32 -47 -9 0 -11 32 -2 54 9 24 34 19 34 -7z"/>
<path d="M12175 1717 c-14 -24 -25 -49 -25 -55 0 -15 -57 -15 -99 -1 -28 10
-37 9 -59 -8 -29 -22 -40 -49 -25 -64 6 -6 36 -10 69 -10 32 -1 62 -3 66 -5
14 -9 -127 -308 -184 -388 -16 -23 -38 -55 -50 -71 -11 -17 -32 -39 -45 -49
l-25 -19 7 34 c4 19 14 46 21 61 8 15 17 47 20 71 6 40 4 46 -22 66 -16 12
-31 32 -34 44 -8 31 -42 32 -69 3 -20 -21 -22 -30 -14 -48 11 -25 -12 -77 -77
-174 -42 -62 -68 -83 -102 -84 -38 0 -45 35 -24 112 9 33 14 63 11 66 -3 3
-15 -4 -28 -16 -31 -29 -35 -28 -39 10 -4 47 -27 46 -76 -4 -42 -43 -101 -148
-102 -180 0 -9 -4 -20 -10 -23 -5 -3 -10 -19 -10 -36 0 -44 41 -40 96 11 48
44 70 50 79 20 7 -23 43 -35 77 -25 28 8 167 152 210 218 32 48 42 55 53 36 7
-10 -1 -50 -30 -149 -24 -83 -26 -98 -10 -113 23 -23 55 -9 72 32 8 20 43 63
78 96 35 33 80 87 101 119 43 65 55 57 30 -18 -48 -140 -67 -258 -46 -271 30
-18 78 11 164 99 50 50 89 97 88 103 -6 28 59 115 74 100 7 -7 -13 -135 -32
-201 -17 -60 -8 -74 36 -56 24 10 40 30 66 81 19 38 39 69 45 69 6 0 9 -6 6
-14 -14 -35 -19 -154 -8 -175 17 -30 70 -61 106 -61 32 0 95 33 95 50 0 5 -20
10 -45 10 -84 0 -103 52 -69 184 22 83 23 89 12 103 -12 15 -59 2 -95 -27 -35
-28 -45 -11 -28 49 7 25 16 69 19 96 4 28 16 80 28 116 23 75 20 102 -14 97
-30 -4 -63 -56 -78 -120 -14 -59 -98 -213 -135 -248 -13 -12 -36 -46 -50 -76
-27 -54 -84 -114 -110 -114 -8 0 -15 4 -15 9 0 44 164 569 185 590 7 7 51 17
101 22 89 9 134 27 134 54 0 12 -16 14 -92 9 -111 -6 -126 0 -109 46 16 49 14
60 -14 60 -18 0 -31 -11 -50 -43z m-745 -593 c0 -18 -74 -134 -85 -134 -38 0
-21 75 26 115 28 23 59 33 59 19z"/>
<path d="M8878 1608 c-38 -35 -88 -114 -88 -141 0 -8 -12 -25 -27 -37 -36 -28
-91 -21 -179 23 -54 26 -66 29 -88 19 -39 -18 -34 -50 12 -69 29 -12 59 -14
139 -10 57 3 105 2 108 -2 2 -5 -13 -46 -34 -92 -53 -116 -81 -230 -81 -332 0
-73 3 -87 25 -117 33 -45 75 -79 98 -80 26 0 21 17 -8 24 -13 3 -36 23 -50 43
-34 51 -34 142 0 250 37 116 101 265 124 289 22 23 106 45 164 42 24 -1 42 4
47 13 16 25 -7 32 -66 20 -111 -22 -141 -9 -123 52 14 48 25 54 54 27 29 -27
50 -21 74 22 12 21 12 28 0 54 -20 42 -55 42 -101 2z"/>
<path d="M5366 1478 c-13 -24 -34 -70 -45 -103 -60 -181 -157 -355 -198 -355
-18 0 -17 3 19 105 35 100 34 131 -7 167 -14 12 -25 30 -25 40 0 25 -32 23
-58 -5 -14 -15 -21 -35 -21 -57 2 -59 -115 -241 -162 -253 -12 -3 -28 2 -39
13 -15 15 -16 25 -9 66 5 27 12 56 14 65 3 9 -1 21 -9 28 -11 9 -17 6 -32 -16
l-19 -28 -5 39 c-3 22 -11 41 -18 44 -33 11 -129 -125 -165 -234 -27 -81 17
-98 87 -34 24 22 48 40 54 40 7 0 19 -12 29 -26 14 -23 22 -25 55 -21 32 4 50
18 111 82 39 43 89 102 110 131 21 30 43 54 48 54 15 0 10 -47 -16 -140 -14
-49 -25 -100 -25 -113 0 -47 45 -42 102 11 35 32 45 23 30 -25 -21 -68 -19
-93 7 -93 26 0 56 40 76 101 9 27 19 49 22 49 3 0 20 -13 39 -30 43 -37 86
-45 155 -28 63 15 67 30 10 40 -46 8 -80 24 -99 47 -19 24 -42 81 -42 104 0
22 52 75 103 103 164 91 173 98 140 111 -10 4 -23 -2 -34 -15 -9 -12 -20 -22
-24 -22 -3 0 -29 -17 -58 -38 -68 -51 -117 -76 -127 -65 -8 7 50 166 86 236
22 44 18 67 -11 67 -18 0 -30 -11 -49 -42z m-626 -369 c0 -11 -12 -41 -27 -67
-41 -72 -63 -81 -63 -29 0 24 10 45 36 75 40 47 54 52 54 21z"/>
<path d="M8055 1415 c-39 -23 -95 -81 -95 -98 0 -4 -15 -41 -34 -81 -34 -75
-98 -156 -122 -156 -19 0 -18 10 6 61 31 68 21 149 -18 149 -7 0 -18 16 -26
35 -8 19 -19 35 -24 35 -4 0 -21 -14 -37 -30 -26 -27 -28 -33 -17 -51 11 -18
8 -30 -24 -94 -20 -40 -46 -78 -58 -85 -11 -6 -36 -31 -54 -56 -43 -58 -92
-59 -92 -3 0 5 25 32 55 60 63 59 94 124 76 158 -7 12 -16 21 -22 21 -42 0
-129 -86 -193 -191 -50 -82 -65 -99 -88 -99 -30 0 -31 23 -7 151 28 152 20
162 -74 101 -20 -14 -40 -22 -43 -19 -3 3 -1 22 6 42 7 20 10 39 7 41 -20 20
-107 -87 -107 -130 0 -12 -12 -68 -26 -125 -15 -61 -22 -107 -16 -113 13 -13
40 1 48 25 22 72 96 207 114 207 6 0 9 -38 8 -100 -3 -81 0 -102 14 -116 23
-23 57 -12 113 36 51 44 65 44 65 0 0 -103 133 -62 217 67 10 15 25 35 34 44
9 9 36 42 59 74 50 68 66 62 45 -15 -50 -176 -52 -211 -18 -224 24 -10 46 17
52 66 5 32 11 44 25 46 22 5 48 33 71 75 20 36 40 34 54 -4 17 -50 14 -65 -23
-100 -43 -40 -35 -69 18 -69 57 0 115 55 116 109 0 37 24 83 82 152 39 48 52
89 31 96 -6 2 -27 -20 -46 -49 -40 -62 -71 -93 -86 -83 -6 3 -11 33 -11 65 0
53 3 62 34 92 19 18 47 43 62 54 25 19 27 24 15 38 -16 20 -17 20 -66 -9z
m-535 -244 c0 -23 -28 -54 -40 -46 -15 9 12 65 31 65 5 0 9 -9 9 -19z"/>
<path d="M6906 1335 c-19 -20 -25 -38 -25 -69 1 -44 -34 -118 -72 -152 l-22
-19 7 58 c6 45 4 63 -8 83 -27 39 -60 31 -121 -30 -71 -71 -87 -111 -88 -227
0 -37 33 -78 63 -79 39 0 63 22 109 100 24 39 52 76 64 81 12 6 40 38 62 72
51 78 70 86 62 26 -3 -24 -15 -75 -26 -114 -32 -111 -25 -136 33 -121 22 5 24
11 24 68 0 42 7 80 21 111 12 27 24 66 27 86 5 33 2 43 -25 73 -17 20 -31 40
-31 46 0 5 -7 15 -15 22 -12 10 -19 7 -39 -15z m-177 -212 c10 -23 8 -33 -16
-82 -16 -32 -36 -57 -46 -59 -17 -3 -18 1 -11 45 4 26 8 62 9 78 3 45 3 45 28
45 16 0 28 -9 36 -27z"/>
<path d="M8495 1242 c-38 -24 -93 -88 -111 -127 -7 -17 -15 -58 -19 -90 -16
-155 108 -169 174 -21 10 24 27 77 36 118 16 65 16 78 4 104 -17 35 -44 40
-84 16z m13 -104 c7 -7 12 -24 12 -38 0 -37 -42 -114 -63 -118 -17 -4 -18 2
-12 65 4 37 9 76 11 86 6 20 34 23 52 5z"/>
<path d="M6452 908 c-14 -14 -16 -54 -3 -62 12 -8 30 16 33 44 3 26 -12 36
-30 18z"/>
<path d="M6372 718 c-7 -7 -12 -17 -12 -23 0 -6 -16 -26 -35 -45 -19 -18 -33
-35 -31 -37 7 -7 106 99 100 108 -7 11 -8 11 -22 -3z"/>
<path d="M6254 578 l-19 -23 23 19 c12 11 22 21 22 23 0 8 -8 2 -26 -19z"/>
<path d="M6205 540 c-3 -5 -2 -10 4 -10 5 0 13 5 16 10 3 6 2 10 -4 10 -5 0
-13 -4 -16 -10z"/>
<path d="M6065 460 c-3 -5 1 -10 9 -10 8 0 18 5 21 10 3 6 -1 10 -9 10 -8 0
-18 -4 -21 -10z"/>
</g>
</svg>
