<?xml version="1.0" standalone="no"?>
<!DOCTYPE svg PUBLIC "-//W3C//DTD SVG 20010904//EN"
 "http://www.w3.org/TR/2001/REC-SVG-20010904/DTD/svg10.dtd">
<svg version="1.0" xmlns="http://www.w3.org/2000/svg"
 width="750.000000pt" height="1000.000000pt" viewBox="0 0 750.000000 1000.000000"
 preserveAspectRatio="xMidYMid meet">

<g transform="translate(0.000000,1000.000000) scale(0.100000,-0.100000)"
fill="#000000" stroke="none">
<path d="M3434 8021 c-20 -12 -36 -16 -45 -10 -26 16 -40 10 -20 -10 21 -21
36 -134 36 -277 0 -73 2 -83 23 -99 23 -16 24 -16 48 6 18 17 21 25 13 36 -7
7 -15 48 -19 91 -9 85 1 110 43 108 19 -1 23 -8 29 -56 3 -30 6 -87 7 -126 1
-64 -1 -72 -26 -96 -16 -14 -39 -31 -53 -38 -14 -8 -20 -15 -13 -17 17 -6 110
55 134 89 20 28 21 38 15 140 -3 61 -12 120 -18 131 -8 16 -8 22 1 25 20 7 12
20 -16 25 -32 6 -53 -1 -53 -17 0 -7 -13 -25 -29 -40 l-29 -28 -7 66 c-6 53
-4 71 9 91 20 30 12 31 -30 6z"/>
<path d="M4010 8009 c8 -13 9 -48 5 -97 -10 -112 -11 -115 -51 -110 -19 2 -34
1 -34 -3 0 -9 27 -19 51 -19 24 0 26 -42 4 -84 -13 -25 -14 -31 -2 -37 8 -5
24 -17 37 -27 22 -18 25 -18 52 -3 15 9 28 20 28 24 0 5 -4 6 -9 3 -19 -12
-38 29 -33 77 l4 47 38 0 c22 0 42 -5 45 -10 5 -8 12 -7 22 2 14 11 15 10 10
-7 -3 -11 -9 -37 -13 -57 -3 -21 -12 -42 -20 -49 -11 -9 -10 -16 7 -39 21 -27
22 -27 50 -11 20 11 27 21 23 33 -3 10 0 52 7 94 12 67 16 77 41 90 16 8 33
12 38 9 13 -8 13 -62 0 -70 -5 -3 -7 -11 -4 -18 2 -7 -2 -46 -11 -87 -17 -84
-41 -115 -100 -126 -19 -3 -35 -10 -35 -15 0 -11 -3 -12 61 7 59 18 104 45
119 74 14 26 40 167 40 216 0 64 -19 73 -81 39 l-51 -27 7 33 c16 82 27 109
48 124 l21 15 -22 0 c-13 0 -32 -5 -44 -11 -16 -9 -24 -7 -44 12 -24 22 -35
14 -12 -9 9 -9 8 -29 -1 -84 -20 -114 -15 -108 -78 -108 l-56 0 7 81 c7 84 17
115 45 136 14 11 14 12 -2 13 -10 0 -31 -7 -46 -15 -26 -13 -30 -13 -41 0 -19
22 -32 18 -20 -6z"/>
<path d="M2994 7963 c-51 -4 -52 -4 -96 -71 -40 -60 -44 -70 -36 -100 7 -28 6
-37 -9 -49 -17 -13 -17 -14 4 -8 19 5 23 0 32 -32 9 -32 8 -40 -7 -51 -15 -11
-20 -9 -40 15 -12 15 -20 34 -17 41 2 6 0 12 -5 12 -19 0 -10 77 15 125 13 27
23 51 20 53 -4 4 -60 -70 -69 -91 -3 -9 -7 -8 -14 2 -8 12 -18 8 -51 -18 -43
-34 -53 -48 -23 -32 23 12 66 17 70 8 9 -28 -2 -46 -48 -71 -27 -15 -50 -29
-50 -31 0 -2 19 2 41 10 56 20 57 20 74 -22 32 -77 112 -132 190 -133 52 0
134 39 168 79 15 18 27 37 27 42 0 15 39 49 56 49 13 0 15 -7 11 -35 -4 -27
-2 -35 9 -35 8 0 27 -6 42 -13 25 -13 29 -12 56 20 l29 34 -25 -6 c-30 -8 -45
9 -48 50 -1 17 -1 32 0 35 1 3 4 17 5 32 3 19 0 25 -9 22 -9 -4 -15 6 -18 30
-4 32 -1 36 24 41 41 9 37 37 -4 33 -32 -3 -33 -1 -36 35 -2 20 -7 37 -11 37
-5 0 -22 -27 -40 -59 -28 -53 -30 -60 -14 -64 15 -3 14 -6 -7 -16 l-25 -11 26
4 c24 5 26 3 35 -54 l10 -60 -27 0 c-15 0 -40 5 -56 11 l-28 10 25 -25 24 -26
-33 -34 c-34 -35 -87 -64 -97 -53 -3 3 -27 76 -54 162 l-48 157 49 -7 c44 -6
51 -4 74 21 31 33 32 45 3 42 -13 -1 -46 -3 -74 -5z m-16 -220 c23 -78 42
-147 42 -153 0 -23 -100 -1 -130 29 -13 13 -13 14 3 8 14 -5 22 3 38 37 l21
43 -24 79 c-18 60 -22 84 -14 97 6 9 13 13 17 9 3 -4 24 -71 47 -149z"/>
<path d="M3704 7929 c-10 -12 -32 -28 -49 -35 -26 -12 -27 -13 -7 -14 24 0 30
-15 10 -24 -7 -3 -1 -3 14 0 l28 6 -2 -96 c-2 -86 0 -98 19 -118 l21 -21 40
32 c45 35 62 39 62 13 0 -20 18 -42 34 -42 6 1 25 12 41 26 24 20 26 25 10 22
-19 -3 -20 3 -23 96 -2 63 1 103 9 112 9 11 6 18 -12 34 -29 24 -28 24 -59 0
-20 -15 -23 -21 -12 -31 7 -8 12 -42 12 -90 0 -75 -1 -78 -30 -99 -16 -12 -34
-18 -40 -15 -15 9 -13 202 2 207 10 4 9 8 -2 19 -41 38 -46 40 -66 18z"/>
<path d="M4480 7820 c-22 -12 -28 -19 -17 -20 22 0 22 -9 -8 -105 -28 -90 -30
-104 -14 -139 l12 -25 49 20 c60 24 58 24 58 -4 0 -13 6 -30 13 -39 11 -14 16
-14 52 2 22 10 32 19 23 19 -12 1 -18 9 -18 25 0 35 39 158 57 178 13 14 13
19 -3 43 -11 17 -22 24 -33 19 -9 -3 -24 -9 -33 -11 -20 -6 -22 -14 -9 -28 5
-6 -2 -42 -15 -86 -21 -66 -28 -78 -55 -89 -26 -11 -32 -11 -40 1 -5 8 -7 21
-4 29 30 108 50 162 61 167 11 4 10 11 -7 34 -24 34 -24 34 -69 9z"/>
<path d="M3500 7815 c-14 -8 -20 -14 -14 -15 5 0 19 7 30 15 24 18 16 19 -16
0z"/>
<path d="M3009 7807 c15 -19 41 -23 41 -7 0 6 -4 10 -9 10 -5 0 -18 3 -28 7
-16 6 -16 5 -4 -10z"/>
<path d="M3130 7785 l-25 -14 28 -1 c17 0 27 5 27 15 0 18 1 18 -30 0z"/>
<path d="M3075 7760 c-3 -5 -1 -10 4 -10 6 0 11 5 11 10 0 6 -2 10 -4 10 -3 0
-8 -4 -11 -10z"/>
<path d="M3915 7750 c3 -5 18 -10 33 -9 24 0 25 1 7 9 -28 12 -47 12 -40 0z"/>
<path d="M2644 7718 l-19 -23 23 19 c21 18 27 26 19 26 -2 0 -12 -10 -23 -22z"/>
<path d="M4762 7709 c2 -6 8 -10 13 -10 5 0 11 4 13 10 2 6 -4 11 -13 11 -9 0
-15 -5 -13 -11z"/>
<path d="M4787 7658 c-16 -12 -16 -14 3 -26 18 -11 20 -10 20 13 0 29 -1 29
-23 13z"/>
<path d="M2550 7650 c0 -5 7 -7 15 -4 8 4 15 8 15 10 0 2 -7 4 -15 4 -8 0 -15
-4 -15 -10z"/>
<path d="M2574 7634 c-60 -31 -99 -66 -44 -39 19 10 43 24 53 33 21 19 22 12
0 -33 -30 -64 21 -72 61 -9 18 26 17 26 -6 19 -20 -7 -21 -6 -9 9 12 14 11 16
-5 16 -16 1 -15 3 6 15 45 26 -4 16 -56 -11z"/>
<path d="M4902 7644 c10 -10 20 -15 24 -12 3 4 -5 12 -18 18 -22 12 -22 12 -6
-6z"/>
<path d="M4830 7580 c0 -5 7 -10 15 -10 13 0 14 -4 5 -21 -9 -16 -7 -36 10
-90 12 -38 20 -76 17 -83 -3 -8 7 -17 27 -24 17 -6 49 -32 70 -58 46 -54 91
-84 128 -84 31 0 46 -16 21 -23 -13 -3 -10 -5 7 -6 27 -1 55 -18 109 -66 114
-101 172 -160 236 -236 61 -73 74 -84 83 -70 9 14 13 11 24 -17 8 -20 18 -31
28 -29 9 1 37 -25 68 -62 61 -74 82 -110 82 -144 0 -30 10 -40 26 -26 17 14
35 3 27 -16 -3 -9 1 -15 11 -15 8 0 20 -9 26 -19 12 -24 12 -32 1 -50 -8 -13
-12 -13 -27 0 -16 13 -16 12 -2 -16 20 -37 83 -116 75 -92 -4 9 -4 17 -2 17
12 0 79 -115 163 -279 104 -206 118 -229 124 -210 8 24 40 -64 49 -134 5 -39
19 -89 30 -111 31 -58 38 -89 25 -103 -37 -39 -37 -41 -17 -80 11 -21 35 -53
55 -72 25 -24 33 -38 26 -46 -7 -9 -3 -26 15 -56 27 -47 31 -64 15 -54 -6 4
-17 1 -25 -5 -8 -7 -21 -10 -30 -7 -25 10 -30 -58 -12 -150 14 -65 15 -87 5
-107 -6 -14 -16 -26 -21 -26 -5 0 -4 -7 3 -16 20 -23 41 4 47 60 6 51 23 60
41 21 24 -53 15 -100 -30 -152 -52 -60 -92 -147 -84 -185 3 -15 1 -39 -4 -52
-11 -30 1 -118 18 -124 8 -2 12 11 13 45 l1 48 14 -50 c16 -60 17 -79 3 -127
-11 -43 -29 -51 -29 -14 0 14 -4 28 -10 31 -6 4 -10 -6 -10 -22 0 -38 -16 -61
-30 -47 -8 8 -9 27 -1 70 14 73 14 137 1 129 -5 -3 -10 -26 -10 -51 0 -25 -4
-43 -8 -40 -4 2 -6 -11 -4 -29 2 -19 -4 -54 -13 -79 -10 -25 -15 -57 -13 -71
4 -19 2 -25 -8 -21 -8 3 -14 -6 -17 -27 -4 -29 -5 -30 -12 -9 -9 28 -20 29
-22 2 -1 -12 -18 -43 -37 -69 -37 -50 -49 -79 -18 -43 13 16 24 20 45 15 25
-5 28 -9 22 -32 -9 -36 -32 -59 -86 -86 -25 -13 -53 -35 -62 -49 -22 -34 -21
-43 2 -22 10 10 22 13 25 8 3 -5 -17 -30 -44 -56 -57 -54 -66 -86 -22 -79 25
4 25 3 10 -10 -13 -10 -18 -29 -18 -66 0 -48 -10 -65 -26 -40 -4 8 -13 4 -25
-12 -21 -27 -24 -52 -10 -78 7 -12 5 -25 -8 -45 l-18 -28 -8 39 -8 38 -9 -27
c-9 -27 -28 -39 -28 -18 0 22 -19 8 -25 -19 -3 -15 -22 -45 -41 -66 -24 -26
-31 -42 -24 -49 5 -5 10 -19 10 -31 0 -26 -28 -67 -41 -59 -6 3 -19 -2 -30
-12 -18 -16 -19 -16 -19 5 0 11 9 29 20 38 20 17 28 53 11 53 -5 0 -27 -20
-50 -45 -39 -43 -52 -63 -31 -50 9 6 -10 -46 -38 -100 -14 -28 -16 -28 -23
-10 -6 18 -8 16 -19 -13 -14 -39 -33 -37 -40 3 l-5 29 -28 -42 c-24 -38 -32
-42 -67 -42 -34 0 -43 -5 -67 -37 -15 -21 -57 -68 -93 -104 -52 -53 -85 -76
-150 -106 -47 -22 -99 -52 -116 -66 -27 -23 -35 -25 -65 -17 -45 13 -60 -3
-28 -30 l24 -20 -35 -30 c-41 -36 -53 -37 -73 -7 l-15 22 -45 -47 c-30 -31
-60 -51 -87 -58 -52 -14 -63 -6 -19 14 l34 14 -32 1 c-18 1 -33 3 -33 6 0 3
16 19 35 36 19 17 32 35 29 40 -8 14 -24 11 -24 -5 0 -22 -44 -52 -122 -83
-51 -20 -76 -35 -87 -55 -16 -27 -41 -38 -41 -18 0 19 -39 10 -51 -12 -25 -50
-51 -68 -96 -68 -24 0 -43 4 -43 10 0 5 -20 1 -44 -10 -25 -10 -46 -15 -48
-10 -5 15 -110 -11 -147 -36 -20 -13 -40 -24 -46 -24 -5 0 -3 5 5 10 24 15 -2
11 -30 -5 -32 -18 -40 -18 -40 0 0 17 30 35 59 35 25 0 27 13 6 30 -12 10 -24
10 -54 1 -21 -6 -49 -11 -61 -11 -13 0 -28 -8 -35 -17 -11 -15 -17 -16 -53 -4
-22 8 -54 11 -71 9 -19 -3 -36 1 -42 9 -6 7 -27 13 -46 13 -33 0 -35 2 -29 26
6 23 5 25 -16 19 -13 -4 -33 -17 -45 -28 -19 -17 -27 -19 -48 -9 -15 7 -33 28
-41 47 -8 19 -21 35 -30 35 -10 0 -14 -5 -10 -15 20 -50 22 -48 -25 -41 -24 4
-90 10 -146 14 -56 4 -105 10 -109 14 -4 4 -1 15 7 25 13 15 12 16 -6 9 -42
-17 -55 -18 -55 -5 0 8 -9 4 -23 -9 -31 -29 -87 -29 -113 -1 -36 41 -97 79
-126 79 -31 0 -37 14 -12 28 26 15 4 21 -102 28 -95 6 -100 7 -127 38 -15 17
-25 23 -21 14 8 -23 -25 -38 -85 -38 -57 0 -66 12 -22 30 34 14 67 47 58 57
-4 3 -7 1 -7 -5 0 -7 -7 -12 -15 -12 -9 0 -12 6 -9 15 5 11 2 13 -10 9 -13 -5
-16 1 -16 26 0 17 -4 29 -9 26 -4 -3 -31 19 -59 49 -43 47 -55 55 -86 55 -63
0 -187 30 -247 61 -60 30 -81 49 -55 49 9 0 25 13 37 29 l22 30 19 -25 c11
-14 43 -37 71 -52 68 -35 71 -36 63 -24 -3 6 -1 12 6 14 6 2 -19 19 -56 36
-37 17 -65 36 -61 42 3 5 -2 24 -11 42 -10 18 -19 27 -21 21 -9 -26 -50 -12
-105 34 -31 27 -53 52 -49 56 9 9 51 -9 63 -27 4 -6 10 -8 13 -4 14 13 -36 48
-68 48 -33 0 -77 23 -77 40 0 5 -11 25 -24 45 -14 20 -22 43 -19 51 7 18 -114
181 -178 238 l-48 44 32 7 c29 6 18 11 -106 52 l-137 46 62 38 c64 40 114 49
136 27 16 -16 15 -4 -2 35 -28 62 -32 64 -60 34 -33 -35 -49 -35 -42 1 3 15 8
51 12 80 6 53 6 54 -16 42 -17 -9 -29 -9 -51 0 -39 17 -37 27 11 41 l39 12
-44 31 -44 32 30 24 30 25 -12 55 c-13 58 -29 87 -29 54 -1 -14 -5 -10 -14 12
-8 17 -40 51 -72 75 -32 24 -63 58 -70 75 l-13 31 38 -1 c40 -1 71 17 71 40 0
7 -28 28 -62 46 -70 37 -162 117 -184 159 -11 22 -12 33 -3 47 8 13 7 26 -4
55 -9 20 -12 37 -8 37 4 0 65 -59 136 -130 70 -72 129 -129 130 -128 13 17 24
50 19 61 -3 8 -1 18 5 22 6 3 15 -5 21 -19 5 -14 11 -26 13 -26 9 0 -7 146
-17 152 -7 4 -23 30 -36 57 -13 28 -27 51 -32 51 -10 0 -7 -14 27 -108 25 -69
17 -79 -35 -42 -62 44 -108 200 -60 200 12 0 35 -7 52 -16 29 -15 31 -15 23 2
-4 11 -9 39 -12 64 -4 44 -4 44 11 20 l15 -25 1 26 c0 15 -7 43 -16 64 -18 44
-10 75 32 130 15 20 25 38 22 40 -2 2 -22 0 -44 -6 -46 -13 -182 -6 -213 11
l-22 11 32 57 c44 78 79 122 96 122 8 0 33 -16 56 -35 43 -37 63 -45 53 -20
-3 8 -9 22 -12 30 -4 10 0 15 14 15 18 0 20 6 19 49 -2 38 -5 47 -14 39 -19
-15 -16 2 8 56 l20 46 -29 29 c-26 27 -52 88 -52 124 0 8 11 18 24 21 13 3 26
15 29 26 3 12 36 77 73 145 45 83 76 128 93 136 14 7 27 14 29 15 2 1 -8 13
-22 27 -32 32 -42 99 -26 180 16 84 36 120 61 114 35 -9 68 61 84 178 5 39 15
57 45 87 46 46 72 48 101 7 27 -38 22 -48 -49 -104 -28 -22 -51 -44 -51 -49
-1 -5 8 -1 19 9 31 28 33 13 5 -31 -15 -24 3 -7 47 41 96 106 208 218 235 237
13 8 26 30 29 49 l7 34 -25 -23 c-29 -26 -41 -20 -27 15 5 14 7 29 3 34 -18
30 110 185 142 172 15 -6 19 -23 6 -23 -5 0 -17 -7 -28 -15 -12 -10 -1 -8 31
6 56 23 72 34 86 61 10 18 7 19 -26 12 l-37 -7 23 44 c13 23 46 65 72 92 39
40 44 49 25 44 -12 -4 -29 -7 -35 -7 -7 0 -13 -7 -13 -15 0 -8 -20 -28 -45
-45 -24 -17 -50 -38 -57 -48 -14 -19 -125 -72 -151 -72 -10 0 -14 -6 -11 -14
3 -8 -4 -21 -16 -29 -23 -16 -13 -31 14 -21 27 11 18 -17 -32 -93 -48 -74 -61
-86 -63 -55 0 10 -6 4 -15 -15 -10 -24 -21 -33 -39 -34 -14 -1 -31 -2 -37 -3
-7 -1 -12 7 -10 17 2 13 -9 7 -38 -20 -101 -92 -119 -115 -169 -213 -29 -56
-61 -112 -71 -122 -10 -11 -37 -62 -60 -114 -24 -52 -45 -92 -48 -89 -7 7 -62
-46 -62 -59 0 -5 14 3 30 19 43 41 37 23 -16 -52 -48 -67 -68 -79 -39 -23 19
38 14 51 -7 18 -21 -33 -31 -68 -19 -68 6 0 2 -23 -9 -54 -25 -72 -38 -96 -54
-96 -16 0 -86 -142 -86 -175 0 -13 -7 -26 -15 -29 -29 -11 -64 -110 -85 -236
-18 -104 -19 -126 -8 -135 11 -8 13 -36 10 -122 -4 -110 -4 -113 17 -113 18 0
21 -6 21 -37 0 -51 -29 -201 -46 -240 -21 -46 -17 -100 12 -199 24 -80 32
-135 38 -259 1 -22 8 -57 15 -78 13 -39 10 -67 -9 -67 -5 0 -10 14 -10 32 0
37 -12 28 -29 -21 -12 -37 -7 -51 11 -33 16 16 28 15 28 -3 0 -18 12 -19 28
-3 18 18 35 -4 39 -54 2 -24 5 -59 7 -79 3 -39 77 -173 102 -187 9 -5 26 -35
40 -67 18 -46 21 -62 12 -73 -10 -11 -7 -18 12 -33 14 -10 33 -21 43 -25 25
-8 23 -62 -3 -72 -19 -7 -14 -15 49 -79 38 -40 64 -74 58 -76 -7 -3 5 -21 28
-44 25 -24 41 -50 43 -67 5 -63 61 -150 264 -408 43 -54 82 -106 88 -115 8
-13 13 -14 16 -5 9 20 21 14 34 -18 7 -17 24 -39 37 -50 13 -10 23 -27 22 -37
-4 -25 107 -129 157 -147 21 -8 31 -15 22 -15 -24 -1 -23 -18 2 -26 11 -3 20
-11 20 -16 0 -6 -10 -7 -22 -4 -16 5 -20 4 -13 -3 6 -6 26 -14 45 -20 40 -10
74 -1 105 28 20 19 21 19 49 -10 20 -22 37 -30 62 -30 28 0 34 -4 34 -21 0
-16 -4 -20 -17 -15 -10 4 -4 -5 12 -19 40 -33 143 -85 169 -85 25 0 95 -24
144 -49 78 -40 111 -51 105 -35 -12 32 75 4 148 -47 15 -10 51 -25 82 -33 30
-8 68 -21 85 -30 30 -15 31 -15 34 6 5 35 34 33 98 -6 32 -20 73 -39 92 -43
30 -6 32 -5 19 10 -9 12 -10 17 -2 17 7 0 48 -34 91 -75 43 -41 72 -75 64 -75
-8 0 -12 -4 -9 -10 3 -5 19 -10 36 -10 21 0 29 5 29 18 0 21 18 42 36 42 7 0
14 -14 16 -32 4 -46 34 -50 153 -21 61 15 117 23 143 20 37 -4 41 -3 30 10
-10 12 -9 18 5 27 13 10 35 10 104 0 92 -14 123 -11 161 12 24 16 29 7 10 -16
-7 -8 -4 -7 7 2 11 9 51 28 89 42 37 14 80 34 94 45 24 17 28 17 49 4 31 -20
87 -6 188 47 73 39 125 51 125 30 0 -16 21 -12 80 16 30 14 68 27 83 29 44 6
113 51 138 92 13 20 25 31 27 25 6 -19 24 -14 100 23 55 28 79 47 108 88 21
29 39 54 41 56 1 2 9 -1 16 -7 24 -20 256 113 311 178 14 18 26 28 26 24 0 -5
24 14 53 42 28 28 87 77 130 108 108 80 137 118 137 177 0 26 9 68 20 93 20
48 19 56 -6 31 -22 -21 -34 -19 -34 8 0 13 -5 28 -11 34 -7 7 -1 18 21 37 40
33 54 33 46 1 -11 -43 12 -29 99 60 67 70 98 114 171 243 107 187 184 350 225
469 16 48 29 91 29 96 0 5 -12 6 -26 3 -25 -7 -25 -5 -19 26 10 46 24 70 38
65 7 -2 11 -14 10 -26 -2 -13 1 -20 7 -16 15 9 12 62 -5 94 -12 24 -12 31 -1
46 16 23 36 11 36 -21 0 -13 5 -24 10 -24 15 0 12 34 -5 66 -15 30 -20 111 -7
130 4 6 14 13 23 16 12 5 19 25 24 74 4 37 9 75 13 83 3 11 -3 8 -20 -7 -22
-20 -26 -21 -32 -7 -3 9 -6 25 -6 36 0 10 -4 19 -9 19 -5 0 -1 19 8 43 13 34
16 77 14 237 -2 180 -4 200 -26 260 -14 36 -28 91 -32 123 -6 47 -10 55 -21
46 -11 -9 -18 -8 -29 1 -21 17 -19 29 8 50 20 17 22 27 22 119 0 56 -3 101 -6
101 -4 0 -17 24 -29 53 -29 68 -49 91 -67 76 -7 -6 -13 -8 -13 -3 0 4 11 17
25 29 l26 20 -30 55 c-16 30 -47 105 -69 166 -75 205 -123 297 -145 275 -26
-26 -36 -11 -39 56 -3 65 -3 66 -37 78 -18 6 -38 18 -45 26 -6 9 -16 14 -22
12 -5 -2 -18 13 -28 33 -58 122 -198 274 -440 476 -100 84 -223 190 -275 237
-52 48 -91 80 -87 72 7 -10 3 -12 -13 -6 -16 5 -26 1 -36 -12 -13 -17 -18 -14
-72 40 -34 33 -67 57 -80 57 -11 0 -51 11 -87 25 -73 28 -86 30 -86 15z m767
-761 c12 -31 12 -31 -7 -14 -11 10 -20 24 -20 32 0 24 15 14 27 -18z m-4710
-1841 c-3 -8 -6 -5 -6 6 -1 11 2 17 5 13 3 -3 4 -12 1 -19z m1368 -2129 c11
-17 -1 -21 -15 -4 -8 9 -8 15 -2 15 6 0 14 -5 17 -11z m40 -86 c3 -10 1 -19
-4 -21 -17 -6 -13 -22 4 -22 14 0 38 -39 29 -49 -1 -1 -26 5 -55 14 -45 15
-50 19 -36 30 12 9 13 15 5 23 -8 8 -8 15 2 27 17 20 46 19 55 -2z"/>
<path d="M2417 7573 c-40 -5 -74 -40 -64 -67 3 -8 -3 -26 -14 -41 l-21 -25 56
6 c65 8 74 -5 24 -36 -21 -13 -42 -18 -56 -15 -17 4 -23 2 -19 -7 2 -7 -4 -30
-14 -50 -18 -36 -25 -78 -13 -78 3 0 15 12 27 26 19 25 21 26 28 8 6 -15 8
-16 8 -3 2 29 41 68 76 75 22 4 37 13 40 26 8 25 -18 65 -57 86 -66 37 -66 37
3 70 35 17 57 30 49 30 -8 -1 -32 -3 -53 -5z"/>
<path d="M2306 7523 c-9 -18 -12 -33 -7 -33 13 0 33 38 28 53 -2 7 -11 -3 -21
-20z"/>
<path d="M2186 7455 c-3 -9 0 -15 9 -15 16 0 20 16 6 24 -5 3 -11 -1 -15 -9z"/>
<path d="M2549 7434 c-12 -14 -11 -16 5 -13 11 2 21 10 24 17 5 17 -13 15 -29
-4z"/>
<path d="M2200 7325 c-11 -13 -10 -14 4 -9 9 3 16 10 16 15 0 13 -6 11 -20 -6z"/>
<path d="M1949 7293 c-13 -15 -12 -15 9 -4 23 12 28 21 13 21 -5 0 -15 -7 -22
-17z"/>
<path d="M2120 7285 c-13 -14 -20 -28 -17 -32 8 -8 59 27 65 45 7 21 -24 13
-48 -13z"/>
<path d="M2150 7200 c0 -13 5 -18 15 -14 8 4 15 10 15 14 0 4 -7 10 -15 14
-10 4 -15 -1 -15 -14z"/>
<path d="M3585 7156 c-22 -7 -96 -38 -165 -68 -69 -31 -160 -70 -202 -88 -197
-81 -249 -144 -328 -399 -18 -56 -50 -148 -72 -204 -106 -268 -104 -330 15
-463 120 -134 464 -582 705 -919 67 -93 131 -181 141 -195 l19 -24 22 37 c12
20 26 37 30 37 4 0 18 -16 29 -36 12 -19 25 -34 30 -32 5 2 46 59 92 128 138
207 464 633 730 952 55 66 104 136 114 162 31 80 18 155 -57 346 -35 91 -77
208 -92 261 -58 199 -123 270 -322 349 -60 23 -161 67 -225 97 -148 68 -211
83 -260 59 -32 -15 -38 -15 -65 -1 -35 18 -84 18 -139 1z"/>
<path d="M2084 7124 c-18 -14 -18 -15 4 -4 12 6 22 13 22 15 0 8 -5 6 -26 -11z"/>
<path d="M1676 7044 c-3 -9 -6 -25 -6 -37 l1 -22 19 23 c10 13 16 30 13 37 -7
20 -19 19 -27 -1z"/>
<path d="M1925 7035 c-17 -13 -25 -24 -20 -24 13 0 59 38 54 44 -3 2 -18 -7
-34 -20z"/>
<path d="M2545 6933 c-82 -18 -142 -58 -171 -115 -15 -28 -36 -128 -27 -128 2
0 14 10 26 21 58 56 177 80 218 43 18 -16 20 -27 17 -72 -5 -55 -38 -113 -131
-225 l-39 -47 57 -65 c31 -36 61 -65 65 -65 12 0 156 159 191 211 71 107 92
245 49 328 -41 82 -161 135 -255 114z"/>
<path d="M4850 6931 c-51 -11 -94 -36 -125 -73 -37 -44 -46 -72 -46 -146 0
-120 50 -217 189 -362 76 -79 83 -84 94 -65 6 11 31 41 55 66 24 25 43 50 43
55 0 5 -29 44 -65 87 -78 93 -106 144 -108 199 -2 54 27 78 94 78 62 0 110
-19 132 -54 10 -14 25 -26 34 -26 25 0 11 82 -24 138 -48 78 -172 125 -273
103z"/>
<path d="M1615 6571 c-19 -8 -19 -8 3 -20 19 -10 22 -9 22 9 0 11 -1 20 -2 19
-2 0 -12 -4 -23 -8z"/>
<path d="M1953 6491 c-90 -31 -165 -99 -210 -191 -50 -104 -42 -272 17 -325
22 -20 22 -20 20 52 -3 113 54 219 144 265 63 32 175 36 249 8 141 -53 237
-217 237 -405 0 -173 -74 -350 -251 -605 -158 -226 -184 -270 -172 -289 11
-19 109 -86 138 -95 17 -5 39 23 151 192 148 221 186 288 238 414 59 143 89
283 89 423 1 190 -44 306 -162 418 -139 131 -342 189 -488 138z"/>
<path d="M5303 6495 c-93 -25 -174 -74 -249 -149 -123 -123 -171 -261 -160
-453 13 -207 89 -419 237 -654 57 -92 207 -319 219 -332 15 -17 170 78 170
103 0 5 -60 99 -134 208 -219 327 -296 502 -296 671 0 138 53 265 145 349 149
136 376 100 460 -73 21 -43 27 -68 27 -125 0 -62 2 -69 15 -59 56 47 69 168
29 281 -43 121 -129 209 -231 237 -55 15 -169 13 -232 -4z"/>
<path d="M1421 6426 c-6 -16 -14 -33 -17 -37 -3 -5 -1 -9 5 -9 15 0 33 38 28
58 -3 13 -7 10 -16 -12z"/>
<path d="M1536 6404 c-3 -9 -6 -28 -6 -42 1 -31 13 -15 24 31 7 29 -8 38 -18
11z"/>
<path d="M1448 6343 c-19 -22 -42 -92 -34 -100 3 -4 6 -1 6 5 0 7 7 12 15 12
11 0 12 -5 5 -24 -9 -24 -5 -36 12 -36 5 0 6 5 3 10 -6 9 10 105 22 137 7 19
-11 16 -29 -4z"/>
<path d="M2140 6160 c-320 -222 -510 -478 -551 -742 -14 -88 -6 -249 17 -333
88 -330 397 -512 914 -540 63 -3 167 -1 230 5 233 22 409 24 479 6 148 -39
214 -131 247 -345 24 -156 12 -422 -27 -610 -42 -205 -148 -394 -250 -446 -47
-25 -130 -31 -168 -12 -30 15 -33 14 -150 -45 l-120 -61 20 -28 c87 -123 222
-170 386 -136 271 58 459 313 527 717 47 280 48 828 0 1015 -20 82 -64 171
-108 222 -47 54 -145 127 -221 165 -155 78 -225 151 -225 233 0 23 5 46 12 53
20 20 69 14 105 -14 18 -14 33 -22 33 -18 0 19 -321 474 -335 474 -3 0 0 -11
5 -24 17 -46 32 -151 31 -224 -1 -74 -14 -113 -48 -144 -18 -16 -18 -15 -15
56 l4 73 -30 6 c-73 15 -132 110 -132 213 0 24 -4 44 -9 44 -15 0 -102 -73
-145 -120 -21 -23 -52 -72 -70 -109 -28 -61 -31 -74 -31 -166 1 -87 4 -109 29
-170 28 -67 73 -142 117 -195 19 -23 21 -23 31 -7 39 70 116 123 190 133 121
14 153 -104 54 -202 -77 -78 -250 -108 -481 -84 -446 46 -644 229 -604 557 24
191 103 332 308 548 190 200 176 182 163 209 -12 27 -80 106 -91 106 -3 -1
-44 -27 -91 -60z"/>
<path d="M5227 6178 c-69 -86 -73 -73 63 -217 263 -277 347 -431 357 -651 5
-100 2 -123 -17 -179 -40 -118 -109 -194 -231 -250 -119 -56 -303 -91 -477
-91 -260 0 -399 68 -410 203 -4 49 -2 56 23 75 61 48 164 16 242 -74 26 -30
49 -54 52 -54 11 0 103 159 128 220 63 157 31 328 -85 453 -47 50 -118 107
-134 107 -4 0 -8 -19 -8 -43 0 -97 -57 -207 -108 -207 -38 0 -55 -34 -49 -100
6 -73 -7 -76 -40 -10 -28 54 -30 143 -8 269 8 47 13 86 12 87 -6 7 -327 -457
-327 -472 0 -3 15 7 34 21 44 33 95 32 112 -4 10 -19 9 -34 -2 -70 -18 -62
-79 -119 -224 -208 -202 -125 -281 -216 -320 -366 -53 -208 -53 -723 0 -1031
25 -145 60 -258 118 -376 58 -119 170 -239 271 -290 161 -80 355 -76 452 12
14 12 40 42 57 64 l32 42 -43 17 c-23 9 -77 37 -119 61 -76 43 -79 44 -107 29
-72 -37 -188 -2 -255 76 -125 146 -199 444 -200 804 0 262 31 378 123 457 88
75 204 91 521 71 286 -18 454 -7 660 43 314 77 508 243 576 494 23 83 25 297
5 390 -37 169 -107 287 -255 436 -94 94 -355 304 -377 304 -4 0 -23 -19 -42
-42z"/>
<path d="M1225 5470 c-3 -5 -1 -10 4 -10 6 0 11 5 11 10 0 6 -2 10 -4 10 -3 0
-8 -4 -11 -10z"/>
<path d="M1065 5415 c17 -7 32 -11 35 -9 7 8 -24 24 -45 23 -15 0 -13 -4 10
-14z"/>
<path d="M5665 4704 c-11 -8 -53 -33 -92 -55 -40 -22 -73 -43 -73 -47 0 -4 12
-43 26 -87 73 -227 26 -448 -126 -588 -108 -100 -248 -154 -428 -164 l-104 -6
7 56 7 57 -78 80 c-42 44 -80 80 -84 80 -9 0 -26 -62 -40 -147 -7 -40 -15 -75
-19 -78 -12 -7 -157 70 -205 109 -100 82 -159 203 -171 352 l-7 83 -79 31
c-43 16 -80 30 -83 30 -8 0 -37 -85 -50 -149 -8 -36 -17 -110 -21 -165 l-7
-98 44 -42 c24 -22 71 -76 106 -118 34 -43 84 -94 110 -113 57 -43 182 -105
275 -137 l67 -23 -6 -76 -7 -75 51 -22 c28 -12 72 -25 98 -29 55 -7 63 1 65
67 2 98 -9 92 184 94 197 1 262 14 395 79 120 58 239 177 297 297 67 138 78
189 78 385 -1 133 -5 184 -19 235 -26 95 -69 200 -81 200 -5 0 -19 -7 -30 -16z"/>
<path d="M1767 4648 c-52 -132 -62 -191 -62 -373 0 -165 1 -173 32 -260 58
-167 145 -285 274 -370 144 -96 273 -129 493 -123 l144 3 7 -55 c12 -109 13
-110 53 -110 20 0 66 11 102 23 72 26 68 18 55 122 l-7 61 58 18 c33 10 102
38 154 63 91 43 102 51 242 196 168 172 157 147 138 322 -10 90 -18 123 -46
202 -18 50 -24 50 -131 2 l-63 -28 0 -75 c0 -135 -54 -254 -153 -341 -51 -44
-179 -115 -209 -115 -11 0 -19 26 -32 103 -10 56 -20 108 -22 115 -5 18 -108
-75 -146 -131 -22 -31 -28 -52 -28 -91 l0 -51 -94 6 c-184 14 -330 74 -437
179 -146 143 -183 332 -114 576 15 52 26 96 24 98 -16 11 -190 96 -198 96 -5
0 -20 -28 -34 -62z"/>
<path d="M1248 4529 c-6 -38 19 -73 45 -64 24 10 21 22 -9 50 -14 13 -23 29
-19 34 3 6 2 11 -3 11 -5 0 -12 -14 -14 -31z"/>
<path d="M2897 4508 c-10 -20 -51 -56 -100 -90 -115 -80 -255 -204 -333 -296
-78 -91 -196 -264 -186 -273 14 -13 140 -50 189 -55 l49 -6 66 84 c85 109 250
265 369 350 89 64 303 181 378 206 l34 12 -22 24 c-50 53 -113 70 -276 74
l-150 4 -18 -34z"/>
<path d="M4275 4526 c-55 -17 -97 -40 -119 -65 -23 -25 -25 -23 39 -46 253
-92 553 -320 736 -560 l45 -60 60 1 c43 1 78 10 127 33 l68 31 -42 62 c-123
184 -195 259 -399 425 -69 55 -145 122 -170 147 l-44 46 -131 -1 c-75 0 -147
-6 -170 -13z"/>
<path d="M2286 4445 c-96 -37 -149 -110 -150 -207 -1 -42 4 -63 20 -84 30 -41
40 -39 41 6 3 54 21 90 62 117 60 41 161 25 223 -34 l27 -26 66 57 c36 32 65
61 65 65 0 16 -69 72 -115 92 -64 29 -183 35 -239 14z"/>
<path d="M5027 4449 c-45 -11 -101 -40 -142 -74 l-30 -24 45 -47 c25 -25 58
-55 73 -66 l28 -20 15 21 c28 39 91 64 151 59 84 -7 140 -62 145 -142 l3 -37
22 25 c32 37 39 106 18 164 -44 117 -180 176 -328 141z"/>
<path d="M1420 3835 l-34 -35 70 0 c63 1 67 2 45 14 -13 7 -29 23 -35 35 -12
21 -12 21 -46 -14z"/>
<path d="M3215 3535 c-5 -2 -34 -11 -64 -20 -29 -9 -111 -48 -182 -86 -70 -39
-155 -79 -189 -90 -154 -48 -294 -3 -336 106 -16 42 -19 45 -53 45 -38 0 -152
17 -185 27 -18 5 -19 1 -13 -58 17 -177 114 -313 264 -369 73 -28 212 -31 293
-6 71 21 170 72 266 137 95 64 210 119 264 126 48 7 62 23 96 117 20 56 21 65
8 70 -16 6 -151 7 -169 1z"/>
<path d="M4131 3531 c-17 -11 -8 -66 21 -126 18 -37 26 -44 59 -49 63 -10 142
-50 278 -141 71 -47 157 -97 192 -111 173 -70 372 -44 492 66 78 71 126 172
140 298 6 47 -1 50 -78 32 -22 -5 -62 -10 -90 -11 -68 -3 -71 -5 -88 -47 -40
-99 -154 -142 -296 -111 -27 6 -128 49 -223 95 -95 47 -197 92 -227 100 -61
16 -159 18 -180 5z"/>
<path d="M3643 3293 c-27 -73 -28 -81 -16 -123 31 -107 -40 -235 -177 -319
l-35 -21 45 0 c96 0 196 76 249 189 20 45 26 75 29 148 3 82 1 98 -21 148 -14
30 -30 55 -35 55 -5 0 -22 -35 -39 -77z"/>
<path d="M3788 3323 c-30 -66 -36 -182 -14 -258 29 -98 88 -173 161 -206 51
-22 135 -35 135 -21 0 6 -9 13 -19 17 -33 10 -101 69 -136 119 -44 63 -59 134
-42 201 11 47 11 54 -17 123 -16 39 -33 72 -38 72 -5 0 -19 -21 -30 -47z"/>
<path d="M5156 2981 c-4 -7 -5 -15 -2 -18 9 -9 19 4 14 18 -4 11 -6 11 -12 0z"/>
<path d="M4734 2785 c-18 -14 -18 -14 9 -15 17 0 27 5 27 15 0 19 -11 19 -36
0z"/>
<path d="M3648 2543 c24 -19 42 -43 42 -55 0 -11 5 -18 13 -15 6 2 11 10 10
16 -2 6 11 11 29 11 32 0 32 0 13 19 -11 10 -49 28 -85 39 l-65 21 43 -36z"/>
<path d="M3530 2560 c0 -6 7 -13 15 -17 24 -9 27 1 5 15 -13 8 -20 8 -20 2z"/>
<path d="M4220 2561 c0 -5 5 -13 10 -16 6 -3 10 -2 10 4 0 5 -4 13 -10 16 -5
3 -10 2 -10 -4z"/>
<path d="M6518 1590 c-2 -44 0 -80 5 -80 4 0 7 36 7 80 0 44 -2 80 -4 80 -3 0
-6 -36 -8 -80z"/>
<path d="M6630 1588 c-3 -42 -1 -73 3 -69 4 4 7 39 5 77 l-3 69 -5 -77z"/>
<path d="M7037 1653 c-4 -3 -7 -16 -6 -27 0 -20 1 -20 8 -1 4 11 19 23 32 26
l24 7 -26 1 c-14 1 -29 -2 -32 -6z"/>
<path d="M7183 1653 c9 -2 23 -2 30 0 6 3 -1 5 -18 5 -16 0 -22 -2 -12 -5z"/>
<path d="M7130 1591 c0 -55 -10 -68 -60 -74 l-35 -4 37 -1 c50 -3 68 18 68 79
0 27 -2 49 -5 49 -3 0 -5 -22 -5 -49z"/>
<path d="M7252 1620 c-7 -11 -8 -20 -3 -20 9 0 24 30 18 36 -1 2 -8 -6 -15
-16z"/>
<path d="M6388 1570 c-1 -33 0 -60 5 -60 4 0 7 27 7 60 0 77 -7 77 -12 0z"/>
<path d="M6480 1586 c-7 -26 -20 -55 -29 -63 -13 -13 -13 -15 -1 -11 16 5 53
94 47 111 -2 6 -9 -11 -17 -37z"/>
<path d="M6580 1563 c-3 -29 -1 -48 3 -44 5 5 7 28 5 52 l-3 44 -5 -52z"/>
<path d="M6676 1594 c-5 -13 -3 -14 6 -7 7 6 20 13 28 16 10 4 8 6 -6 6 -12 1
-25 -6 -28 -15z"/>
<path d="M6800 1601 c0 -5 9 -7 20 -4 11 3 20 7 20 9 0 2 -9 4 -20 4 -11 0
-20 -4 -20 -9z"/>
<path d="M6928 1603 c6 -2 18 -2 25 0 6 3 1 5 -13 5 -14 0 -19 -2 -12 -5z"/>
<path d="M6750 1577 c0 -13 -9 -17 -41 -17 -22 0 -38 -4 -35 -8 8 -13 77 -1
83 15 3 7 3 17 -1 20 -3 4 -6 -1 -6 -10z"/>
<path d="M6868 1550 c-2 -22 0 -40 4 -40 5 0 8 18 8 40 0 22 -2 40 -4 40 -2 0
-6 -18 -8 -40z"/>
<path d="M7198 1583 c6 -2 18 -2 25 0 6 3 1 5 -13 5 -14 0 -19 -2 -12 -5z"/>
<path d="M7063 1573 c9 -2 25 -2 35 0 9 3 1 5 -18 5 -19 0 -27 -2 -17 -5z"/>
<path d="M7261 1564 c-2 -29 -19 -42 -66 -47 l-40 -4 41 -1 c51 -2 77 16 71
49 -4 21 -4 21 -6 3z"/>
<path d="M6915 1559 c-11 -16 -2 -17 25 -2 24 12 24 13 3 13 -12 0 -25 -5 -28
-11z"/>
<path d="M6703 1513 c9 -2 23 -2 30 0 6 3 -1 5 -18 5 -16 0 -22 -2 -12 -5z"/>
<path d="M6928 1513 c12 -2 32 -2 45 0 12 2 2 4 -23 4 -25 0 -35 -2 -22 -4z"/>
</g>
</svg>
