<?xml version="1.0" standalone="no"?>
<!DOCTYPE svg PUBLIC "-//W3C//DTD SVG 20010904//EN"
 "http://www.w3.org/TR/2001/REC-SVG-20010904/DTD/svg10.dtd">
<svg version="1.0" xmlns="http://www.w3.org/2000/svg"
 width="1650.000000pt" height="1275.000000pt" viewBox="0 0 1650.000000 1275.000000"
 preserveAspectRatio="xMidYMid meet">

<g transform="translate(0.000000,1275.000000) scale(0.100000,-0.100000)"
fill="#000000" stroke="none">
<path d="M4184 11873 c-12 -2 -30 -13 -40 -24 -15 -16 -31 -19 -114 -19 -115
0 -191 -20 -232 -60 -36 -37 -38 -83 -3 -106 29 -19 41 -13 59 31 20 47 64 66
162 73 l82 5 -5 -249 c-5 -223 7 -527 23 -568 4 -10 -17 -14 -93 -18 -54 -3
-114 -12 -134 -20 -45 -20 -79 -55 -79 -83 0 -43 50 -62 69 -26 6 10 30 28 54
40 51 25 162 28 344 9 139 -14 211 -2 255 43 25 24 27 32 18 49 -18 34 -39 35
-71 4 -27 -26 -38 -29 -108 -32 l-78 -4 -7 32 c-3 18 -6 203 -6 411 l0 379 83
0 c59 0 94 6 125 20 61 28 75 77 30 101 -17 9 -24 7 -42 -15 -27 -33 -64 -46
-132 -46 -50 0 -54 2 -54 24 0 13 -6 28 -12 34 -16 12 -67 21 -94 15z"/>
<path d="M6523 11825 c-37 -16 -48 -34 -57 -97 l-7 -48 -54 0 c-36 0 -60 -6
-74 -17 -33 -28 -12 -46 60 -51 l62 -5 -7 -105 c-3 -58 -6 -140 -6 -182 0 -87
-19 -126 -79 -167 -55 -37 -66 -32 -85 45 -19 78 -86 216 -131 270 -17 20 -38
49 -48 64 -21 34 -77 52 -131 44 -76 -13 -82 -22 -89 -133 -3 -54 -12 -129
-21 -168 -14 -59 -21 -73 -46 -87 -31 -17 -56 -81 -44 -112 9 -23 -38 -81 -92
-112 -80 -47 -165 -33 -214 36 -37 52 -70 250 -41 250 5 0 26 -7 47 -16 60
-25 127 -15 169 26 43 42 59 88 53 152 -9 87 -69 138 -163 138 -102 0 -200
-72 -252 -185 -38 -84 -45 -224 -14 -305 42 -111 143 -182 268 -188 93 -5 158
16 219 71 l46 42 53 -52 c151 -147 375 -86 438 118 3 10 21 19 44 22 22 4 58
20 81 37 l41 30 6 -38 c24 -145 48 -202 98 -232 40 -25 78 -25 107 -2 21 17
22 20 7 48 -8 16 -20 56 -27 89 -15 82 -24 367 -15 498 l7 107 58 0 c73 0 110
13 110 39 0 25 -19 31 -98 31 l-67 0 3 69 4 69 -33 11 c-40 14 -46 14 -86 -4z
m-948 -350 c20 -19 25 -34 25 -73 0 -54 -32 -114 -64 -120 -26 -5 -78 6 -98
22 -16 11 -16 17 -3 60 25 81 65 135 103 136 7 0 24 -11 37 -25z m454 -129
c41 -82 84 -196 75 -196 -3 0 -40 9 -82 19 -43 10 -88 21 -102 25 l-26 5 23
113 c12 62 23 127 23 143 l1 30 24 -29 c13 -16 42 -66 64 -110z m-41 -222 c15
-3 51 -12 80 -20 51 -15 52 -16 52 -54 0 -83 -41 -140 -102 -140 -84 0 -152
68 -153 153 0 45 3 53 25 64 14 7 35 10 47 8 13 -3 35 -8 51 -11z"/>
<path d="M7180 11823 c-30 -16 -36 -25 -44 -68 -13 -77 -11 -75 -70 -75 -37 0
-60 -6 -75 -17 -34 -29 -12 -46 61 -51 l63 -4 -7 -91 c-18 -257 -4 -437 40
-527 35 -72 82 -100 168 -100 78 0 138 35 174 103 27 51 36 57 44 29 10 -30
86 -100 135 -124 61 -30 171 -36 239 -14 65 22 135 84 175 155 l31 55 8 -39
c22 -109 58 -155 121 -155 52 0 67 26 83 150 34 265 93 429 151 418 39 -7 47
-52 53 -286 6 -253 5 -252 85 -252 65 0 74 12 101 145 39 192 78 298 128 344
25 24 27 24 44 8 15 -15 16 -37 14 -183 -4 -187 8 -251 56 -302 53 -56 155
-65 224 -19 18 12 47 41 64 64 l32 42 7 -102 c9 -131 32 -266 50 -294 18 -27
66 -38 109 -23 49 16 56 28 45 80 -9 45 -28 242 -24 248 1 2 20 -7 41 -20 79
-46 170 -24 271 66 40 37 58 46 87 46 19 0 56 7 82 16 25 8 47 14 48 12 1 -2
11 -22 21 -46 27 -62 104 -128 173 -148 142 -42 291 47 323 191 21 95 -27 259
-111 375 -22 30 -51 71 -65 92 -29 44 -79 63 -139 54 -77 -13 -82 -21 -89
-143 -7 -126 -36 -225 -73 -249 -13 -9 -26 -25 -30 -36 -7 -22 -76 -57 -113
-58 -18 0 -22 4 -16 18 63 152 61 264 -7 347 -60 72 -151 94 -228 55 -60 -31
-126 -121 -165 -229 l-14 -36 0 29 c-1 17 4 81 10 144 13 130 12 132 -58 132
-67 0 -91 -28 -108 -125 -8 -44 -14 -101 -15 -126 0 -88 -64 -255 -118 -311
-30 -33 -67 -36 -82 -9 -6 12 -10 93 -10 193 0 187 -8 235 -47 287 -91 120
-251 50 -310 -136 -20 -63 -33 -68 -33 -13 0 48 -25 126 -52 160 -47 59 -127
89 -180 67 -78 -34 -113 -108 -167 -352 -7 -29 -9 7 -10 131 -1 192 -3 197
-70 196 -47 -1 -77 -18 -90 -52 -6 -14 -12 -77 -14 -140 -3 -104 -6 -122 -35
-183 -61 -132 -139 -199 -231 -199 -81 0 -129 45 -156 148 -16 63 -20 164 -6
164 5 0 26 -7 47 -16 60 -25 127 -15 169 26 43 42 59 88 53 152 -9 87 -69 138
-163 138 -152 0 -269 -138 -285 -334 -5 -73 -13 -103 -38 -152 -28 -55 -80
-114 -102 -114 -17 0 -48 36 -60 70 -16 45 -25 304 -15 464 l7 124 74 4 c54 2
78 8 91 21 17 17 17 19 -1 33 -13 9 -44 14 -89 14 l-69 0 6 63 c6 50 4 66 -7
76 -26 21 -80 23 -117 4z m655 -348 c20 -19 25 -34 25 -73 0 -54 -32 -114 -64
-120 -26 -5 -78 6 -98 22 -16 11 -16 17 -3 60 25 81 65 135 103 136 7 0 24
-11 37 -25z m2412 -112 c50 -95 90 -199 81 -208 -4 -4 -198 42 -205 48 -2 2 6
38 16 80 11 42 23 103 27 137 8 76 14 71 81 -57z m-531 93 c17 -13 19 -27 19
-118 0 -70 -6 -125 -19 -171 l-19 -69 -71 9 c-39 4 -90 8 -112 8 l-42 0 15 50
c27 92 99 229 142 268 45 41 58 44 87 23z m552 -349 l82 -21 0 -38 c0 -46 -15
-86 -42 -115 -17 -18 -33 -23 -69 -23 -40 0 -55 6 -85 32 -42 37 -64 82 -64
130 0 73 20 77 178 35z m-651 -53 l52 -7 -14 -27 c-19 -37 -62 -70 -90 -70
-28 0 -71 33 -78 60 -11 44 25 56 130 44z"/>
<path d="M4703 11800 c-61 -26 -77 -137 -70 -490 5 -259 15 -326 58 -397 36
-59 106 -80 148 -45 l20 17 -19 57 c-39 113 -48 436 -21 749 4 53 3 86 -4 96
-13 18 -82 26 -112 13z"/>
<path d="M11425 11800 c-12 -4 -26 -14 -32 -22 -15 -17 -33 -126 -33 -198 0
-30 -3 -64 -6 -76 -6 -21 -6 -21 -42 -2 -53 28 -161 22 -227 -13 -147 -75
-224 -304 -151 -453 66 -135 212 -193 320 -126 39 23 106 143 106 189 1 18 6
10 20 -29 22 -66 91 -134 151 -150 76 -21 177 33 210 111 l11 29 29 -45 c15
-24 47 -58 69 -74 142 -103 377 -71 446 61 14 27 10 58 -8 58 -6 0 -28 -18
-50 -41 -48 -50 -92 -69 -155 -69 -102 0 -160 79 -170 231 l-6 79 44 -20 c59
-27 118 -26 159 3 55 37 74 70 78 140 3 52 0 67 -20 96 -49 72 -148 92 -243
47 -100 -46 -171 -160 -185 -297 -8 -84 -45 -177 -87 -221 -45 -47 -77 -32
-104 47 -16 46 -19 412 -6 608 l8 117 -35 15 c-39 17 -61 18 -91 5z m652 -322
c42 -39 25 -160 -26 -188 -45 -23 -121 4 -121 43 0 31 43 120 71 146 29 27 47
27 76 -1z m-758 -39 l34 -20 -7 -92 c-7 -101 -37 -240 -62 -290 -54 -106 -128
-116 -176 -24 -19 36 -23 58 -23 147 0 130 22 205 75 262 32 33 43 38 81 38
27 0 57 -8 78 -21z"/>
<path d="M6317 10773 c-4 -3 -7 -16 -7 -28 0 -12 -9 -48 -21 -81 -19 -56 -45
-144 -110 -379 -103 -373 -219 -720 -311 -930 -90 -207 -189 -459 -217 -554
-31 -104 -51 -227 -51 -314 0 -27 -3 -47 -7 -45 -5 2 -37 20 -73 40 -163 93
-380 145 -560 135 -263 -15 -473 -93 -662 -246 -100 -80 -223 -243 -282 -372
-61 -136 -70 -185 -70 -379 0 -165 1 -180 28 -259 55 -165 148 -297 279 -398
68 -52 274 -161 358 -188 30 -10 80 -31 111 -46 67 -34 93 -37 83 -12 -3 10
-11 68 -16 130 -12 141 0 224 46 320 104 213 342 275 564 146 64 -37 193 -164
246 -242 l46 -68 -52 -100 c-79 -152 -79 -231 0 -331 65 -82 67 -89 29 -112
-93 -59 -232 38 -274 190 -8 30 -20 66 -26 80 l-10 25 -16 -25 c-16 -25 -70
-80 -233 -235 -163 -156 -225 -350 -174 -545 27 -103 63 -168 130 -234 121
-120 264 -179 440 -179 103 -1 159 11 302 65 50 18 65 20 75 10 17 -17 -16
-48 -123 -114 -47 -29 -118 -74 -157 -100 -38 -26 -116 -71 -172 -100 l-101
-53 -157 0 c-178 0 -205 6 -357 83 -72 36 -107 63 -177 132 -74 75 -93 102
-137 191 -57 119 -81 218 -81 339 0 139 28 244 100 370 l32 55 -50 -52 c-94
-98 -127 -212 -119 -408 11 -246 109 -450 285 -591 85 -69 248 -143 352 -161
100 -18 274 -13 336 10 62 23 314 187 454 296 47 37 118 78 190 111 63 28 118
55 122 58 4 4 -34 7 -85 7 -104 1 -158 15 -186 51 l-19 24 -73 -31 c-41 -17
-110 -38 -154 -45 -303 -53 -569 157 -553 437 6 107 39 169 150 285 48 51 88
98 88 103 0 25 17 8 37 -37 16 -35 39 -60 88 -96 78 -57 122 -75 188 -76 58 0
147 42 193 92 43 45 94 118 94 133 0 7 -15 19 -32 26 -46 19 -106 76 -130 123
l-20 40 25 20 c17 15 31 41 42 86 9 36 28 91 42 122 l26 58 -48 82 c-90 156
-168 244 -292 328 -127 85 -292 130 -404 110 -139 -25 -215 -66 -312 -169 -82
-85 -126 -197 -128 -319 0 -26 -3 -64 -7 -84 l-7 -38 -77 34 c-237 103 -399
265 -461 461 -19 60 -22 92 -22 230 0 148 2 165 27 233 77 211 259 415 444
498 282 126 524 136 807 34 93 -34 267 -133 344 -196 l46 -38 -6 45 c-42 307
-4 507 168 889 115 255 324 857 398 1144 l12 50 38 -140 c36 -130 135 -423
177 -524 10 -25 41 -106 68 -180 28 -74 77 -196 110 -270 97 -222 169 -419
193 -530 24 -112 31 -284 16 -412 l-7 -67 92 63 c120 82 268 155 391 195 116
37 288 53 432 40 124 -12 132 -14 285 -74 107 -43 156 -56 237 -66 56 -7 106
-10 110 -6 15 16 -15 63 -62 99 -106 80 -281 152 -455 188 -255 53 -552 -4
-871 -168 -3 -1 -9 44 -12 101 -11 173 -31 234 -236 737 -149 363 -224 580
-380 1095 -33 110 -73 246 -87 303 -26 97 -32 110 -47 95z"/>
<path d="M10007 10713 c-4 -6 -18 -46 -32 -90 -94 -299 -215 -452 -445 -564
-163 -81 -370 -118 -655 -119 -91 0 -104 -2 -138 -25 -40 -28 -70 -79 -81
-137 -5 -28 -3 -38 6 -39 41 -4 133 3 198 16 41 8 165 26 275 41 221 29 330
59 453 125 133 71 255 181 327 294 72 114 125 283 124 400 0 58 -20 118 -32
98z"/>
<path d="M9551 10628 c-17 -98 -69 -224 -126 -303 -95 -134 -232 -217 -428
-261 -100 -23 -197 -63 -197 -82 0 -13 335 5 392 22 122 35 279 177 342 308
77 161 99 366 40 385 -6 2 -16 -26 -23 -69z"/>
<path d="M7485 10680 c-98 -11 -234 -70 -256 -112 -10 -19 -9 -19 22 -3 69 36
193 67 274 69 69 1 88 -3 137 -27 73 -36 98 -67 98 -121 0 -71 -53 -132 -151
-175 -24 -11 -118 -36 -209 -55 -239 -53 -302 -77 -372 -146 -60 -58 -82 -102
-28 -57 47 40 130 83 190 100 30 8 136 32 235 52 201 41 273 71 329 137 97
113 63 251 -79 313 -62 27 -112 34 -190 25z"/>
<path d="M7004 10292 c-186 -136 -252 -359 -157 -535 40 -73 122 -153 188
-183 89 -41 120 -14 38 34 -67 38 -164 137 -193 197 -20 41 -25 65 -25 131 0
72 4 87 37 155 21 40 67 109 103 152 70 82 72 95 9 49z"/>
<path d="M8560 10124 c-59 -36 -220 -104 -246 -104 -15 0 -15 2 0 23 19 27 56
94 56 102 0 4 -12 -3 -27 -15 -56 -42 -200 -138 -255 -169 -51 -29 -58 -31
-58 -14 0 10 11 42 25 71 14 30 25 56 25 58 0 3 -54 -28 -152 -89 -39 -24 -54
-42 -85 -105 -36 -74 -40 -77 -75 -80 -21 -2 -63 2 -95 7 -64 12 -72 7 -73
-44 -1 -29 -1 -29 -15 -11 -23 30 -18 67 12 98 14 15 25 30 22 32 -2 3 -26 0
-53 -6 -54 -11 -128 -1 -229 33 l-59 20 -44 -21 c-24 -12 -54 -35 -66 -52 -41
-59 -84 -188 -62 -188 3 0 17 14 31 30 38 45 45 38 38 -37 -7 -72 7 -176 26
-200 10 -11 16 -7 33 24 14 26 37 46 69 62 31 15 47 29 47 42 0 29 -58 25
-100 -6 -37 -28 -45 -27 -35 4 15 47 88 62 179 37 28 -8 74 -21 101 -28 l50
-14 3 -47 c5 -72 42 -60 42 14 0 21 -5 29 -17 30 -10 0 -13 3 -6 5 6 3 27 -2
46 -10 29 -12 36 -20 39 -47 4 -44 26 -49 30 -7 2 28 7 33 28 33 17 0 26 -7
30 -24 7 -32 30 -39 37 -12 6 23 53 31 53 9 0 -7 5 -20 10 -28 8 -12 12 -11
30 8 11 12 30 22 40 22 11 0 20 4 20 9 0 10 -59 24 -180 42 -85 13 -243 61
-219 66 10 2 43 -3 75 -11 33 -8 106 -24 164 -36 112 -21 212 -65 261 -112 33
-33 53 -89 45 -124 -9 -36 -26 -29 -26 11 0 48 -27 110 -53 123 -54 27 -96 21
-84 -12 5 -13 12 -14 32 -6 52 20 58 15 51 -42 -5 -43 -3 -58 14 -83 25 -37
25 -45 1 -45 -11 0 -23 9 -26 20 -6 20 -41 34 -70 28 -26 -5 -19 -22 14 -33
17 -5 31 -13 31 -17 0 -15 -61 -8 -100 12 -41 21 -43 20 -40 -17 1 -17 -4 -23
-19 -23 -12 0 -21 6 -21 15 0 14 -29 35 -49 35 -20 0 -11 -40 10 -48 20 -8 19
-8 -6 -22 -23 -12 -27 -12 -41 8 -8 12 -22 22 -30 22 -16 0 -19 -36 -3 -45 6
-5 2 -13 -12 -23 -17 -12 -24 -13 -27 -3 -5 15 -43 51 -54 51 -12 0 -10 -48 2
-55 17 -10 11 -22 -12 -28 -17 -5 -29 2 -49 26 -34 40 -45 31 -22 -18 l18 -37
-28 -24 c-37 -32 -66 -30 -134 6 -55 30 -83 37 -83 23 0 -20 29 -111 43 -139
15 -29 120 -144 131 -144 2 0 6 7 8 16 2 13 18 5 68 -35 35 -29 66 -47 68 -41
2 5 -10 40 -27 76 -28 60 -38 94 -27 94 2 0 30 -13 61 -30 66 -35 102 -40 85
-12 -6 9 -26 42 -45 72 -39 61 -32 74 17 37 30 -23 111 -67 122 -67 2 0 -9 24
-25 53 -16 28 -29 62 -29 73 0 22 1 22 76 -8 42 -16 78 -28 80 -26 2 2 -8 21
-22 42 -14 21 -23 40 -19 44 23 24 219 -45 290 -102 83 -66 178 -108 114 -50
-22 19 -63 93 -57 100 2 2 28 -24 58 -58 40 -45 70 -68 117 -89 88 -41 106
-36 42 10 -50 36 -89 84 -89 109 0 6 24 0 53 -13 51 -23 227 -55 303 -55 l39
0 -30 18 c-147 89 -148 89 -217 91 -113 3 -237 45 -265 89 -8 13 4 10 46 -11
62 -31 157 -56 211 -57 l34 0 -49 50 c-28 28 -83 67 -127 90 -42 22 -79 44
-82 49 -3 4 32 -5 77 -21 47 -17 116 -33 162 -37 l80 -7 -48 -8 c-26 -4 -62
-5 -80 -2 l-32 6 35 -17 c122 -59 118 -57 168 -46 148 34 272 68 272 74 0 4
-54 9 -119 11 -110 3 -121 5 -145 27 -14 14 -26 27 -26 31 0 3 33 16 73 28 69
20 178 82 208 118 12 15 10 16 -21 9 -19 -4 -65 -13 -102 -20 -68 -11 -68 -11
-68 12 0 13 -6 23 -12 23 -7 0 -5 5 5 11 10 6 47 32 82 58 35 27 96 67 135 91
39 23 69 44 67 46 -2 2 -43 -3 -91 -12 -48 -8 -115 -14 -149 -12 l-62 3 1 66
c0 53 6 75 28 113 l27 46 -28 0 c-16 0 -73 -14 -127 -31 -54 -17 -100 -28
-103 -25 -11 11 127 58 236 81 40 8 79 18 86 23 16 9 87 94 82 98 -6 6 -347
-115 -390 -138 -10 -5 -26 -8 -35 -6 -11 2 0 13 33 32 28 16 65 43 83 60 36
33 107 125 101 130 -2 2 -29 -12 -59 -30z m-310 -243 c0 -14 -118 -83 -133
-78 -6 2 17 23 52 45 65 43 81 49 81 33z m-792 -87 c23 -15 39 -41 30 -49 -3
-3 -27 -7 -54 -10 -53 -5 -84 12 -84 46 0 39 57 46 108 13z m625 -3 c141 -31
155 -32 184 -18 37 19 83 29 83 19 0 -20 -78 -45 -148 -48 -41 -2 -79 -7 -85
-13 -7 -5 -35 -16 -64 -24 -50 -15 -60 -14 -125 9 -27 9 -22 40 10 63 30 22
79 26 145 12z m-789 -51 c-6 -5 -24 21 -24 34 0 6 6 1 14 -10 8 -10 12 -21 10
-24z m1316 -38 c0 -4 -28 -19 -62 -32 -50 -20 -78 -25 -140 -23 -116 2 -129
20 -16 20 71 0 105 5 143 21 54 23 75 27 75 14z m205 -33 c-22 -10 -47 -18
-55 -18 -8 0 5 8 30 19 59 24 76 24 25 -1z m-867 -19 c40 -11 99 -35 130 -53
51 -28 66 -32 134 -32 43 0 78 -3 78 -6 0 -12 -31 -19 -86 -19 -43 0 -70 8
-132 39 -42 21 -102 46 -132 56 -30 10 -59 21 -64 26 -13 12 -11 12 72 -11z
m702 -42 c-58 -25 -114 -42 -145 -44 -49 -3 -49 -3 -15 7 52 16 140 46 185 63
84 32 66 14 -25 -26z m-175 -99 c55 -1 57 -2 25 -10 -39 -9 -126 -2 -150 13
-10 6 -2 7 25 4 22 -3 67 -6 100 -7z m-93 -94 c40 -8 96 -19 123 -24 l50 -9
-55 -1 c-55 -1 -168 21 -199 39 -23 13 -3 12 81 -5z"/>
<path d="M10152 10065 c-103 -29 -179 -83 -212 -151 -28 -58 -33 -162 -11
-236 15 -54 85 -127 123 -130 13 0 41 -2 63 -3 l40 -1 2 57 c2 91 41 145 128
178 51 19 50 21 -23 36 -88 18 -127 3 -159 -59 -12 -23 -14 -47 -9 -100 5 -67
5 -69 -9 -44 -31 56 -30 111 2 180 17 35 50 84 74 109 82 87 174 90 378 14 70
-26 70 -4 -1 49 -136 102 -264 135 -386 101z"/>
<path d="M6315 9743 c-18 -100 -127 -417 -228 -663 -99 -244 -152 -405 -168
-510 -18 -126 -7 -323 26 -445 40 -151 92 -297 151 -426 54 -115 63 -152 44
-164 -16 -10 -33 8 -135 136 -206 258 -388 415 -610 527 -121 60 -218 84 -366
90 -105 3 -139 1 -210 -17 -163 -41 -332 -144 -428 -263 -194 -239 -197 -547
-7 -746 42 -45 117 -102 134 -102 5 0 15 28 21 63 33 170 191 346 375 418 118
45 181 54 298 40 157 -19 249 -58 408 -171 126 -89 224 -194 296 -316 31 -55
75 -120 96 -146 l39 -48 -50 -65 c-35 -45 -52 -77 -56 -108 -16 -102 42 -188
162 -243 76 -35 88 -50 75 -99 -8 -28 -13 -31 -66 -37 -73 -9 -75 -11 -129
-84 -60 -82 -130 -140 -213 -177 -63 -28 -79 -31 -174 -32 -96 0 -109 2 -159
28 -29 16 -76 51 -102 77 l-49 49 -26 -38 c-29 -45 -54 -120 -54 -166 0 -55
30 -135 65 -174 19 -20 58 -50 87 -67 50 -27 60 -29 163 -29 109 0 111 0 199
42 138 66 239 144 309 238 33 44 70 103 83 132 42 95 53 80 60 -87 3 -63 10
-139 15 -168 12 -60 10 -60 134 -11 39 15 89 33 113 40 23 7 42 15 42 18 0 3
-14 14 -30 23 -50 29 -39 89 24 126 32 19 35 25 38 74 3 46 6 53 25 56 16 2
28 -6 45 -33 27 -41 28 -41 153 1 44 15 73 30 65 32 -8 3 -43 31 -78 64 -35
32 -81 66 -103 74 -46 19 -89 66 -89 98 0 18 17 33 79 69 103 60 121 83 121
157 0 69 -14 112 -51 164 -16 22 -29 51 -29 65 0 25 37 90 131 236 97 149 193
243 307 300 29 15 56 34 58 43 32 102 191 383 272 478 68 81 97 92 137 54 l21
-20 54 37 c68 46 234 120 303 135 51 11 52 11 22 20 -16 5 -106 10 -200 10
-158 1 -176 0 -260 -25 -273 -83 -545 -278 -773 -557 -106 -131 -163 -191
-173 -184 -12 7 1 61 34 139 55 131 136 380 157 485 40 196 37 340 -10 526
-21 79 -38 126 -140 374 -107 257 -142 352 -200 542 -30 98 -58 178 -61 178
-4 0 -10 -17 -14 -37z"/>
<path d="M10249 9727 c-46 -31 -61 -62 -56 -121 4 -50 6 -53 71 -99 61 -42
229 -272 361 -492 135 -225 172 -295 280 -530 73 -157 198 -511 218 -615 3
-14 18 -86 35 -160 30 -130 60 -345 83 -590 7 -68 9 -183 5 -281 -7 -175 -38
-457 -55 -499 -13 -34 -13 -30 5 170 24 264 23 611 -4 785 -11 77 -24 169 -27
205 -11 96 -96 433 -155 611 -158 472 -430 978 -705 1307 -38 45 -72 82 -77
82 -10 0 6 -41 37 -94 27 -46 76 -202 95 -303 18 -90 7 -545 -14 -638 -63
-271 -148 -455 -312 -676 -104 -139 -185 -199 -375 -275 -63 -25 -150 -57
-194 -71 -44 -13 -96 -30 -115 -36 l-35 -13 -3 -83 c-3 -77 -1 -83 15 -77 10
4 68 21 128 37 221 60 591 269 641 362 115 215 182 374 245 579 23 76 44 136
47 134 6 -7 -35 -194 -59 -268 -27 -82 -154 -353 -187 -398 -17 -24 -6 -17 37
25 53 51 60 56 51 31 -17 -47 -86 -138 -137 -182 -169 -144 -429 -274 -619
-309 -109 -20 -164 -48 -175 -89 -5 -17 -6 -32 -4 -35 3 -2 38 12 77 32 78 39
190 84 173 70 -5 -5 -27 -22 -48 -37 -20 -15 -35 -31 -32 -37 3 -5 0 -6 -8 -3
-22 8 -143 -50 -160 -77 -15 -23 -33 -79 -26 -79 9 0 202 100 215 111 11 9 11
15 3 25 -18 22 114 19 153 -3 29 -18 30 -18 51 12 29 42 215 231 221 225 2 -3
-49 -63 -115 -135 -65 -71 -119 -132 -119 -136 0 -10 44 -78 50 -79 3 0 19 17
35 39 17 21 73 85 126 142 116 125 135 148 182 219 21 30 37 50 37 45 0 -23
-104 -165 -200 -271 -188 -209 -186 -206 -135 -254 25 -23 26 -23 60 -7 20 9
51 17 70 17 33 0 38 6 106 106 73 109 190 334 252 485 52 126 121 374 153 545
26 141 27 166 28 469 1 176 -2 352 -6 390 -7 70 -7 70 9 35 38 -85 43 -129 43
-421 0 -256 -3 -302 -25 -450 -41 -265 -90 -446 -174 -646 -41 -99 -135 -285
-177 -350 -19 -29 -50 -78 -70 -109 l-36 -56 44 8 c64 12 127 6 175 -17 52
-25 120 -99 159 -173 17 -33 31 -50 35 -43 4 7 28 75 54 152 70 206 124 460
135 630 12 180 12 462 0 590 -5 55 -14 172 -20 260 -5 88 -12 198 -15 245 -4
60 -3 80 4 69 6 -9 15 -79 21 -155 5 -77 18 -197 28 -269 14 -104 17 -204 17
-500 0 -361 -1 -374 -28 -529 -19 -105 -42 -195 -66 -260 -21 -56 -46 -126
-56 -156 -10 -30 -34 -95 -55 -145 -21 -49 -43 -106 -49 -126 -10 -32 -18 -38
-58 -49 -63 -15 -116 -5 -193 38 -36 21 -103 54 -150 74 -47 21 -83 38 -80 38
3 0 37 -7 75 -15 79 -17 171 -20 179 -6 4 5 -15 17 -41 25 -96 32 -230 121
-396 262 -63 53 -82 78 -117 154 -4 8 -19 22 -33 30 -24 14 -33 12 -134 -30
-158 -64 -168 -72 -215 -170 -22 -47 -56 -109 -74 -138 -19 -29 -34 -56 -34
-61 0 -12 205 -98 300 -127 114 -34 263 -57 323 -50 162 19 202 19 219 -1 17
-18 16 -19 -46 -15 -81 5 -158 -17 -222 -63 -98 -70 -161 -109 -241 -151 -46
-23 -96 -53 -112 -67 -29 -24 -226 -125 -324 -166 -31 -13 -50 -29 -57 -45 -5
-15 -15 -26 -23 -26 -7 0 -28 -13 -47 -29 l-35 -28 52 -23 c29 -12 59 -33 68
-46 8 -13 21 -24 29 -24 21 0 44 33 48 69 3 34 24 54 203 192 l40 31 5 -39 c5
-35 3 -39 -23 -46 -22 -6 -35 -23 -64 -83 -19 -42 -57 -102 -83 -133 l-48 -57
42 -22 c22 -12 56 -26 74 -31 l32 -10 0 49 c0 27 5 61 12 77 6 15 14 48 17 73
11 82 26 38 26 -75 0 -121 13 -157 67 -198 30 -22 136 -38 124 -18 -4 6 -16
11 -28 11 -34 0 -85 29 -97 56 -16 36 -14 43 14 56 22 10 25 16 19 47 -3 20
-17 60 -30 90 -13 29 -24 60 -24 68 0 32 34 84 69 105 20 12 56 39 80 60 73
63 131 79 341 92 l185 11 -30 20 c-25 17 -44 20 -140 18 l-110 -2 70 14 c39 7
98 20 131 29 71 18 124 20 173 6 42 -12 50 -6 28 18 -10 10 -15 21 -12 24 9 9
-15 53 -36 66 -16 10 -26 9 -58 -8 -22 -11 -88 -34 -148 -50 -59 -17 -154 -47
-211 -67 -56 -20 -105 -34 -107 -31 -10 9 139 67 262 103 68 19 148 45 178 56
46 17 61 19 87 10 17 -6 46 -11 65 -11 30 0 63 -18 63 -34 0 -12 41 -46 55
-46 22 0 19 8 -20 55 l-34 42 62 22 c34 12 67 23 74 25 16 3 53 37 53 49 0 16
87 150 122 188 57 62 187 76 265 29 44 -26 97 -101 133 -188 82 -195 99 -523
34 -669 -27 -62 -26 -83 6 -83 46 0 105 81 201 276 86 176 97 192 169 264 89
89 157 127 246 136 l61 7 7 86 c9 119 -15 425 -50 626 -43 258 -166 620 -301
890 -177 352 -322 593 -498 825 -67 88 -155 222 -155 236 0 16 39 -30 130
-155 55 -75 127 -172 161 -216 164 -215 445 -742 559 -1046 54 -144 119 -374
144 -509 37 -197 46 -289 53 -538 4 -149 10 -225 17 -227 6 -2 23 -6 37 -9 67
-15 203 -180 249 -304 61 -160 100 -446 87 -632 -7 -105 -87 -406 -136 -519
-44 -99 -119 -230 -155 -270 l-21 -24 25 13 c72 37 166 143 259 291 57 92 153
296 195 418 85 244 165 616 197 921 15 141 6 564 -15 695 -35 218 -116 528
-175 668 -261 619 -473 934 -964 1427 -189 191 -620 505 -857 625 -65 33 -134
34 -181 2z m151 -187 c134 -93 443 -384 581 -550 58 -68 129 -170 129 -183 0
-18 -52 36 -66 68 -7 17 -13 24 -14 17 0 -13 -50 39 -50 52 0 3 -12 21 -27 38
-192 222 -444 464 -594 571 -29 20 -48 37 -43 37 6 0 43 -23 84 -50z m132
-185 c51 -55 125 -136 163 -180 l70 -79 -55 43 c-63 49 -302 300 -351 370
l-33 46 56 -50 c31 -27 98 -95 150 -150z m78 112 c153 -93 315 -230 652 -550
221 -209 473 -509 546 -649 18 -35 25 -52 15 -38 -78 107 -100 134 -325 397
-95 111 -369 377 -658 638 -66 60 -200 160 -267 199 -32 19 -67 42 -78 50 -38
30 44 -4 115 -47z m-218 -247 c19 -30 57 -98 85 -150 28 -52 67 -124 88 -160
206 -357 397 -868 504 -1345 53 -238 81 -664 61 -925 -6 -85 -23 -209 -36
-275 -14 -66 -29 -169 -35 -229 -9 -94 -31 -177 -44 -164 -10 10 17 346 35
438 67 337 34 922 -75 1322 -129 471 -301 923 -434 1140 -53 87 -221 422 -221
442 0 12 30 -27 72 -94z m469 -222 c29 -35 41 -52 25 -38 -30 27 -91 100 -83
100 3 0 29 -28 58 -62z m228 -204 c68 -57 340 -406 466 -597 160 -244 370
-662 444 -882 71 -213 99 -332 132 -560 47 -319 55 -470 41 -782 -13 -276 -20
-336 -46 -394 l-16 -34 4 50 c32 378 31 698 -3 960 -54 412 -115 659 -229 925
-70 161 -274 542 -376 700 -79 121 -295 421 -344 475 -55 62 -126 165 -113
165 5 0 23 -12 40 -26z m209 -979 c22 -60 42 -126 46 -145 3 -19 -5 -3 -18 35
-27 82 -58 156 -132 317 -30 64 -54 120 -53 125 1 20 120 -233 157 -332z m569
69 c185 -324 235 -435 288 -634 42 -157 89 -403 111 -580 18 -145 21 -456 5
-525 -6 -29 -9 6 -10 135 -4 607 -134 1118 -403 1580 -114 197 -128 221 -128
228 1 20 56 -62 137 -204z m-1143 91 c27 -160 36 -304 36 -562 0 -255 -19
-520 -41 -575 -18 -43 -33 -34 -25 15 32 220 40 338 39 617 0 261 -6 371 -29
555 -11 82 3 47 20 -50z m-224 -235 l-11 -25 6 25 c2 14 6 41 7 60 l1 35 4
-35 c2 -20 -1 -47 -7 -60z m-15 -92 c-42 -194 -184 -541 -240 -588 -8 -7 16
48 53 121 46 90 87 194 127 317 57 175 74 219 60 150z m1186 -90 c17 -44 28
-82 26 -85 -4 -4 -77 181 -77 194 1 16 23 -31 51 -109z m-741 -267 c7 -98 10
-211 6 -252 -3 -41 -9 -111 -12 -157 -4 -45 -11 -85 -17 -89 -7 -4 -7 24 -1
83 11 107 12 306 2 509 -10 200 6 134 22 -94z m375 59 c32 -190 47 -661 25
-812 -9 -63 -48 -184 -56 -176 -2 3 3 36 11 74 9 38 21 146 27 239 15 227 1
476 -46 812 l-6 38 15 -45 c9 -25 22 -83 30 -130z m-800 9 c-24 -98 -30 -79
-8 28 10 48 19 77 21 64 2 -12 -4 -54 -13 -92z m1224 38 c12 -35 33 -122 47
-193 23 -113 27 -160 29 -369 3 -154 1 -224 -5 -195 -5 25 -9 117 -9 205 -1
88 -8 205 -16 260 -13 88 -54 285 -71 337 -3 10 -3 18 0 18 2 0 14 -29 25 -63z
m-290 -141 c26 -149 49 -540 35 -593 -16 -59 -24 -8 -24 150 0 159 -11 343
-26 460 -9 69 2 57 15 -17z m510 -396 c17 -105 51 -420 51 -468 0 -11 -3 -12
-14 -3 -9 8 -16 47 -21 124 -9 154 -31 341 -55 472 -11 61 -19 119 -19 130 2
34 38 -124 58 -255z m-972 -52 c4 -82 2 -128 -4 -128 -10 0 -23 149 -22 250 1
104 21 14 26 -122z m-1556 7 c27 -14 84 -34 127 -45 77 -20 77 -20 22 -15 -75
5 -154 31 -187 60 -36 31 -25 31 38 0z m329 -77 c36 -12 60 -23 55 -25 -6 -2
-42 8 -80 21 -39 14 -63 25 -54 25 8 1 44 -9 79 -21z m-395 -26 c-3 -3 -11 0
-18 7 -9 10 -8 11 6 5 10 -3 15 -9 12 -12z m275 -83 c74 -12 139 -26 145 -30
14 -13 -9 -11 -138 11 -104 18 -178 37 -152 40 6 0 71 -9 145 -21z"/>
<path d="M9012 9720 c-29 -9 -83 -38 -121 -63 -38 -26 -71 -41 -73 -36 -2 6
-28 -8 -57 -31 -29 -23 -51 -43 -49 -45 2 -1 32 2 68 7 70 10 127 38 175 86
22 21 45 32 79 37 50 8 68 27 45 50 -12 11 -23 10 -67 -5z"/>
<path d="M9155 9665 c-117 -12 -137 -19 -173 -57 l-22 -25 37 -15 c21 -9 81
-26 134 -38 l96 -23 104 56 c57 31 113 62 123 70 19 14 19 15 -12 31 -37 19
-122 19 -287 1z"/>
<path d="M7395 9586 c-3 -9 -7 -23 -10 -31 -6 -20 15 -55 33 -55 9 0 12 13 10
47 -3 46 -23 70 -33 39z"/>
<path d="M7467 9573 c-14 -13 -7 -63 8 -63 14 0 35 37 35 61 0 10 -33 12 -43
2z"/>
<path d="M8900 9512 l-31 -37 53 -5 c43 -4 48 -6 28 -12 -14 -4 -37 -8 -51 -8
-25 0 -59 -16 -167 -77 -48 -27 -51 -31 -30 -36 13 -4 52 -7 88 -7 61 0 70 3
143 50 71 46 98 80 62 80 -12 0 -11 4 5 20 27 27 34 25 53 -15 l17 -35 -33
-16 c-67 -34 -86 -67 -45 -77 12 -4 20 -9 17 -11 -3 -3 -19 -2 -37 3 -32 10
-72 4 -72 -9 0 -4 7 -13 16 -21 8 -7 23 -27 32 -45 22 -41 115 -125 172 -154
41 -21 48 -22 112 -10 37 6 68 16 68 21 0 18 17 8 28 -16 7 -14 12 -28 12 -30
0 -3 -30 -5 -67 -5 -96 0 -103 -7 -74 -67 17 -34 26 -74 31 -136 l7 -88 53
-54 c30 -30 60 -55 67 -55 8 0 13 -11 12 -27 0 -28 -1 -28 -11 -5 -6 12 -15
22 -19 22 -4 0 -28 16 -53 35 -26 19 -48 35 -50 35 -2 0 -11 -27 -20 -61 -13
-46 -15 -67 -7 -88 6 -14 18 -55 26 -91 19 -73 34 -95 73 -105 22 -5 32 -1 55
26 28 34 35 33 16 -3 -17 -31 -70 -49 -112 -37 -34 9 -35 11 -57 100 -12 49
-24 89 -25 87 -21 -21 -114 -175 -111 -184 2 -6 7 -41 11 -78 9 -78 25 -95
101 -104 38 -4 56 0 100 24 29 16 56 25 61 20 11 -11 -43 -53 -96 -73 -42 -16
-46 -16 -112 7 -72 24 -79 32 -79 85 0 44 -11 96 -20 93 -12 -5 -170 -177
-170 -186 0 -5 35 -36 78 -70 66 -53 137 -128 173 -182 8 -13 14 -10 35 15 22
26 122 175 250 372 43 65 105 194 99 204 -3 4 -26 -4 -51 -18 -38 -21 -50 -24
-70 -14 -25 11 -34 34 -9 25 20 -8 79 13 100 36 10 11 26 20 35 20 22 0 28 15
46 115 15 88 18 181 6 189 -4 2 -18 -18 -31 -46 -17 -37 -31 -53 -57 -64 -44
-19 -74 -18 -74 2 0 10 6 13 19 9 27 -8 76 37 96 89 10 26 25 46 36 49 15 4
19 14 19 44 0 68 -62 237 -84 230 -13 -4 -23 -44 -31 -119 -9 -79 -30 -103
-87 -101 -49 2 -118 26 -118 42 0 6 15 4 35 -5 42 -17 109 -18 123 -1 5 6 15
55 22 107 8 57 18 100 27 106 25 20 3 66 -63 132 -34 34 -66 62 -72 62 -5 0
-12 -23 -14 -52 -4 -38 0 -63 14 -96 24 -54 17 -67 -8 -15 -19 37 -20 38 -64
33 -73 -8 -140 -4 -153 9 -9 9 10 11 78 9 l90 -3 6 70 c9 97 -4 113 -121 155
-50 17 -99 30 -109 27 -10 -2 -26 0 -35 5 -10 5 -31 14 -47 18 -26 8 -32 5
-59 -28z m550 -841 c0 -12 -20 -25 -27 -18 -7 7 6 27 18 27 5 0 9 -4 9 -9z
m-421 -553 c1 -10 -3 -18 -8 -18 -12 0 -21 38 -14 58 6 13 8 13 14 -4 4 -10 8
-27 8 -36z m89 -63 c-35 -33 -78 -47 -78 -26 0 25 15 41 39 41 14 0 33 5 41
10 34 22 33 7 -2 -25z"/>
<path d="M9350 9523 c-8 -3 -31 -12 -50 -20 l-34 -14 54 -50 c112 -103 97 -98
250 -87 74 5 163 6 198 3 34 -4 62 -5 62 -2 0 9 -161 99 -222 123 -99 41 -217
62 -258 47z"/>
<path d="M10133 9490 c-24 -10 -43 -24 -43 -30 0 -6 11 -36 24 -68 30 -72 72
-226 85 -318 16 -108 14 -346 -3 -446 -52 -290 -170 -486 -379 -627 -139 -94
-222 -120 -447 -141 -112 -11 -190 -25 -190 -36 0 -5 80 -176 86 -183 8 -9
353 84 430 116 81 34 109 50 201 116 24 17 46 28 49 24 3 -3 -34 -35 -82 -71
-108 -79 -230 -131 -429 -181 -77 -20 -145 -38 -151 -40 -8 -2 -7 -27 5 -87
15 -72 20 -83 37 -80 55 10 361 118 440 157 77 37 103 56 164 122 137 146 253
343 334 568 62 170 86 322 86 549 0 187 -18 302 -69 451 -35 99 -91 225 -100
225 -3 0 -25 -9 -48 -20z"/>
<path d="M7341 9293 c-21 -82 -22 -92 -11 -113 9 -16 14 -19 20 -10 6 9 9 9
15 0 10 -17 55 -31 76 -25 32 11 21 39 -24 60 -41 19 -42 22 -45 73 -4 61 -17
68 -31 15z"/>
<path d="M5293 9311 c-77 -20 -139 -96 -168 -206 -42 -160 51 -312 211 -345
56 -12 115 -6 98 9 -5 5 -31 14 -59 20 -87 21 -166 78 -202 145 -9 17 -15 55
-15 95 -1 109 44 189 126 227 91 42 203 24 255 -42 21 -26 22 -36 17 -99 l-6
-70 27 51 c41 82 17 151 -69 195 -45 23 -162 34 -215 20z"/>
<path d="M9470 9303 c0 -6 6 -16 14 -22 15 -13 68 -119 97 -196 l19 -50 59 -2
c39 -1 101 -15 182 -42 67 -23 124 -40 125 -38 2 2 -56 62 -129 134 -146 144
-245 212 -322 221 -27 3 -45 1 -45 -5z"/>
<path d="M8833 9230 c-23 -10 -78 -29 -123 -40 -118 -32 -116 -38 17 -61 l72
-12 34 37 c30 32 57 46 57 31 0 -3 -9 -24 -19 -46 l-19 -39 32 -25 c18 -14 37
-25 42 -24 5 0 24 18 43 40 33 39 33 40 15 60 -13 14 -27 19 -46 17 -24 -4
-27 -2 -22 19 4 14 2 23 -5 23 -7 0 -11 8 -9 17 4 24 -20 25 -69 3z"/>
<path d="M8992 9067 c-43 -43 -43 -44 -25 -66 18 -22 21 -22 53 -8 45 19 82
55 74 70 -14 24 -37 47 -48 47 -7 0 -31 -20 -54 -43z"/>
<path d="M5350 9015 c0 -16 76 -43 88 -31 11 12 -37 46 -64 46 -14 0 -24 -6
-24 -15z"/>
<path d="M9100 9005 c-12 -13 -43 -32 -67 -42 -43 -17 -44 -19 -39 -53 7 -42
28 -60 73 -60 44 0 113 35 113 58 0 17 -46 122 -53 122 -2 0 -14 -11 -27 -25z"/>
<path d="M5516 8985 c-9 -13 -37 -45 -64 -70 l-47 -46 38 21 c36 21 61 50 86
98 16 30 7 28 -13 -3z"/>
<path d="M9616 9001 c-4 -6 0 -37 7 -70 8 -34 10 -65 6 -73 -5 -7 -9 -36 -9
-65 l0 -52 53 -18 c105 -36 150 -66 178 -116 28 -52 46 -74 54 -65 7 6 -29
124 -62 203 -32 77 -125 219 -155 238 -34 22 -65 29 -72 18z"/>
<path d="M9150 8822 c-23 -9 -56 -13 -96 -9 l-61 4 -13 -46 c-8 -25 -16 -51
-18 -58 -6 -20 55 -43 118 -44 97 -2 122 27 110 127 l-5 41 -35 -15z"/>
<path d="M9610 8708 c0 -1 -9 -45 -19 -96 l-18 -93 21 -14 c25 -18 102 -109
152 -182 20 -29 41 -53 45 -53 15 0 10 69 -11 159 -27 111 -93 239 -137 264
-18 10 -33 17 -33 15z"/>
<path d="M8878 8613 c-27 -31 -48 -61 -48 -68 0 -21 55 -64 123 -96 l68 -31
25 22 c34 33 92 120 99 152 7 26 6 26 -33 21 -56 -7 -103 3 -146 32 -20 14
-38 25 -39 24 -1 0 -23 -25 -49 -56z"/>
<path d="M8743 8482 c-17 -15 -49 -42 -72 -60 -23 -18 -41 -37 -41 -42 0 -5
38 -41 85 -81 46 -40 82 -75 80 -79 -4 -6 16 -7 47 -1 12 2 158 143 158 152 0
4 -19 13 -42 20 -60 16 -94 35 -142 79 l-41 38 -32 -26z"/>
<path d="M9508 8378 c-29 -57 -54 -106 -56 -110 -2 -5 7 -12 21 -17 29 -11 86
-101 117 -183 12 -32 25 -58 29 -58 13 0 31 108 31 186 0 124 -40 269 -77 281
-7 3 -34 -39 -65 -99z"/>
<path d="M8018 8363 c7 -3 16 -2 19 1 4 3 -2 6 -13 5 -11 0 -14 -3 -6 -6z"/>
<path d="M8571 8336 c-6 -7 -9 -21 -5 -29 6 -17 83 -49 144 -62 l35 -6 -35 21
c-19 12 -44 30 -55 40 -11 9 -32 25 -46 34 -22 14 -28 14 -38 2z"/>
<path d="M8093 8206 c-178 -34 -372 -122 -474 -214 -32 -29 -59 -59 -59 -65 0
-7 -11 -25 -25 -42 -32 -39 -41 -26 -51 75 l-7 75 -35 -75 c-19 -41 -42 -97
-52 -125 -10 -27 -41 -99 -70 -159 -62 -131 -76 -173 -95 -303 -35 -232 -11
-484 68 -718 63 -185 80 -224 159 -370 118 -219 254 -417 532 -774 424 -544
555 -709 646 -816 32 -38 98 -122 145 -185 169 -227 356 -467 440 -565 48 -55
126 -147 173 -204 138 -165 221 -263 301 -353 218 -244 449 -394 701 -455 103
-24 134 -27 300 -28 175 0 189 1 271 28 86 27 236 109 274 149 l20 21 -20 -7
c-171 -62 -162 -60 -330 -59 -90 0 -195 7 -240 15 l-80 14 35 17 c42 20 110
75 110 87 0 5 -17 1 -37 -8 -29 -12 -66 -16 -158 -15 -117 1 -133 4 -232 44
-18 7 -35 10 -38 7 -14 -14 18 -47 77 -79 89 -48 45 -52 -63 -5 -106 46 -197
104 -345 217 -171 131 -244 206 -244 249 0 19 16 10 126 -67 146 -102 237
-145 406 -193 286 -81 488 -75 793 25 90 29 221 95 258 128 34 32 37 62 5 54
-227 -51 -328 -61 -328 -32 0 19 -44 20 -119 1 -142 -37 -320 -39 -468 -6
-108 25 -283 94 -370 146 -181 110 -362 253 -434 346 -38 49 -41 50 101 -62
58 -46 121 -93 140 -105 19 -12 80 -51 135 -87 130 -85 180 -110 296 -152 154
-55 238 -71 379 -70 176 0 360 46 423 105 12 10 27 19 34 19 7 0 13 4 13 9 0
5 15 12 33 16 95 20 246 260 304 484 31 119 27 222 -12 356 -71 246 -213 404
-418 467 -57 17 -87 20 -170 16 -95 -5 -108 -8 -183 -46 -123 -62 -198 -150
-240 -284 -15 -49 -16 -65 -6 -109 12 -51 47 -119 60 -119 4 0 7 35 7 78 1 92
26 153 91 219 110 110 274 138 413 71 105 -50 216 -211 242 -353 23 -124 -7
-292 -77 -425 -75 -144 -161 -223 -302 -277 -58 -22 -83 -26 -182 -26 -138 -1
-207 15 -337 78 -159 78 -324 217 -533 450 -116 129 -387 473 -537 680 -103
142 -225 301 -366 478 -34 44 -113 145 -175 225 -62 81 -131 170 -152 197
-475 614 -623 847 -721 1140 l-44 130 1 155 c0 142 2 162 27 237 33 97 108
215 175 273 183 158 423 156 582 -4 68 -69 145 -200 161 -275 17 -80 6 -252
-20 -324 -83 -233 -288 -480 -485 -583 l-52 -27 42 -66 c107 -166 210 -310
222 -310 7 -1 30 12 50 27 20 16 64 48 97 73 151 112 312 269 398 390 103 145
198 386 216 549 9 79 0 232 -18 310 -34 149 -111 293 -217 408 -126 137 -244
213 -414 266 -70 23 -108 28 -230 31 -98 3 -168 0 -217 -9z m339 -167 c65 -14
115 -39 148 -73 l24 -27 -54 25 c-31 14 -108 36 -172 48 -65 13 -118 26 -118
31 0 11 112 8 172 -4z m-342 -66 c-288 -129 -379 -207 -484 -417 -53 -106 -72
-197 -82 -393 -6 -97 -10 -121 -18 -106 -7 11 -11 73 -11 153 1 110 5 150 23
215 45 156 151 343 237 418 76 66 261 146 335 146 l35 0 -35 -16z m644 -115
c77 -63 177 -247 211 -385 14 -57 16 -99 12 -205 -9 -250 -82 -430 -260 -639
-35 -41 -77 -83 -93 -93 -16 -11 -50 -37 -76 -58 -89 -74 -76 -33 19 61 100
98 197 214 239 287 63 108 128 311 139 439 9 89 -10 223 -40 299 -34 84 -112
209 -172 276 -56 62 -44 72 21 18z m-1173 -110 c-5 -13 -30 -65 -56 -116 -64
-130 -97 -259 -97 -387 0 -105 25 -243 61 -349 12 -33 19 -61 17 -63 -5 -6
-51 58 -75 105 -76 148 -81 410 -13 589 33 88 138 243 164 243 4 0 4 -10 -1
-22z m1436 -145 c71 -161 83 -322 38 -512 -28 -116 -37 -137 -54 -127 -16 10
-14 26 15 123 23 77 27 106 27 228 1 147 -1 153 -80 375 -12 34 30 -34 54 -87z
m-1477 -993 c56 -42 128 -118 149 -157 43 -82 -163 78 -218 168 -38 62 -25 60
69 -11z m153 -455 c131 -197 232 -334 422 -571 44 -55 107 -136 140 -179 33
-44 121 -156 195 -250 272 -343 398 -501 436 -552 202 -266 253 -333 335 -432
52 -63 137 -164 189 -224 164 -188 203 -237 196 -245 -10 -9 -203 194 -345
363 -115 137 -146 177 -346 440 -55 72 -153 198 -219 280 -246 308 -479 603
-541 685 -27 36 -93 119 -146 186 -201 249 -389 526 -479 701 -58 113 -69 173
-14 73 20 -36 99 -159 177 -275z m478 -218 l21 -42 -29 30 c-17 17 -51 62 -77
100 l-48 70 56 -58 c31 -32 66 -77 77 -100z m49 -150 c64 -90 290 -366 362
-443 32 -33 55 -64 51 -67 -3 -4 16 -35 42 -69 27 -35 53 -69 59 -77 9 -12 8
-12 -11 -3 -11 6 -38 34 -58 62 -20 28 -46 55 -56 61 -26 13 -178 192 -269
315 -41 54 -106 140 -146 189 -84 106 -114 153 -114 180 0 24 68 -48 140 -148z
m710 -846 c53 -53 136 -148 185 -211 49 -63 123 -155 165 -205 42 -49 136
-164 210 -255 74 -91 193 -225 264 -297 71 -73 126 -133 122 -133 -11 0 -114
77 -181 136 -34 29 -102 101 -152 161 -193 229 -338 402 -416 498 -45 55 -113
134 -151 175 -74 81 -149 178 -173 223 -14 28 -14 28 9 16 13 -7 66 -55 118
-108z m2380 -421 c15 -42 24 -99 28 -163 4 -88 2 -106 -23 -184 -32 -97 -45
-99 -20 -2 33 125 13 347 -39 448 -25 47 -19 51 8 6 13 -22 34 -69 46 -105z
m-1880 -352 c29 -38 30 -40 6 -18 -25 23 -52 60 -43 60 2 0 19 -19 37 -42z"/>
<path d="M9358 8123 c-67 -103 -128 -201 -128 -209 0 -2 10 -4 23 -4 19 0 25
8 35 46 15 54 41 57 58 6 14 -44 26 -54 60 -50 39 4 51 34 65 154 8 72 8 107
0 127 -19 50 -44 35 -113 -70z"/>
<path d="M5800 8035 c13 -14 26 -25 28 -25 3 0 -5 11 -18 25 -13 14 -26 25
-28 25 -3 0 5 -11 18 -25z"/>
<path d="M8168 7734 c-94 -29 -210 -163 -243 -280 -9 -32 -23 -72 -30 -89 -14
-32 -18 -58 -16 -119 1 -39 1 -39 22 -20 43 38 117 150 123 186 9 47 16 51 60
33 53 -23 66 -20 66 15 0 18 -14 51 -35 81 -36 52 -43 83 -24 94 14 9 141 -76
174 -117 15 -19 49 -91 77 -161 28 -70 55 -127 60 -127 5 0 6 53 2 120 l-7
121 31 11 c20 8 35 23 41 41 6 15 20 41 31 57 24 34 20 48 -29 94 l-31 29 -31
-66 c-25 -55 -30 -77 -27 -122 1 -30 1 -55 -2 -55 -3 0 -15 7 -27 15 -20 14
-20 16 -6 92 8 43 21 93 29 111 19 45 18 47 -11 60 -35 16 -139 14 -197 -4z"/>
<path d="M8501 7533 c-17 -31 -31 -64 -31 -74 0 -20 74 -89 95 -89 9 0 19 -8
22 -17 13 -35 22 38 12 95 -11 56 -40 125 -58 136 -5 4 -23 -19 -40 -51z"/>
<path d="M8430 7415 c-6 -15 -10 -72 -10 -129 l0 -102 33 -30 c70 -64 76 -68
91 -54 18 15 51 100 61 157 6 40 5 42 -26 59 -19 9 -57 41 -86 71 l-53 54 -10
-26z"/>
<path d="M7085 7421 c-6 -11 9 -23 19 -14 9 9 7 23 -3 23 -6 0 -12 -4 -16 -9z"/>
<path d="M8158 7373 c-26 -54 -94 -145 -204 -270 l-46 -53 17 -55 c9 -33 21
-55 29 -55 25 0 122 97 217 216 83 104 91 118 85 146 -5 24 -61 128 -70 128
-1 0 -14 -26 -28 -57z"/>
<path d="M5649 7355 c39 -37 85 -83 101 -102 17 -18 30 -30 30 -25 0 13 -154
168 -180 182 -13 7 10 -18 49 -55z"/>
<path d="M7080 7359 c0 -6 -31 -43 -69 -83 -63 -65 -191 -249 -191 -273 0 -6
7 -16 16 -24 27 -22 53 -85 64 -155 7 -49 16 -73 30 -83 53 -36 -5 -143 -95
-174 -42 -15 -67 -43 -49 -55 6 -4 29 -32 51 -62 50 -69 107 -120 133 -120 16
0 20 7 20 34 0 57 14 61 144 35 64 -13 118 -20 121 -17 5 5 -22 97 -31 107 -2
2 -12 -6 -21 -18 -14 -17 -32 -24 -78 -28 -75 -6 -115 8 -115 40 0 14 25 73
56 133 53 103 56 111 51 163 -5 44 -15 68 -55 125 -81 117 -79 106 -28 185 24
38 49 72 55 75 14 9 15 206 1 206 -5 0 -10 -5 -10 -11z"/>
<path d="M4200 7330 c6 -11 13 -20 16 -20 2 0 0 9 -6 20 -6 11 -13 20 -16 20
-2 0 0 -9 6 -20z"/>
<path d="M8346 7204 c-10 -27 -7 -124 6 -147 6 -12 31 -42 55 -67 l44 -45 19
25 c11 14 26 38 34 55 14 28 14 30 -13 41 -15 6 -53 44 -83 83 -42 53 -57 67
-62 55z"/>
<path d="M6843 7168 c-18 -23 -71 -122 -78 -145 -10 -35 11 -27 26 10 7 17 25
58 40 90 27 57 30 68 12 45z"/>
<path d="M8284 6988 c-12 -13 -54 -72 -93 -133 -63 -96 -72 -115 -69 -150 5
-68 30 -59 146 51 57 54 109 109 117 123 12 25 10 29 -34 79 l-46 53 -21 -23z
m-17 -70 c-3 -8 -6 -5 -6 6 -1 11 2 17 5 13 3 -3 4 -12 1 -19z"/>
<path d="M5933 6493 c-7 -3 -13 -9 -13 -15 0 -6 -14 -33 -31 -60 -44 -72 -28
-71 21 2 41 60 47 81 23 73z"/>
<path d="M7109 6334 c26 -34 65 -74 71 -74 13 0 142 -61 138 -65 -2 -3 -47 7
-99 22 -122 35 -252 36 -428 5 -106 -20 -201 -51 -201 -67 0 -3 30 -3 68 -1
241 17 278 17 465 1 173 -14 247 -26 247 -38 0 -2 -93 -3 -207 -3 -182 -1
-218 -4 -288 -23 -77 -21 -116 -43 -102 -57 4 -4 69 -2 145 4 159 14 277 15
247 3 -11 -5 -87 -11 -170 -15 -353 -16 -489 -46 -859 -193 -77 -30 -157 -60
-176 -66 l-35 -10 29 -8 c33 -9 145 2 301 31 61 11 130 20 155 20 25 0 101 14
170 30 69 16 149 30 178 30 51 0 52 -1 41 -21 -6 -12 -7 -20 -2 -18 58 26 223
110 223 114 0 14 -373 -29 -536 -61 -67 -13 -130 -24 -140 -24 -66 1 138 52
306 76 205 29 336 44 388 44 43 0 73 10 167 55 64 30 122 55 129 55 8 0 24 8
36 18 l23 19 -40 94 -40 94 -44 7 c-72 13 -133 26 -154 34 -18 7 -19 6 -6 -12z"/>
<path d="M8928 6317 c-37 -12 -79 -32 -95 -43 -31 -24 -70 -84 -54 -84 5 0 12
4 16 9 3 5 23 24 45 41 l39 31 -6 -36 c-5 -32 -4 -35 18 -35 13 1 39 9 58 19
34 18 35 18 80 -4 76 -38 145 -49 207 -36 29 7 58 19 64 26 14 17 17 15 -71
39 -30 9 -72 27 -93 41 -92 62 -108 65 -208 32z"/>
<path d="M4696 6122 l-28 -57 25 24 c23 21 45 76 35 86 -2 3 -17 -21 -32 -53z"/>
<path d="M8925 6126 c-38 -14 -84 -25 -102 -26 -39 0 -78 -43 -94 -103 -17
-62 -8 -180 15 -206 11 -12 22 -21 25 -21 4 0 7 37 6 83 0 76 20 177 36 177 4
0 9 -9 12 -20 3 -10 17 -22 33 -26 24 -6 32 -2 58 29 26 30 49 42 134 70 145
48 149 58 25 64 -64 3 -91 -1 -148 -21z"/>
<path d="M7327 6041 c-48 -16 -99 -37 -114 -46 -14 -9 -100 -55 -192 -102
-198 -102 -231 -124 -330 -219 -42 -40 -89 -83 -106 -95 -51 -38 -155 -141
-199 -199 -39 -50 -66 -97 -200 -352 -22 -42 -37 -80 -33 -84 17 -17 93 20
138 67 37 39 50 62 63 113 23 93 105 237 200 351 75 91 96 110 229 198 177
117 271 174 357 217 65 33 171 73 176 67 2 -2 -52 -31 -119 -65 -166 -84 -483
-297 -580 -390 -124 -119 -229 -337 -269 -562 -38 -215 -26 -394 32 -493 21
-36 65 -65 77 -53 5 4 10 48 12 98 3 79 1 92 -17 111 -37 40 -72 128 -72 184
0 80 53 287 101 388 23 50 65 126 94 170 52 78 135 170 135 149 0 -6 -11 -21
-25 -34 -39 -37 -136 -195 -184 -298 -99 -218 -109 -404 -24 -489 45 -45 68
-45 45 0 -13 24 -16 56 -15 137 3 218 71 411 213 610 98 138 170 212 279 289
93 66 122 84 356 216 74 41 111 68 113 81 3 18 -31 64 -46 64 -4 -1 -46 -14
-95 -29z"/>
<path d="M9392 5997 c-44 -47 -25 -129 45 -194 43 -41 44 -43 21 -43 -29 0
-61 -40 -52 -64 8 -21 49 -46 76 -46 28 0 83 33 96 57 5 10 13 37 16 59 6 31
14 44 32 53 22 10 26 8 34 -15 32 -82 -21 -158 -139 -200 l-36 -13 31 -1 c51
0 121 29 152 65 60 68 63 189 5 234 -32 26 -59 26 -125 1 -50 -19 -54 -19 -66
-3 -7 10 -21 44 -30 75 -9 32 -22 58 -28 58 -6 0 -20 -10 -32 -23z"/>
<path d="M5955 5927 c-23 -23 -59 -57 -80 -75 -26 -21 -31 -28 -15 -21 13 7
47 17 75 23 49 11 50 12 57 56 4 25 7 48 5 52 -1 3 -20 -12 -42 -35z"/>
<path d="M7430 5948 c-19 -12 -70 -43 -112 -70 -42 -26 -80 -48 -83 -48 -14 0
-154 -96 -237 -162 -182 -144 -348 -362 -409 -534 -21 -60 -51 -205 -43 -213
2 -2 11 13 20 35 9 21 37 73 62 114 114 189 157 244 312 399 149 150 168 166
380 306 l223 148 -29 24 c-35 28 -40 28 -84 1z"/>
<path d="M6076 5914 c-4 -10 -1 -14 6 -12 15 5 23 28 10 28 -5 0 -13 -7 -16
-16z"/>
<path d="M8860 5810 c0 -80 19 -148 52 -186 17 -19 39 -34 49 -34 23 0 24 -3
-3 51 -17 33 -23 64 -24 123 -1 68 -5 81 -20 87 -46 18 -54 12 -54 -41z"/>
<path d="M7507 5780 c-92 -63 -215 -158 -356 -278 -46 -39 -100 -77 -120 -83
-46 -15 -56 -30 -30 -49 20 -16 19 -17 -28 -56 -26 -23 -67 -53 -91 -68 -53
-33 -46 -50 17 -42 l47 6 -46 -50 c-66 -71 -124 -174 -165 -291 -66 -190 -76
-306 -53 -644 8 -128 8 -196 1 -233 -6 -29 -7 -54 -4 -56 17 -10 54 19 90 71
23 32 55 76 72 98 34 44 35 61 9 225 -25 157 1 396 60 547 91 236 342 514 585
647 l50 28 -35 -32 c-19 -18 -64 -56 -101 -85 -96 -78 -220 -214 -298 -330
-165 -241 -231 -477 -215 -762 4 -68 11 -123 15 -123 5 0 9 -9 9 -19 0 -33
-41 -155 -63 -185 -37 -52 -76 -136 -63 -136 15 0 54 -41 94 -100 52 -77 272
-294 347 -342 163 -105 356 -180 551 -214 l101 -17 47 34 c26 19 61 44 78 56
40 30 46 29 66 -8 9 -18 26 -43 37 -56 l20 -24 116 21 c256 44 471 146 707
333 82 65 242 220 242 235 0 5 -34 49 -77 98 -42 49 -103 124 -136 167 -33 42
-62 77 -64 77 -2 0 -20 -19 -41 -42 -84 -93 -301 -231 -467 -296 -138 -54
-347 -70 -495 -38 -270 59 -517 294 -582 552 -48 192 -16 452 81 658 74 159
223 347 389 490 l43 37 -36 42 c-81 97 -196 253 -201 274 -4 13 -9 23 -13 23
-3 -1 -46 -28 -94 -60z m-257 -662 c-56 -98 -116 -243 -146 -353 -34 -122 -42
-319 -20 -462 26 -171 86 -299 214 -456 152 -187 391 -308 654 -332 71 -7 95
-20 54 -31 -78 -19 -365 55 -498 130 -135 75 -251 197 -350 366 -53 89 -70
131 -100 242 -19 71 -22 108 -23 263 0 166 2 188 27 277 30 107 116 289 180
380 23 32 43 56 45 54 3 -2 -14 -37 -37 -78z m-241 -1145 c115 -224 340 -413
591 -498 152 -52 257 -67 455 -65 206 3 215 2 195 -9 -36 -21 -175 -34 -313
-28 -355 13 -658 163 -881 433 -33 40 -71 118 -84 169 -19 75 -22 95 -18 95 3
0 28 -44 55 -97z m1847 -129 c-15 -39 -82 -128 -131 -173 -103 -93 -365 -198
-473 -189 -31 3 -18 8 82 37 206 60 307 120 433 256 75 82 102 103 89 69z
m-297 -370 c-22 -26 -81 -52 -162 -68 -105 -22 -151 -18 -57 4 41 10 104 32
140 49 76 35 99 39 79 15z"/>
<path d="M10433 5815 c-88 -41 -188 -102 -245 -151 -71 -61 -98 -74 -186 -89
-157 -27 -93 -84 116 -103 40 -4 73 -11 73 -17 0 -5 -27 -20 -61 -32 -33 -13
-73 -31 -88 -40 -132 -83 -340 -277 -481 -446 -40 -48 -81 -93 -92 -100 -10
-6 -19 -19 -19 -28 0 -8 29 -53 65 -100 35 -46 86 -113 112 -149 27 -36 55
-65 64 -65 9 0 40 29 69 65 187 226 300 339 440 440 241 173 451 236 760 227
142 -4 178 -8 255 -31 50 -15 118 -43 153 -62 34 -19 69 -34 77 -34 7 0 54
-27 103 -60 104 -69 122 -74 122 -29 0 38 -51 191 -91 277 -38 79 -138 186
-230 248 -38 25 -71 49 -73 53 -3 4 16 19 42 32 l47 24 -35 3 c-19 2 -51 -2
-72 -9 -37 -12 -76 -10 -213 11 -38 6 -117 12 -175 12 -94 1 -117 -3 -220 -35
-63 -20 -153 -52 -200 -71 l-85 -34 -3 24 c-7 51 37 149 99 223 66 79 61 88
-28 46z m599 -424 c16 -7 -14 -10 -102 -10 -147 -1 -280 -21 -382 -57 -131
-46 -314 -145 -445 -241 -70 -51 -129 -90 -131 -88 -7 7 39 57 93 103 179 153
413 257 655 291 41 6 86 13 100 15 38 7 185 -3 212 -13z m-1062 -246 c0 -3
-29 -34 -64 -69 -35 -36 -100 -109 -144 -163 -43 -54 -90 -107 -102 -118 -22
-19 -23 -19 -16 -1 14 40 103 163 164 228 66 69 162 143 162 123z"/>
<path d="M6680 5809 c-190 -28 -586 -202 -830 -362 -292 -193 -484 -335 -606
-450 -87 -82 -182 -193 -173 -202 3 -2 63 40 134 94 186 139 318 228 399 266
79 37 301 134 356 155 60 23 214 106 301 163 46 30 102 64 124 76 22 12 67 42
100 66 72 53 153 108 230 154 42 24 53 36 44 42 -8 5 -16 8 -19 8 -3 -1 -30
-5 -60 -10z m-140 -119 c-8 -5 -22 -10 -31 -10 -8 0 -64 -25 -125 -56 -60 -31
-167 -87 -239 -123 -71 -36 -217 -117 -323 -180 -106 -63 -195 -112 -197 -109
-8 8 160 120 303 203 143 82 428 223 527 261 63 24 113 32 85 14z"/>
<path d="M9090 5666 c0 -60 14 -93 58 -140 34 -36 121 -86 150 -86 24 0 10 26
-31 55 -52 38 -85 87 -94 138 -4 29 -13 44 -37 58 -17 10 -34 19 -38 19 -5 0
-8 -20 -8 -44z"/>
<path d="M6610 5667 c-22 -9 -105 -70 -120 -87 -17 -20 -135 -104 -190 -136
-38 -22 -98 -71 -145 -119 -44 -46 -113 -111 -153 -145 -71 -60 -280 -309
-410 -489 -34 -47 -75 -102 -90 -121 -16 -19 -44 -62 -64 -95 -58 -99 -153
-268 -171 -305 -17 -34 -17 -34 -12 -5 8 39 112 256 158 328 20 31 44 73 52
94 23 55 114 211 159 273 72 100 168 201 220 230 58 34 203 155 261 219 22 25
36 42 30 39 -5 -2 -32 -15 -59 -27 -79 -36 -224 -136 -320 -219 -152 -132
-278 -305 -400 -550 -147 -292 -256 -542 -306 -697 -64 -198 -101 -397 -67
-363 7 7 19 36 27 63 40 146 144 379 215 480 19 28 62 88 94 135 32 47 78 103
101 125 23 22 50 57 61 77 10 20 33 45 49 55 17 10 44 41 59 68 124 222 209
347 302 448 85 92 122 112 52 30 -38 -46 -108 -143 -147 -205 -23 -37 -12 -48
50 -48 47 0 65 15 90 75 9 22 27 65 41 95 14 30 35 82 48 116 31 81 61 141 98
189 41 54 153 169 202 208 36 29 33 24 -23 -43 -97 -115 -198 -251 -220 -295
-52 -101 -102 -228 -112 -286 -10 -51 -19 -70 -45 -94 -28 -26 -36 -45 -59
-140 -42 -172 -45 -182 -90 -271 -62 -120 -71 -177 -71 -459 0 -311 8 -350 63
-292 47 50 51 74 45 342 -6 266 2 469 19 459 6 -4 7 -94 3 -248 -8 -268 0
-376 42 -541 34 -136 52 -168 116 -205 40 -24 62 -30 97 -28 43 3 45 4 48 36
2 19 -4 44 -13 58 -47 72 -147 416 -171 589 -4 28 -15 66 -24 85 -36 72 -39
103 -24 243 15 124 60 348 83 410 6 15 28 51 50 80 21 28 96 169 165 312 l127
260 154 152 c85 84 154 153 152 152 -1 0 -13 -5 -27 -12z m-689 -1704 c9 -118
29 -248 51 -333 13 -51 72 -201 95 -239 13 -23 12 -22 -12 4 -44 50 -96 163
-121 264 -36 145 -56 456 -28 428 3 -3 10 -59 15 -124z"/>
<path d="M5837 5065 c-48 -36 -161 -165 -241 -275 -44 -59 -116 -188 -116
-207 0 -4 29 35 64 87 35 53 92 127 127 166 93 102 225 264 216 264 -2 0 -25
-16 -50 -35z"/>
<path d="M6252 4922 c-48 -44 -49 -47 -62 -222 -8 -99 -7 -173 1 -275 l12
-140 37 -37 c44 -44 85 -58 107 -35 17 17 14 33 -42 287 -19 83 -18 252 0 355
8 44 15 86 15 93 0 22 -26 12 -68 -26z"/>
<path d="M6149 4853 c-30 -18 -94 -103 -126 -167 -29 -57 -70 -210 -81 -306
-15 -127 13 -280 53 -284 35 -3 75 180 75 346 0 75 33 255 54 296 14 27 56
132 53 132 -1 0 -14 -8 -28 -17z"/>
<path d="M7910 4799 c-68 -71 -82 -172 -34 -260 28 -50 28 -51 9 -65 -10 -8
-24 -14 -31 -14 -7 0 -24 -19 -38 -42 -14 -24 -26 -39 -26 -34 0 5 12 29 26
54 22 37 25 51 19 90 -6 38 -16 56 -53 93 -58 58 -109 70 -266 67 -118 -3
-139 -13 -82 -41 32 -15 35 -21 41 -72 4 -31 5 -105 3 -163 -5 -104 -5 -106
-36 -132 -18 -15 -32 -30 -32 -33 0 -4 61 -7 135 -7 152 0 182 9 215 63 18 29
20 30 20 9 0 -33 24 -75 59 -105 69 -58 165 -61 231 -8 l40 32 45 -42 c48 -45
101 -62 162 -52 40 7 43 29 5 38 -15 3 -43 15 -62 27 l-35 21 25 9 c14 5 57 7
95 3 104 -9 156 7 219 69 40 38 55 63 64 98 28 112 -34 241 -129 268 -39 12
-275 12 -303 1 -17 -6 -15 -10 17 -28 37 -22 53 -62 45 -114 -3 -22 -8 -24
-82 -29 -69 -4 -77 -7 -63 -19 9 -7 24 -11 33 -7 11 4 14 1 10 -12 -2 -9 -10
-37 -17 -62 -6 -25 -13 -51 -15 -58 -4 -13 -134 141 -134 159 0 5 15 19 34 30
54 31 71 65 69 136 -1 97 -55 173 -123 173 -11 0 -38 -19 -60 -41z m93 -64
c24 -51 22 -135 -4 -169 -11 -14 -24 -26 -29 -26 -16 0 -43 89 -37 123 7 43
34 107 45 107 4 0 16 -16 25 -35z m-348 -125 c7 0 27 -11 43 -25 41 -34 54
-97 37 -172 -17 -75 -48 -104 -114 -111 l-51 -5 0 152 c0 148 1 152 23 161 12
5 28 7 35 4 8 -2 20 -4 27 -4z m823 -25 c42 -35 55 -74 50 -145 -4 -54 -9 -65
-41 -98 -33 -32 -42 -36 -89 -37 l-53 0 -3 90 c-2 50 0 118 3 153 l7 62 48 0
c37 0 55 -6 78 -25z m-243 -298 c-14 -10 -25 -26 -25 -35 0 -12 -11 -6 -37 20
-36 36 -36 38 -19 57 10 11 20 37 23 58 4 29 13 44 41 65 l37 26 3 -86 c3 -83
2 -87 -23 -105z m-276 115 c10 -20 38 -59 62 -86 l43 -49 -23 -18 c-43 -35
-121 -18 -147 32 -20 39 -17 98 6 137 23 38 33 35 59 -16z"/>
<path d="M6162 4787 c-12 -14 -33 -106 -52 -223 -7 -40 -9 -102 -5 -147 7 -71
9 -77 27 -71 12 3 27 -1 40 -13 19 -16 21 -16 15 -1 -3 9 -11 79 -18 155 -9
103 -10 159 -1 223 6 47 9 86 8 88 -2 1 -8 -4 -14 -11z"/>
<path d="M11547 4589 c6 -108 -8 -265 -39 -426 -12 -62 -18 -116 -15 -120 12
-11 46 28 71 81 62 132 71 324 22 466 -38 107 -45 107 -39 -1z"/>
<path d="M5161 4656 c-7 -8 -30 -17 -51 -21 -21 -4 -44 -12 -50 -20 -21 -25
20 -85 59 -85 18 0 81 75 81 96 0 31 -24 49 -39 30z"/>
<path d="M5678 4588 c-72 -131 -112 -228 -110 -272 0 -21 -5 -51 -12 -65 -8
-14 -27 -91 -44 -171 -56 -259 -61 -540 -16 -796 17 -100 72 -301 107 -396 32
-84 99 -216 104 -203 2 6 -10 50 -27 99 -16 48 -41 159 -56 245 -26 154 -26
159 -15 371 6 118 18 240 26 270 8 30 19 121 25 203 11 153 31 251 74 359 13
35 46 142 73 238 l49 175 -29 3 c-16 2 -31 2 -33 -1 -11 -11 -110 -321 -144
-452 -64 -244 -81 -370 -88 -630 -7 -250 -19 -224 -21 45 -1 170 20 332 73
555 31 131 57 208 147 439 15 39 17 51 7 58 -30 18 -46 5 -90 -74z"/>
<path d="M10806 4526 c15 -28 27 -68 31 -108 7 -82 -15 -136 -87 -212 -47 -50
-49 -54 -23 -45 55 18 63 21 63 29 0 5 10 10 22 12 30 4 65 58 78 121 17 86
-12 196 -62 231 -40 28 -48 18 -22 -28z"/>
<path d="M4927 4454 c-11 -14 -30 -29 -43 -34 -31 -12 -30 -31 1 -68 14 -17
25 -34 25 -40 0 -5 6 -15 14 -21 11 -9 18 -8 30 4 9 9 16 20 16 25 0 5 14 16
30 25 28 14 43 55 21 55 -4 0 -20 18 -35 40 -14 22 -30 40 -34 40 -4 0 -15
-12 -25 -26z"/>
<path d="M11660 4332 c0 -64 -41 -204 -84 -290 -67 -134 -148 -220 -319 -339
-41 -28 -45 -35 -48 -77 -2 -25 -3 -46 -1 -46 1 0 44 16 96 36 184 70 297 205
360 430 35 128 40 173 25 254 -15 85 -29 100 -29 32z"/>
<path d="M6360 4366 c0 -3 11 -35 25 -72 30 -81 31 -101 4 -130 l-20 -22 26
-53 c48 -95 165 -245 165 -211 0 7 -11 54 -24 105 -14 52 -30 141 -36 198 -15
132 -13 125 -48 132 -16 3 -43 18 -61 32 -17 15 -31 24 -31 21z"/>
<path d="M11002 4323 c-14 -62 -21 -143 -13 -143 3 0 17 16 30 35 19 29 23 44
19 86 -7 72 -23 82 -36 22z"/>
<path d="M8604 4265 c-8 -19 2 -45 16 -45 7 0 9 8 5 20 -4 11 -2 20 4 20 6 0
11 -6 11 -14 0 -21 17 -29 24 -11 6 17 -19 45 -40 45 -8 0 -17 -7 -20 -15z"/>
<path d="M6120 4221 c0 -92 -30 -144 -101 -176 -21 -10 -39 -22 -39 -28 0 -25
54 -255 87 -369 36 -126 67 -198 90 -205 17 -6 21 91 6 152 -16 63 -15 81 1
36 7 -19 20 -39 29 -45 22 -14 65 3 90 36 l20 27 -45 88 c-54 106 -90 200
-118 310 -29 117 -24 130 14 36 22 -53 47 -95 72 -120 22 -21 51 -51 65 -68
14 -16 39 -42 55 -56 16 -15 36 -35 46 -45 47 -54 107 -105 141 -119 50 -21
169 -45 222 -45 81 0 80 10 -1 46 -104 45 -170 91 -248 171 -71 73 -115 146
-140 235 -14 48 -21 58 -47 67 -17 6 -54 27 -81 46 -44 32 -49 34 -43 15 4
-12 15 -50 25 -84 10 -33 30 -95 44 -136 14 -41 26 -77 26 -80 -2 -20 -47 86
-80 190 -57 174 -90 219 -90 121z m19 -496 c0 -11 -7 5 -14 35 -18 72 -17 100
1 35 7 -27 13 -59 13 -70z m8 -47 c-3 -8 -6 -5 -6 6 -1 11 2 17 5 13 3 -3 4
-12 1 -19z"/>
<path d="M10640 4053 c-19 -9 -29 -18 -23 -20 13 -5 113 25 113 33 0 10 -58 1
-90 -13z"/>
<path d="M10784 4032 c-78 -71 -168 -108 -344 -142 -63 -12 -89 -24 -78 -35 2
-3 60 -19 128 -36 117 -30 128 -31 191 -20 123 22 235 88 289 169 47 71 34 85
-28 31 -35 -31 -139 -85 -147 -77 -2 2 9 24 25 48 31 46 40 100 18 100 -7 -1
-32 -18 -54 -38z"/>
<path d="M6210 3924 c0 -21 56 -142 91 -196 22 -34 42 -74 45 -88 10 -54 23
-78 83 -162 149 -208 414 -404 656 -487 123 -41 217 -54 360 -48 123 5 205 27
256 70 35 30 22 37 -71 37 -183 0 -410 67 -580 172 -102 62 -232 185 -296 278
-38 56 -52 69 -81 75 -52 9 -190 70 -231 102 -66 50 -160 147 -196 202 -20 29
-36 50 -36 45z"/>
<path d="M11648 3817 c-46 -93 -227 -307 -333 -392 -95 -77 -283 -163 -405
-186 -75 -14 -90 -22 -83 -49 7 -26 22 -30 143 -32 136 -3 219 22 341 104 172
115 293 293 354 519 23 88 16 103 -17 36z"/>
<path d="M5213 3627 c-41 -27 -49 -51 -29 -82 22 -33 62 -42 95 -22 37 22 39
62 5 98 -15 16 -30 29 -33 28 -3 0 -21 -10 -38 -22z"/>
<path d="M5837 3565 c-26 -85 -27 -116 -7 -196 12 -44 25 -88 30 -97 5 -9 16
-44 25 -77 27 -100 141 -361 210 -480 107 -187 131 -223 231 -345 62 -75 144
-150 144 -131 0 6 -20 37 -44 68 -115 153 -158 242 -261 548 -77 226 -91 295
-48 225 12 -19 35 -48 52 -64 l31 -30 0 28 c0 16 -6 54 -14 85 -8 31 -17 76
-20 101 -6 44 -6 44 8 19 27 -47 65 -178 75 -255 10 -81 31 -119 153 -273 114
-143 424 -435 527 -496 24 -14 2 14 -78 103 -96 104 -254 365 -250 411 4 36
-24 85 -89 159 -73 84 -186 239 -246 339 l-49 81 -31 -18 c-46 -27 -113 -34
-163 -16 -25 9 -45 11 -48 6 -3 -5 5 -38 19 -72 13 -35 33 -92 44 -128 11 -36
45 -126 77 -200 71 -170 71 -172 45 -133 -31 46 -126 269 -177 417 -24 70 -49
136 -54 145 -5 9 -27 79 -48 156 -25 91 -40 133 -44 120z m491 -597 c51 -92
162 -252 239 -343 81 -97 117 -145 111 -150 -7 -7 -136 146 -234 277 -86 116
-182 288 -160 288 2 0 22 -33 44 -72z"/>
<path d="M6306 3557 c-33 -17 -37 -23 -32 -47 3 -16 44 -88 92 -161 90 -138
227 -289 275 -304 13 -4 43 -21 67 -37 51 -35 244 -107 368 -138 149 -36 241
-44 371 -31 64 6 118 10 120 7 13 -13 -117 -31 -227 -30 -136 0 -272 27 -429
84 -42 15 -95 31 -118 35 -36 6 -43 4 -43 -10 0 -9 -4 -13 -10 -10 -5 3 -10
15 -10 25 0 20 -56 57 -68 45 -3 -3 10 -20 29 -38 33 -30 45 -45 85 -107 9
-14 -42 34 -113 105 -154 156 -248 275 -339 431 l-67 116 -23 -29 c-38 -47
-38 -67 2 -146 89 -178 341 -475 543 -640 57 -47 75 -57 82 -46 14 22 11 40
-16 96 -32 70 -65 183 -54 183 6 0 27 -9 47 -19 83 -44 183 -81 293 -110 98
-26 134 -31 232 -31 102 0 128 4 209 30 55 17 128 51 178 82 146 90 298 264
288 331 -3 19 -7 17 -32 -22 -78 -122 -250 -228 -416 -257 -216 -37 -504 18
-720 138 -174 98 -379 286 -470 435 l-56 90 -38 -20z"/>
<path d="M9188 3538 c-23 -66 -109 -222 -157 -282 -71 -89 -194 -203 -279
-259 -112 -73 -108 -54 14 88 102 118 200 284 176 299 -15 9 -73 -47 -122
-118 -26 -39 -96 -122 -153 -184 l-105 -113 21 -39 22 -39 -21 -28 c-25 -34
-49 -46 -134 -67 -36 -9 -117 -30 -180 -46 -63 -16 -159 -34 -212 -39 -125
-14 -318 -14 -318 -1 0 6 43 10 108 10 190 0 395 36 605 106 79 26 107 53 107
102 0 32 -10 32 -73 0 -34 -17 -91 -42 -127 -55 -108 -40 -104 -39 -97 -12 4
13 7 34 7 46 0 13 16 40 35 60 37 39 81 120 72 130 -3 3 -23 -9 -44 -25 -101
-81 -245 -144 -363 -158 -61 -7 -82 -16 -124 -51 -57 -48 -221 -121 -311 -139
-47 -9 -82 -20 -78 -24 4 -5 76 -22 158 -38 83 -17 138 -31 123 -31 -37 -1
-235 38 -274 54 -17 7 -78 16 -135 20 -84 6 -133 16 -259 57 -85 27 -165 56
-177 64 -29 18 -29 7 -2 -50 19 -37 33 -50 98 -84 178 -94 548 -209 894 -278
l87 -17 25 23 c50 47 19 81 -85 94 -247 31 -611 116 -657 154 -20 17 -23 21
-8 16 117 -40 333 -93 467 -114 163 -26 177 -26 187 3 5 12 7 24 5 26 -2 2
-34 10 -71 17 -68 13 -68 13 -13 9 65 -5 100 2 100 21 0 19 46 18 54 -1 4 -12
15 -14 48 -9 118 16 398 92 521 140 54 22 58 22 42 4 -9 -10 -45 -30 -79 -44
-72 -28 -337 -101 -444 -122 -65 -12 -121 -38 -122 -55 0 -11 82 -21 145 -18
33 1 71 2 85 2 47 -2 110 8 105 16 -2 5 -17 6 -32 4 -28 -5 -28 -5 -6 11 19
14 64 29 228 77 17 5 52 27 79 49 26 22 55 40 62 40 8 0 46 16 84 35 122 61
351 311 437 478 41 78 93 232 93 274 0 45 -18 51 -32 11z m-333 -553 c-63 -58
-245 -193 -245 -181 0 2 28 26 63 54 34 27 102 81 150 121 48 39 91 71 95 71
4 0 -24 -29 -63 -65z m-599 -114 c-12 -18 -250 -81 -308 -81 -38 0 -12 10 88
35 55 14 126 33 159 43 63 20 71 20 61 3z"/>
<path d="M9329 3403 c-6 -16 -19 -49 -29 -75 -45 -117 -170 -276 -308 -391
-108 -91 -255 -183 -329 -208 -44 -14 -63 -26 -63 -38 0 -28 30 -61 55 -61 44
0 190 61 294 123 102 61 234 175 260 225 12 22 11 23 -8 12 -12 -6 -63 -42
-113 -80 -87 -65 -187 -125 -251 -149 -41 -16 -32 -4 16 20 67 35 218 139 268
186 94 88 207 297 223 416 8 52 1 61 -15 20z"/>
<path d="M8555 3137 c-49 -51 -119 -115 -155 -143 -72 -55 -91 -94 -45 -94 40
0 117 44 169 96 72 72 162 235 129 234 -5 0 -48 -42 -98 -93z"/>
<path d="M9354 3153 c-30 -32 -30 -34 2 -72 31 -37 44 -38 72 -8 27 28 28 59
5 79 -34 29 -53 29 -79 1z"/>
<path d="M9627 3090 c-180 -206 -391 -341 -702 -446 -171 -58 -268 -69 -299
-35 -23 26 -37 26 -128 2 -40 -11 -90 -22 -110 -26 -41 -6 -45 -12 -25 -37 10
-15 25 -16 117 -8 58 5 123 9 145 9 79 0 -4 -19 -138 -32 l-129 -11 -25 -41
c-14 -22 -35 -48 -47 -57 -11 -9 -19 -18 -16 -20 3 -3 75 1 160 8 524 42 981
269 1198 593 51 75 93 173 81 186 -3 2 -39 -36 -82 -85z m-402 -396 c-39 -30
-138 -76 -238 -109 -124 -41 -290 -85 -324 -85 -36 0 -19 17 24 25 131 24 325
85 462 146 95 43 106 46 76 23z m-597 -199 c-6 -6 -202 -35 -240 -35 -16 0
-28 5 -28 10 0 6 31 10 73 11 39 0 92 4 117 8 56 10 85 12 78 6z"/>
<path d="M5756 3143 c-3 -3 -6 -32 -6 -63 0 -49 4 -60 28 -83 15 -15 31 -27
34 -27 13 0 15 67 2 98 -17 41 -49 83 -58 75z"/>
<path d="M9802 2994 c-30 -21 -28 -47 7 -86 l28 -32 27 29 c30 32 32 51 10 83
-18 26 -41 28 -72 6z"/>
<path d="M5820 2903 c0 -17 8 -37 17 -44 15 -13 16 -11 9 21 -9 47 -26 63 -26
23z"/>
<path d="M5868 2768 c-7 -19 2 -38 17 -38 21 0 28 19 15 35 -15 18 -26 19 -32
3z"/>
<path d="M6682 2660 c23 -69 206 -237 386 -357 132 -88 335 -181 480 -219 92
-25 337 -47 320 -29 -3 3 -38 13 -78 21 -150 31 -287 92 -406 181 -17 13 -43
23 -58 23 -27 0 -106 44 -106 59 0 27 -164 151 -200 151 -11 0 -20 7 -20 15 0
21 -50 64 -75 65 -11 0 -27 -5 -35 -10 -12 -9 -8 -17 25 -46 110 -99 230 -176
434 -281 58 -30 93 -51 76 -48 -48 9 -243 109 -335 171 -77 51 -261 199 -268
216 -4 9 -139 118 -146 118 -3 0 0 -14 6 -30z"/>
<path d="M6940 2635 c0 -25 5 -45 10 -45 6 0 34 -16 63 -35 28 -19 60 -35 70
-35 11 0 41 -12 69 -27 l49 -28 23 28 c26 32 30 33 54 10 16 -17 16 -19 -12
-34 -17 -9 -32 -21 -33 -26 -5 -15 219 -122 281 -134 28 -5 105 -23 171 -39
354 -86 468 -102 725 -102 263 0 370 12 509 57 167 54 168 65 5 42 -257 -35
-537 -14 -944 71 -151 32 -195 45 -201 59 -2 5 -58 22 -124 37 -214 51 -485
142 -619 207 -43 22 -82 39 -87 39 -5 0 -9 -20 -9 -45z m660 -253 c63 -21 147
-46 185 -55 150 -34 385 -77 480 -88 55 -6 102 -13 105 -16 16 -18 -233 12
-427 52 -174 35 -265 60 -419 114 -108 38 -201 74 -207 80 -10 10 81 -18 283
-87z"/>
<path d="M9458 2649 c-32 -18 -41 -48 -24 -74 24 -36 53 -41 82 -14 30 28 30
44 -1 74 -27 28 -32 29 -57 14z"/>
<path d="M8147 2523 c-89 -3 -98 -5 -91 -21 4 -9 12 -37 18 -61 l11 -43 53 5
c60 6 106 30 135 69 17 22 18 30 7 43 -7 8 -18 14 -24 13 -6 -1 -55 -4 -109
-5z"/>
<path d="M9242 2514 c-29 -20 -28 -38 4 -63 32 -25 47 -26 68 -5 22 21 20 61
-3 74 -27 14 -43 13 -69 -6z"/>
<path d="M9094 2395 c-10 -25 16 -66 39 -63 29 4 45 34 31 56 -15 23 -62 28
-70 7z"/>
<path d="M12093 1970 c-44 -18 -48 -42 -46 -255 3 -284 28 -422 79 -442 26
-10 64 6 68 30 3 12 10 121 16 242 6 121 15 261 20 310 8 84 7 91 -12 108 -22
18 -87 22 -125 7z"/>
<path d="M6393 1900 c-12 -5 -29 -19 -37 -32 -21 -33 -36 -169 -36 -334 0
-123 -3 -154 -26 -230 -46 -160 -107 -261 -153 -252 -46 9 -66 166 -52 394 11
177 10 181 -50 190 -43 7 -83 -8 -103 -39 -9 -13 -20 -66 -26 -121 -16 -160
-93 -356 -152 -387 -24 -13 -50 -5 -66 21 -31 50 -37 226 -16 417 6 52 6 52
-29 69 -41 20 -96 13 -121 -15 -19 -21 -36 -110 -36 -190 0 -70 -34 -131 -94
-166 -70 -41 -72 -39 -68 73 9 216 -70 346 -219 360 -88 8 -171 -41 -193 -115
-4 -13 -18 -24 -35 -28 -59 -13 -97 -80 -116 -207 -14 -98 -56 -196 -102 -242
-37 -37 -82 -33 -102 9 -19 39 -17 170 4 322 10 67 15 133 11 147 -14 54 -105
81 -232 66 -78 -8 -78 -8 -105 21 -31 33 -45 36 -77 13 -40 -28 -16 -114 32
-114 27 0 -60 -277 -101 -322 -24 -27 -6 -53 38 -53 29 0 37 6 56 41 29 51 60
177 69 272 l7 72 78 0 c44 0 79 -2 79 -3 0 -2 -9 -39 -21 -83 -25 -98 -36
-291 -20 -352 33 -120 168 -172 283 -109 38 21 90 84 108 133 l11 28 29 -51
c37 -64 91 -109 154 -128 128 -38 250 5 311 110 23 38 34 46 81 60 32 9 71 30
93 50 l38 35 12 -56 c21 -93 107 -164 199 -164 66 0 140 66 182 162 27 62 40
73 40 33 0 -43 41 -135 75 -169 19 -20 51 -38 77 -44 92 -23 163 24 225 148
22 45 32 58 33 42 0 -34 28 -94 58 -125 62 -66 164 -87 229 -47 35 21 93 94
93 117 0 19 18 16 24 -5 10 -30 86 -100 135 -124 62 -30 171 -36 240 -13 120
40 220 189 260 390 11 55 21 114 23 130 l3 30 79 3 78 3 -7 -28 c-43 -165 -57
-335 -35 -415 21 -75 102 -137 179 -138 54 0 110 21 137 53 28 33 30 50 9 67
-13 11 -20 9 -44 -14 -36 -35 -80 -33 -98 4 -18 35 -16 192 3 331 9 64 14 128
10 143 -13 54 -101 79 -231 66 -79 -8 -79 -8 -106 21 -15 16 -33 29 -41 29
-27 0 -58 -31 -58 -58 0 -33 8 -45 38 -61 18 -9 22 -20 22 -57 0 -106 -57
-275 -121 -355 -88 -111 -228 -123 -293 -25 -34 53 -64 246 -37 246 5 0 26 -7
47 -16 60 -25 127 -15 169 26 19 19 40 49 46 68 15 46 6 127 -18 160 -47 64
-149 80 -238 38 -110 -52 -173 -158 -185 -312 -6 -79 -12 -105 -44 -169 -38
-77 -69 -101 -104 -78 -57 35 -77 377 -43 727 5 51 3 83 -4 92 -13 19 -82 27
-112 14z m-1267 -318 c38 -32 64 -80 84 -158 20 -79 27 -218 11 -228 -16 -11
-106 24 -144 54 -101 84 -137 260 -66 331 24 24 86 25 115 1z m1909 -7 c20
-19 25 -34 25 -73 0 -54 -32 -114 -64 -120 -26 -5 -78 6 -98 22 -16 11 -16 17
-3 60 25 81 65 135 103 136 7 0 24 -11 37 -25z m-1989 -384 c27 -18 75 -39
106 -48 l58 -16 -23 -40 c-53 -94 -155 -88 -206 12 -19 37 -41 133 -41 179 0
23 2 22 29 -15 16 -22 51 -54 77 -72z"/>
<path d="M8283 1900 c-12 -5 -29 -19 -37 -32 -26 -40 -38 -202 -34 -460 4
-264 10 -292 66 -351 62 -66 164 -87 229 -47 35 21 93 94 93 117 0 19 18 16
24 -5 10 -30 86 -100 135 -124 62 -30 171 -36 240 -13 29 9 71 35 97 58 l46
42 53 -52 c191 -186 487 -24 436 239 -17 84 -63 191 -111 258 -22 30 -51 71
-65 92 -29 44 -79 63 -139 54 -77 -13 -82 -21 -89 -138 -3 -57 -13 -134 -22
-171 -15 -56 -23 -70 -46 -82 -30 -16 -55 -78 -43 -109 9 -23 -38 -81 -92
-112 -81 -48 -171 -31 -218 40 -34 53 -64 246 -37 246 5 0 26 -7 47 -16 60
-25 127 -15 169 26 19 19 40 49 46 68 15 46 6 127 -18 160 -47 64 -149 80
-238 38 -110 -52 -173 -158 -185 -312 -6 -79 -12 -105 -44 -169 -38 -77 -69
-101 -104 -78 -57 35 -77 377 -43 727 5 51 3 83 -4 92 -13 19 -82 27 -112 14z
m642 -325 c20 -19 25 -34 25 -73 0 -54 -32 -114 -64 -120 -26 -5 -78 6 -98 22
-16 11 -16 17 -3 60 25 81 65 135 103 136 7 0 24 -11 37 -25z m442 -112 c51
-97 90 -199 81 -209 -3 -2 -39 4 -79 15 -41 10 -85 22 -99 25 l-26 5 23 113
c12 62 23 126 23 142 0 43 19 21 77 -91z m21 -256 l82 -21 0 -38 c0 -46 -15
-86 -42 -115 -17 -18 -33 -23 -69 -23 -40 0 -55 6 -85 32 -42 37 -64 82 -64
130 0 73 20 77 178 35z"/>
<path d="M10555 1900 c-12 -4 -26 -14 -32 -22 -15 -17 -33 -126 -33 -198 0
-30 -3 -64 -6 -76 -6 -21 -6 -21 -42 -2 -53 28 -161 22 -227 -13 -147 -75
-224 -304 -151 -453 66 -135 212 -193 320 -126 39 23 106 143 106 189 1 18 6
10 20 -29 22 -66 91 -134 150 -150 61 -16 121 3 168 54 22 24 42 49 45 57 5
12 7 12 15 -1 75 -112 157 -160 276 -160 84 0 146 23 204 75 l49 44 56 -54
c73 -70 141 -93 231 -77 149 28 236 160 207 314 -17 84 -63 191 -111 258 -22
30 -51 71 -65 92 -29 44 -79 63 -139 54 -78 -13 -82 -20 -89 -146 -3 -61 -10
-117 -16 -123 -5 -7 -15 -34 -22 -60 -7 -31 -20 -54 -35 -64 -23 -15 -50 -85
-40 -102 10 -16 -53 -89 -99 -116 -82 -49 -172 -32 -219 39 -34 53 -64 246
-37 246 5 0 26 -7 47 -16 60 -25 127 -15 169 26 43 42 59 88 53 152 -9 87 -69
138 -163 138 -152 0 -269 -138 -285 -334 -7 -97 -29 -157 -78 -208 -43 -47
-76 -32 -103 47 -16 46 -19 412 -6 608 l8 117 -35 15 c-39 17 -61 18 -91 5z
m640 -325 c20 -19 25 -34 25 -73 0 -54 -32 -114 -64 -120 -26 -5 -78 6 -98 22
-16 11 -16 17 -3 60 25 81 65 135 103 136 7 0 24 -11 37 -25z m464 -139 c33
-66 63 -136 67 -155 6 -32 5 -34 -17 -27 -13 4 -63 16 -110 27 -79 19 -86 23
-81 43 3 11 9 26 14 32 4 6 16 59 26 117 13 81 20 103 29 95 7 -6 39 -65 72
-132z m-1210 103 l34 -20 -7 -92 c-7 -101 -37 -240 -62 -290 -54 -106 -128
-116 -176 -24 -19 36 -23 58 -23 147 0 130 22 205 75 262 32 33 43 38 81 38
27 0 57 -8 78 -21z m1219 -332 l82 -21 0 -38 c0 -46 -15 -86 -42 -115 -17 -18
-33 -23 -69 -23 -40 0 -55 6 -85 32 -42 37 -64 82 -64 130 0 73 20 77 178 35z"/>
<path d="M12085 1145 c-55 -54 -15 -150 61 -148 112 3 111 173 -1 173 -25 0
-44 -8 -60 -25z"/>
</g>
</svg>
