<?xml version="1.0" standalone="no"?>
<!DOCTYPE svg PUBLIC "-//W3C//DTD SVG 20010904//EN"
 "http://www.w3.org/TR/2001/REC-SVG-20010904/DTD/svg10.dtd">
<svg version="1.0" xmlns="http://www.w3.org/2000/svg"
 width="1140.000000pt" height="1140.000000pt" viewBox="0 0 1140.000000 1140.000000"
 preserveAspectRatio="xMidYMid meet">

<g transform="translate(0.000000,1140.000000) scale(0.100000,-0.100000)"
fill="#000000" stroke="none">
<path d="M6605 10804 c4 -10 8 -29 8 -40 -1 -42 -129 -307 -213 -441 -8 -12
-11 -25 -8 -29 11 -10 129 -21 134 -12 3 4 -2 8 -10 8 -26 0 -19 45 19 120 39
78 71 105 126 105 44 0 85 -33 94 -75 15 -68 -45 -171 -131 -229 -61 -40 -31
-41 52 -2 104 49 184 141 184 210 0 76 -82 139 -166 127 -24 -3 -56 -9 -71
-12 -26 -7 -25 -5 29 97 39 74 63 108 82 117 l28 14 -64 23 c-34 12 -72 26
-82 30 -17 7 -18 6 -11 -11z"/>
<path d="M5585 10786 c-16 -7 -48 -31 -69 -54 l-39 -40 -16 31 c-32 64 -96 61
-170 -8 -27 -25 -51 -45 -54 -45 -3 0 -7 17 -9 38 -4 47 -21 47 -89 0 -38 -25
-45 -34 -30 -36 43 -7 54 -36 65 -178 l10 -135 26 6 c40 10 98 49 78 53 -25 5
-39 52 -41 141 -2 82 -2 83 31 112 35 31 52 35 83 19 35 -20 49 -66 56 -185 7
-129 6 -128 78 -94 52 25 65 39 35 39 -29 0 -41 38 -43 136 -2 75 0 85 22 108
25 26 72 35 98 18 26 -16 44 -87 50 -188 7 -121 8 -122 103 -74 72 36 97 63
37 41 -52 -20 -76 33 -77 167 0 82 -17 126 -52 136 -33 8 -49 7 -83 -8z"/>
<path d="M6090 10737 c-48 -20 -68 -32 -55 -34 11 -2 44 -8 73 -14 l53 -11
-40 -43 c-95 -103 -94 -218 2 -264 35 -16 51 -18 94 -11 56 9 150 47 140 56
-3 3 -14 1 -25 -5 -12 -6 -42 -11 -67 -11 -40 0 -52 5 -80 33 -43 43 -53 93
-31 151 29 76 35 80 95 67 66 -14 116 -13 161 3 l35 13 -49 7 c-53 8 -183 52
-203 68 -7 6 -10 14 -7 19 10 16 -20 9 -96 -24z"/>
<path d="M4801 10613 c-44 -22 -144 -120 -136 -133 9 -15 35 -12 35 4 0 23 42
65 72 72 22 5 34 0 58 -24 16 -17 30 -35 30 -41 0 -5 -30 -43 -66 -83 -36 -40
-73 -88 -82 -106 -15 -30 -15 -34 5 -60 44 -60 126 -32 192 65 l35 53 29 -35
c16 -19 35 -35 42 -35 16 0 115 109 115 127 0 7 -11 1 -25 -12 -13 -14 -31
-25 -41 -25 -26 0 -69 54 -118 149 -56 108 -74 119 -145 84z m104 -183 c30
-48 31 -54 4 -91 -29 -41 -73 -63 -99 -49 -28 15 -36 55 -16 85 18 28 76 95
82 95 2 0 15 -18 29 -40z"/>
<path d="M4189 10462 c-41 -32 -86 -65 -100 -74 -13 -8 -21 -19 -17 -23 3 -4
21 4 38 17 l32 23 29 -35 c52 -62 153 -207 201 -292 l48 -82 -32 -33 c-48 -50
-28 -48 38 3 32 26 86 65 119 87 32 22 54 42 47 45 -6 2 -22 -4 -34 -12 -35
-25 -53 -19 -94 31 -64 78 -224 324 -224 344 0 10 9 24 20 31 20 13 27 28 13
28 -5 -1 -42 -27 -84 -58z"/>
<path d="M6980 10329 c-50 -15 -89 -46 -121 -97 -51 -80 -34 -156 47 -218 33
-26 47 -29 118 -31 l81 -3 -54 20 c-64 23 -98 52 -118 98 -16 38 -8 101 13
109 8 3 66 -7 129 -21 63 -14 131 -25 152 -25 l38 2 -38 10 c-25 7 -36 15 -32
24 3 7 8 19 11 27 8 20 -51 83 -89 95 -54 17 -100 20 -137 10z m124 -35 c20
-19 20 -44 2 -69 -11 -15 -22 -17 -69 -12 -73 7 -83 14 -60 39 24 28 74 58 95
58 9 0 24 -7 32 -16z"/>
<path d="M5645 10230 c-58 -24 -94 -108 -71 -165 23 -53 70 -85 128 -85 45 0
54 4 89 39 35 35 39 44 39 91 0 47 -4 56 -39 91 -33 34 -45 39 -82 38 -24 0
-53 -4 -64 -9z m83 -86 c27 -19 28 -45 2 -69 -27 -24 -68 -13 -76 22 -5 20 -2
31 16 45 27 22 30 22 58 2z"/>
<path d="M5305 10200 c-665 -141 -1202 -627 -1404 -1271 -32 -102 -71 -283
-71 -331 0 -29 2 -30 32 -24 41 8 58 23 58 52 0 43 40 206 80 325 203 610 755
1074 1400 1178 34 6 64 12 66 14 2 2 10 20 19 40 l15 37 -57 -1 c-32 -1 -94
-9 -138 -19z"/>
<path d="M5890 10211 c0 -28 25 -72 43 -76 12 -3 58 -12 102 -21 292 -57 593
-210 830 -421 205 -183 370 -423 470 -681 38 -98 95 -309 95 -352 0 -41 23
-72 63 -86 34 -12 37 -11 37 5 0 61 -48 274 -91 404 -32 99 -162 354 -227 447
-284 406 -707 681 -1192 775 -85 17 -130 19 -130 6z"/>
<path d="M5375 10073 c-124 -19 -324 -87 -470 -160 -464 -234 -794 -657 -910
-1169 -34 -148 -33 -157 10 -173 19 -7 48 -23 64 -37 16 -13 32 -21 34 -17 3
5 8 33 12 63 19 157 80 352 156 500 142 279 356 506 621 661 145 85 366 163
533 189 39 6 73 14 77 18 4 4 -3 34 -17 67 -26 64 -35 69 -110 58z"/>
<path d="M5910 10053 c-6 -15 -18 -45 -27 -66 -19 -44 -10 -57 39 -57 81 0
285 -64 433 -135 427 -206 735 -579 849 -1032 14 -54 28 -123 31 -153 3 -30 8
-65 11 -78 l5 -23 33 26 c18 14 47 30 64 36 29 10 32 15 32 50 0 45 -30 186
-58 274 -182 565 -641 999 -1214 1149 -51 13 -114 27 -141 31 -45 6 -47 5 -57
-22z"/>
<path d="M5460 9755 c-573 -91 -1027 -528 -1152 -1108 -29 -135 -31 -398 -5
-530 71 -351 259 -652 543 -865 167 -125 350 -208 564 -253 149 -32 391 -32
540 0 277 59 495 172 692 359 395 376 537 935 368 1452 -142 435 -508 785
-951 910 -175 49 -418 63 -599 35z m465 -99 c269 -55 477 -167 676 -365 151
-151 243 -295 313 -489 91 -253 94 -562 10 -819 -102 -310 -337 -588 -645
-765 l-82 -47 -58 40 c-198 139 -477 408 -568 548 -112 171 -148 269 -158 431
-12 202 70 374 211 441 63 30 85 28 106 -11 15 -28 -3 -56 -45 -70 -33 -11
-48 -30 -23 -30 6 0 26 -11 44 -25 60 -46 62 -132 5 -188 l-30 -31 116 -33
c266 -76 523 -251 523 -355 0 -25 -7 -32 -47 -50 -43 -19 -60 -20 -188 -15
l-140 5 55 -25 c159 -73 348 -91 501 -49 l87 23 50 -29 51 -29 14 28 c27 53
57 200 57 281 0 79 -27 210 -52 254 -12 21 -13 19 -16 -32 -1 -30 -5 -62 -8
-70 -9 -27 -158 255 -170 324 l-7 39 39 -6 c21 -4 52 -10 67 -13 25 -6 21 1
-34 52 -78 75 -122 137 -254 359 -102 172 -179 285 -195 285 -4 0 2 -25 12
-56 10 -31 18 -60 16 -65 -2 -5 -24 20 -50 56 -60 82 -228 210 -228 172 0 -7
30 -62 66 -122 36 -61 68 -115 70 -120 3 -6 -28 20 -68 58 -181 175 -379 282
-587 318 -72 13 -251 6 -279 -10 -14 -8 -14 -11 -2 -11 8 -1 74 -2 145 -4 114
-3 143 -8 230 -36 188 -61 309 -130 393 -225 49 -56 166 -225 160 -231 -3 -2
-46 45 -96 105 -92 109 -155 168 -223 209 -43 26 -119 54 -119 44 0 -4 23 -25
50 -47 28 -22 50 -43 50 -47 0 -4 -21 -4 -47 0 -90 13 -315 8 -353 -10 l-35
-15 40 -11 c22 -5 52 -13 68 -16 32 -8 36 -26 5 -26 -85 0 -348 -115 -348
-152 0 -6 20 -7 50 -3 28 4 50 5 50 2 0 -2 -36 -25 -79 -50 -77 -45 -201 -150
-191 -161 3 -2 23 -1 45 4 22 5 64 10 94 10 l54 0 -70 -73 c-38 -41 -83 -93
-100 -118 -35 -51 -76 -129 -71 -135 2 -2 33 14 68 36 60 36 90 48 90 35 0 -4
-7 -20 -16 -36 -17 -34 -84 -311 -77 -319 2 -3 27 19 54 48 27 28 50 52 52 52
2 0 1 -38 -1 -84 -4 -81 7 -181 30 -259 14 -47 25 -33 34 43 11 91 19 86 43
-26 21 -100 64 -206 105 -259 14 -19 15 -15 16 57 0 42 4 79 8 82 5 3 19 -16
31 -42 62 -128 199 -317 217 -300 3 3 0 25 -6 48 -6 23 -10 44 -7 46 2 2 33
-36 70 -84 68 -91 179 -202 184 -185 2 6 -5 34 -17 62 -11 28 -20 55 -20 58 0
3 48 -41 108 -98 94 -91 172 -152 172 -134 0 3 -14 30 -31 61 -17 30 -29 57
-26 60 3 3 34 -14 69 -37 35 -24 97 -62 138 -86 49 -28 69 -44 59 -48 -8 -3
-42 -14 -76 -24 -69 -21 -63 -23 -204 65 -47 30 -89 54 -93 54 -4 0 9 -29 29
-65 20 -36 33 -65 30 -65 -21 0 -123 81 -194 154 -46 47 -85 86 -87 86 -2 0 6
-25 17 -55 11 -31 19 -61 16 -68 -6 -18 -121 97 -192 193 -35 47 -77 101 -93
120 l-31 35 14 -52 c7 -29 10 -53 6 -53 -14 0 -80 76 -118 136 -21 33 -56 97
-78 142 -21 45 -43 82 -47 82 -4 0 -8 -37 -8 -82 l-1 -83 -21 25 c-37 45 -77
143 -94 235 -26 146 -29 150 -44 70 -18 -100 -24 -106 -46 -49 -16 42 -19 75
-18 232 1 100 -1 182 -3 182 -3 0 -25 -22 -50 -50 -25 -27 -48 -50 -53 -50 -9
0 12 113 40 217 20 75 56 155 92 206 22 31 19 33 -25 11 -75 -39 -109 -77
-153 -169 -56 -120 -75 -198 -81 -332 -12 -249 61 -511 201 -717 25 -38 45
-71 42 -73 -2 -2 -38 33 -79 78 -231 248 -349 549 -349 889 -1 218 39 386 137
585 195 396 577 660 1035 719 63 8 304 -4 375 -18z m165 -1012 c45 -38 95
-114 76 -114 -30 0 -126 102 -126 135 0 12 20 3 50 -21z m367 -504 c17 -20 16
-45 -2 -60 -12 -10 -18 -4 -38 41 -13 30 -22 58 -20 62 5 8 37 -15 60 -43z"/>
<path d="M5621 9579 c-67 -13 -60 -17 36 -17 182 0 337 -66 469 -197 89 -89
141 -176 169 -285 19 -73 63 -170 78 -170 15 0 -1 124 -24 194 -70 207 -273
401 -477 454 -92 24 -191 32 -251 21z"/>
<path d="M2945 9047 c-273 -72 -401 -395 -262 -660 63 -121 178 -189 322 -191
68 -1 86 3 119 23 58 36 82 114 54 176 -15 34 -23 32 -45 -12 -29 -59 -64 -78
-141 -78 -55 0 -75 5 -113 27 -56 33 -94 77 -122 138 -28 61 -30 203 -4 277
24 70 93 145 165 180 51 25 68 28 157 28 80 0 112 -5 158 -22 315 -123 500
-466 457 -851 -19 -176 -64 -321 -154 -497 -160 -316 -393 -552 -694 -704 -70
-35 -270 -106 -278 -98 -3 3 2 43 11 90 16 80 16 90 1 160 -48 217 -249 377
-456 365 -116 -6 -183 -69 -183 -173 0 -94 60 -165 139 -165 59 0 97 21 118
65 21 43 14 58 -20 45 -50 -19 -101 -12 -123 16 -26 33 -27 58 -1 84 28 28 67
35 126 22 129 -27 254 -128 289 -233 25 -75 17 -176 -21 -254 -61 -126 -221
-250 -382 -296 -87 -25 -274 -26 -353 -3 -123 37 -243 125 -255 189 -12 68 43
125 122 125 39 0 51 -5 77 -33 18 -18 37 -41 43 -52 10 -18 12 -18 29 9 40 61
15 133 -58 167 -138 62 -317 -48 -317 -196 0 -101 78 -197 214 -264 123 -60
201 -75 354 -68 160 8 7372 8 7542 0 107 -5 138 -2 210 16 242 60 389 214 349
364 -23 88 -104 154 -202 164 -70 7 -118 -9 -157 -53 -32 -37 -39 -79 -19
-117 20 -38 32 -37 54 1 25 44 56 62 112 62 33 0 50 -7 78 -31 30 -26 35 -37
35 -73 0 -54 -46 -111 -126 -157 -92 -52 -163 -69 -299 -69 -134 0 -195 14
-309 70 -77 38 -190 138 -234 207 -119 187 -52 398 156 496 118 55 232 40 232
-32 0 -15 -7 -37 -16 -50 -14 -20 -23 -22 -68 -19 -28 3 -59 8 -68 12 -14 7
-18 3 -18 -16 0 -52 59 -98 127 -98 109 0 176 132 124 246 -50 109 -244 124
-404 31 -52 -31 -150 -133 -176 -185 -51 -100 -64 -215 -35 -311 8 -29 13 -55
10 -58 -3 -3 -49 9 -103 27 -381 126 -693 407 -882 795 -114 231 -146 363
-146 590 1 188 11 236 87 393 39 82 62 117 116 171 125 126 248 189 387 198
94 6 140 -4 215 -49 100 -60 153 -163 154 -298 1 -98 -26 -164 -93 -231 -58
-57 -108 -79 -182 -79 -48 0 -107 38 -126 82 -9 21 -20 38 -25 38 -15 0 -28
-40 -28 -91 0 -48 3 -55 39 -90 46 -43 92 -54 181 -44 298 35 438 408 258 688
-38 60 -128 128 -201 154 -72 25 -259 24 -337 -1 -200 -67 -353 -201 -445
-391 -112 -231 -131 -503 -55 -800 74 -289 217 -534 439 -755 210 -209 437
-340 710 -411 108 -28 116 -32 175 -85 33 -31 78 -68 99 -81 20 -14 37 -30 37
-34 0 -5 -34 -9 -75 -9 -70 0 -79 3 -142 42 -263 161 -503 248 -685 248 -138
0 -227 -23 -482 -124 -234 -94 -374 -116 -495 -80 -133 39 -206 185 -150 300
36 76 124 124 226 124 99 0 158 -48 158 -128 0 -36 -5 -48 -28 -68 -36 -31
-75 -30 -122 1 -20 15 -39 24 -42 22 -11 -12 13 -94 36 -119 57 -63 165 -39
220 48 84 131 22 297 -126 340 -160 47 -348 -30 -414 -170 -59 -125 -32 -257
77 -362 35 -34 60 -64 57 -68 -9 -9 -2816 -7 -2831 2 -8 6 1 18 33 42 86 65
128 149 128 260 1 90 -27 154 -94 214 -123 112 -328 128 -434 35 -70 -62 -95
-179 -56 -264 23 -51 81 -102 125 -110 45 -9 103 11 123 41 16 26 31 114 18
114 -4 0 -20 -11 -37 -25 -53 -45 -128 -24 -144 40 -14 58 14 113 73 144 36
18 142 13 193 -10 91 -41 130 -98 130 -186 -1 -188 -179 -275 -435 -214 -44
11 -156 50 -250 86 -93 37 -212 78 -264 91 -152 39 -303 30 -473 -27 -89 -29
-288 -126 -386 -187 -82 -51 -85 -52 -163 -52 -43 0 -79 4 -79 8 0 4 15 16 33
27 17 10 64 49 102 86 62 57 78 67 120 74 77 11 250 71 352 121 405 200 723
581 849 1019 72 252 73 523 2 730 -45 132 -97 215 -198 315 -101 101 -154 136
-272 176 -90 31 -246 41 -323 21z m341 -2397 c94 -12 181 -40 351 -113 120
-51 121 -52 85 -59 -52 -10 -1040 -9 -1046 1 -7 11 161 93 259 126 71 25 195
51 250 54 11 1 57 -4 101 -9z m5059 -17 c119 -26 362 -133 349 -154 -6 -11
-1045 -12 -1062 -1 -14 9 196 102 318 141 132 43 248 47 395 14z"/>
<path d="M3360 8647 c0 -2 9 -30 19 -63 77 -240 96 -359 80 -503 -14 -133 -51
-266 -125 -457 -35 -89 -64 -173 -64 -186 1 -20 7 -16 51 31 61 66 86 113 137
266 63 187 77 266 77 445 -1 171 -13 236 -66 346 -29 63 -78 124 -98 124 -6 0
-11 -2 -11 -3z"/>
<path d="M7965 8618 c-41 -49 -91 -156 -109 -235 -21 -95 -21 -312 0 -424 17
-90 92 -327 123 -388 23 -44 110 -151 123 -151 16 0 -1 56 -64 215 -105 264
-145 484 -119 654 10 66 64 266 90 334 15 39 -10 36 -44 -5z"/>
<path d="M2511 8587 c-20 -52 -24 -178 -8 -240 29 -110 115 -211 225 -263 43
-20 69 -26 124 -25 38 0 76 5 86 10 19 11 20 11 -115 61 -99 37 -159 82 -205
152 -39 60 -53 105 -68 228 -11 94 -24 118 -39 77z"/>
<path d="M8836 8587 c-3 -12 -10 -61 -15 -107 -14 -119 -35 -172 -94 -236 -52
-57 -106 -90 -217 -131 -36 -13 -72 -26 -80 -29 -28 -11 21 -23 95 -23 86 -1
167 33 236 101 97 94 136 205 120 337 -11 82 -19 111 -31 111 -4 0 -10 -10
-14 -23z"/>
<path d="M3873 8494 c-97 -48 -95 -192 4 -239 70 -33 152 1 183 76 25 59 -12
138 -76 165 -43 18 -71 17 -111 -2z m101 -90 c12 -31 6 -54 -18 -69 -36 -24
-66 -5 -66 39 0 18 3 36 7 39 13 14 71 7 77 -9z"/>
<path d="M7380 8502 c-56 -25 -90 -73 -90 -128 0 -120 141 -175 227 -89 29 29
33 39 33 88 0 40 -5 61 -21 81 -37 47 -103 68 -149 48z m78 -94 c20 -20 14
-56 -12 -73 -20 -14 -28 -14 -45 -3 -24 14 -30 73 -8 81 22 10 53 7 65 -5z"/>
<path d="M4075 8220 c-4 -6 -29 -22 -56 -35 -57 -29 -56 -27 -29 -161 39 -188
133 -421 234 -577 251 -388 670 -675 1116 -762 106 -21 119 -20 131 13 5 15
19 44 30 65 22 43 27 40 -81 57 -621 99 -1136 584 -1278 1205 -11 50 -24 116
-27 148 -7 54 -23 74 -40 47z"/>
<path d="M7245 8193 c-48 -297 -115 -474 -258 -693 -86 -129 -263 -313 -391
-404 -195 -140 -434 -240 -664 -277 -40 -7 -71 -15 -69 -18 8 -15 45 -98 50
-113 8 -22 18 -22 115 -2 285 58 589 214 812 416 266 241 473 610 529 943 21
123 22 114 -16 130 -19 8 -46 24 -60 35 -35 28 -41 26 -48 -17z"/>
<path d="M3830 8148 c0 -18 11 -85 24 -148 135 -637 586 -1158 1196 -1378 102
-37 212 -65 339 -87 99 -17 121 -12 103 21 -6 11 -13 26 -15 35 -4 11 -37 22
-122 38 -334 63 -647 222 -891 454 -225 214 -373 443 -464 716 -40 117 -80
283 -80 327 0 27 -15 40 -57 49 -32 6 -33 6 -33 -27z"/>
<path d="M7470 8167 c-22 -11 -28 -27 -48 -127 -143 -708 -687 -1260 -1382
-1404 -117 -24 -134 -33 -146 -80 l-7 -29 69 7 c302 31 693 214 955 449 196
174 310 325 428 562 105 209 159 380 187 588 6 42 4 47 -12 47 -11 0 -30 -6
-44 -13z"/>
<path d="M3723 7535 c-22 -39 -64 -113 -93 -165 -29 -52 -81 -135 -116 -185
-135 -190 -205 -300 -194 -303 15 -5 114 73 167 132 61 70 154 210 197 298 36
73 91 259 83 281 -2 6 -22 -20 -44 -58z"/>
<path d="M7616 7538 c36 -158 75 -245 176 -396 80 -119 244 -279 264 -259 8 8
-36 78 -142 226 -85 118 -128 188 -234 379 -35 61 -67 112 -71 112 -4 0 -1
-28 7 -62z"/>
<path d="M2451 7413 c7 -10 31 -39 51 -65 71 -86 106 -156 129 -254 30 -132
47 -124 56 28 5 80 4 92 -22 143 -19 39 -43 68 -79 95 -76 58 -166 92 -135 53z"/>
<path d="M8850 7400 c-103 -56 -172 -157 -169 -249 1 -54 23 -142 34 -142 5 0
20 41 32 92 26 104 48 146 133 254 68 85 62 94 -30 45z"/>
<path d="M5641 6763 c-46 -23 -71 -67 -71 -126 0 -118 151 -171 232 -81 9 11
21 37 27 59 27 101 -92 196 -188 148z m93 -89 c23 -23 20 -51 -9 -70 -23 -15
-27 -15 -50 0 -27 18 -33 54 -13 74 17 17 54 15 72 -4z"/>
<path d="M4496 6754 c-3 -9 -6 -32 -6 -52 0 -20 -11 -61 -25 -89 -21 -47 -22
-53 -7 -53 21 1 56 28 71 57 14 28 14 95 -1 128 -13 29 -23 32 -32 9z"/>
<path d="M6844 6738 c-29 -57 -3 -145 52 -170 34 -16 37 -7 14 46 -11 26 -23
72 -26 102 -4 30 -11 54 -15 54 -5 0 -16 -14 -25 -32z"/>
<path d="M3639 6211 l-12 -39 -101 1 c-125 2 -182 -13 -240 -64 -66 -59 -91
-116 -90 -214 0 -88 19 -138 71 -187 53 -51 96 -63 233 -63 111 0 125 -2 128
-17 8 -41 17 -13 18 52 l0 70 -20 -24 c-31 -36 -79 -56 -136 -56 -101 0 -160
57 -178 174 l-9 56 118 0 c106 0 120 -2 137 -20 19 -21 19 -21 26 17 3 21 9
48 12 60 6 22 5 23 -27 9 -34 -14 -97 -20 -201 -17 -54 1 -58 3 -58 25 0 35
20 87 48 125 55 74 149 78 215 9 23 -24 39 -34 41 -26 25 91 39 128 51 138 19
16 19 30 0 30 -8 0 -19 -17 -26 -39z"/>
<path d="M4126 6209 l-17 -41 -70 7 c-216 22 -359 -90 -359 -281 0 -103 50
-186 140 -228 38 -18 64 -21 170 -21 111 0 125 -2 128 -17 8 -40 17 -14 17 47
0 36 -3 65 -6 65 -3 0 -14 -10 -25 -21 -27 -30 -76 -49 -128 -49 -87 0 -142
47 -172 146 -26 87 -29 84 99 84 84 0 118 -4 133 -15 28 -21 31 -19 38 24 3
22 9 46 12 55 5 14 3 14 -27 2 -34 -14 -102 -19 -212 -17 -57 1 -57 1 -51 29
21 99 72 165 137 177 44 9 111 -19 141 -58 l25 -31 6 30 c11 52 36 112 51 124
18 16 18 30 0 30 -8 0 -21 -18 -30 -41z"/>
<path d="M5113 6211 l-15 -38 -111 1 c-97 0 -119 -3 -164 -23 -109 -48 -157
-136 -152 -273 3 -72 8 -91 32 -126 57 -86 144 -117 300 -106 84 6 97 5 97 -9
0 -9 5 -19 10 -22 6 -4 10 20 10 66 l0 72 -20 -25 c-47 -60 -167 -78 -231 -35
-44 29 -78 92 -86 156 l-6 51 117 0 c101 0 118 -2 135 -19 19 -19 20 -19 30
30 15 67 14 74 -3 60 -18 -15 -144 -28 -220 -23 l-58 4 5 35 c9 54 46 121 80
145 58 42 166 21 198 -39 17 -32 26 -29 32 15 4 21 18 60 32 87 29 58 28 55
14 55 -6 0 -17 -17 -26 -39z"/>
<path d="M8703 6211 l-15 -38 -102 1 c-117 1 -168 -12 -228 -57 -60 -46 -92
-113 -97 -205 -6 -123 36 -200 131 -243 48 -21 66 -24 175 -22 117 2 122 1
130 -20 6 -16 9 -5 13 43 3 36 4 67 3 69 -1 2 -18 -10 -37 -27 -20 -17 -52
-34 -71 -38 -53 -10 -124 1 -154 23 -34 26 -69 96 -77 156 l-7 47 115 0 c85 0
119 -4 134 -15 27 -20 34 -19 34 9 0 14 4 36 9 49 13 32 6 38 -27 22 -27 -13
-94 -18 -206 -16 l-58 1 7 37 c15 83 74 158 132 169 46 9 103 -14 141 -55 22
-24 32 -30 32 -18 0 27 31 110 52 140 17 24 17 27 3 27 -10 0 -23 -16 -32 -39z"/>
<path d="M4350 6195 c-25 -8 -78 -15 -117 -15 -42 0 -73 -4 -73 -10 0 -5 11
-10 25 -10 18 0 26 -7 31 -25 3 -14 5 -137 3 -273 -5 -291 -2 -283 -108 -334
-67 -31 -86 -48 -58 -48 7 0 58 25 112 55 58 32 124 60 158 67 31 7 57 16 57
21 0 5 -11 6 -25 3 -34 -9 -45 22 -45 120 l0 74 48 0 c141 0 258 95 270 220 6
65 -19 115 -72 142 -52 27 -147 33 -206 13z m119 -23 c48 -26 71 -74 71 -147
0 -116 -65 -191 -157 -182 -66 7 -73 17 -73 112 0 45 3 110 7 145 6 58 8 63
37 76 43 18 75 17 115 -4z"/>
<path d="M6453 6176 c-84 -40 -103 -64 -103 -127 0 -40 -4 -51 -31 -73 -33
-28 -31 -46 7 -46 24 0 24 -1 23 -87 0 -128 -14 -244 -30 -254 -7 -4 -10 -11
-7 -15 7 -6 113 50 123 66 3 5 1 11 -5 15 -6 4 -10 60 -10 139 l0 133 49 6
c53 6 121 31 121 44 0 4 -37 8 -82 8 l-83 0 4 65 c4 80 14 106 41 115 42 13
101 -28 84 -58 -4 -7 12 6 35 28 22 21 41 42 41 47 0 8 -65 28 -90 28 -9 0
-47 -15 -87 -34z"/>
<path d="M5325 6179 c-45 -16 -75 -20 -122 -16 -71 5 -84 -8 -21 -20 43 -9 43
-9 51 -63 9 -61 3 -365 -8 -392 -4 -11 -23 -20 -52 -24 -82 -12 -29 -19 117
-16 88 3 137 7 125 12 -11 5 -32 9 -48 9 -36 1 -47 30 -47 127 l0 74 46 0 c64
0 99 -24 192 -134 98 -113 164 -159 233 -160 35 -1 53 4 66 18 17 18 17 19 -2
11 -41 -16 -73 -16 -103 -1 -53 27 -123 131 -132 196 -6 41 -52 77 -112 86
l-38 7 43 27 c53 33 83 71 98 120 10 32 9 44 -7 77 -39 79 -155 104 -279 62z
m136 -9 c10 -6 25 -23 32 -38 35 -69 28 -146 -19 -202 -24 -28 -31 -30 -91
-30 l-66 0 8 112 c8 130 9 134 44 153 31 17 65 19 92 5z"/>
<path d="M6975 6188 c-16 -5 -81 -10 -142 -11 -62 -1 -113 -5 -113 -9 0 -5 13
-8 29 -8 61 0 63 -10 59 -250 -2 -157 -7 -221 -16 -232 -7 -9 -33 -19 -57 -23
-71 -10 -55 -27 18 -18 34 4 124 8 200 8 126 0 140 -2 153 -19 10 -15 14 -16
14 -5 0 8 -4 19 -10 25 -7 7 -3 23 10 49 21 41 20 55 -4 36 -16 -14 -137 -41
-183 -41 l-33 0 1 193 c0 105 3 210 7 232 7 38 9 40 56 50 27 6 51 16 54 23 4
14 -2 14 -43 0z"/>
<path d="M7900 6179 c-42 -15 -71 -19 -122 -16 -76 5 -91 -7 -26 -20 39 -8 43
-12 51 -48 10 -45 4 -381 -7 -407 -5 -11 -25 -20 -53 -24 -85 -13 -28 -20 117
-14 111 4 136 7 105 13 -22 5 -45 10 -51 12 -12 4 -24 74 -24 146 l0 49 48 0
c65 0 95 -22 190 -133 45 -51 98 -105 119 -119 77 -50 154 -59 185 -20 11 14
11 15 -7 7 -45 -18 -75 -17 -111 5 -45 29 -124 147 -124 188 0 39 -35 69 -97
84 l-50 12 42 27 c56 35 96 89 101 136 14 113 -137 177 -286 122z m157 -37
c45 -68 37 -159 -19 -219 -18 -19 -32 -23 -86 -23 l-64 0 7 98 c9 135 13 150
43 167 45 25 93 15 119 -23z"/>
<path d="M7399 6179 c-162 -25 -272 -183 -239 -342 15 -73 54 -125 121 -162
48 -27 63 -30 139 -30 68 0 93 5 125 22 55 29 112 88 143 148 35 68 37 180 4
242 -47 90 -171 142 -293 122z m112 -42 c68 -45 99 -117 99 -227 0 -146 -66
-244 -163 -243 -112 2 -187 105 -187 257 0 92 56 203 114 226 41 17 102 11
137 -13z"/>
<path d="M2690 6169 c0 -5 16 -11 35 -15 27 -5 37 -12 41 -31 11 -42 -2 -433
-15 -446 -6 -6 -29 -13 -52 -16 -24 -3 -44 -12 -47 -20 -4 -11 1 -12 19 -7 13
4 83 10 154 13 122 6 127 7 85 18 -43 10 -45 13 -52 55 -3 25 -7 68 -7 97 -1
44 3 54 26 72 17 14 34 19 47 15 38 -11 104 -85 152 -170 25 -46 62 -98 82
-115 61 -54 143 -77 156 -44 5 13 0 15 -27 10 -27 -5 -40 -1 -66 21 -41 34
-91 133 -91 179 0 77 -47 139 -123 158 l-44 12 118 103 c66 57 119 108 119
113 0 6 -43 8 -102 7 -76 -2 -103 -6 -106 -17 -4 -11 3 -13 31 -8 43 7 51 -2
37 -39 -21 -55 -168 -204 -202 -204 -13 0 1 220 14 238 6 6 23 12 39 12 15 0
30 3 33 8 2 4 -54 8 -125 8 -71 0 -129 -3 -129 -7z"/>
<path d="M6037 6004 c-31 -10 -64 -30 -92 -59 -66 -66 -82 -144 -44 -221 22
-46 82 -84 130 -84 38 1 110 38 152 78 120 115 103 260 -33 291 -55 13 -54 13
-113 -5z m81 -40 c52 -36 77 -138 51 -213 -13 -38 -35 -51 -86 -51 -68 1 -116
60 -116 143 0 56 22 109 50 126 27 15 76 13 101 -5z"/>
<path d="M3597 5223 l-15 -38 -113 0 c-129 -1 -179 -16 -237 -75 -100 -99
-109 -273 -21 -373 59 -68 100 -81 248 -80 114 2 124 0 128 -18 3 -10 9 -19
14 -19 12 0 11 17 -1 25 -5 3 -7 11 -5 18 2 7 6 32 10 57 l6 45 -33 -32 c-41
-39 -76 -53 -134 -53 -95 0 -159 66 -179 186 l-6 41 63 5 c82 6 191 -5 196
-20 7 -22 19 -12 25 21 4 17 9 42 13 54 6 23 6 23 -30 8 -27 -12 -66 -15 -149
-13 l-112 3 3 30 c19 156 167 226 264 124 l37 -39 10 38 c6 20 11 42 11 48 0
6 11 28 25 48 29 43 30 46 11 46 -8 0 -21 -17 -29 -37z"/>
<path d="M5019 5221 l-12 -39 -101 2 c-129 1 -183 -14 -246 -71 -63 -56 -85
-113 -84 -213 0 -86 22 -140 75 -184 61 -52 93 -60 227 -58 116 1 124 0 129
-18 10 -40 18 -19 19 51 0 65 -1 69 -15 51 -30 -38 -83 -62 -139 -62 -108 0
-161 55 -185 196 l-6 31 62 5 c96 7 184 -4 200 -26 13 -18 14 -16 20 20 4 21
10 49 13 61 6 23 6 23 -30 8 -24 -10 -70 -15 -146 -15 -124 0 -123 -1 -99 81
39 129 175 168 258 73 19 -21 33 -30 35 -22 25 90 39 128 51 138 19 16 19 30
0 30 -8 0 -19 -17 -26 -39z"/>
<path d="M8537 5223 l-15 -38 -103 0 c-136 0 -191 -18 -253 -84 -100 -108
-100 -287 1 -383 54 -52 96 -63 232 -61 115 2 123 1 128 -17 10 -39 18 -19 19
49 l0 70 -23 -25 c-31 -34 -83 -54 -138 -54 -99 0 -158 63 -179 191 l-6 36 62
5 c82 6 191 -5 196 -20 7 -22 19 -12 25 21 4 17 9 42 13 54 6 23 6 23 -30 8
-24 -10 -70 -15 -146 -15 -124 0 -123 -1 -100 82 35 126 168 166 253 76 23
-24 39 -34 41 -26 25 91 39 128 51 138 19 16 19 30 1 30 -8 0 -21 -17 -29 -37z"/>
<path d="M7031 5227 c-9 -23 -15 -24 -147 -30 -75 -4 -168 -7 -206 -7 -39 0
-68 -4 -68 -10 0 -5 15 -10 33 -10 55 0 66 -16 73 -106 4 -44 3 -165 -1 -268
l-7 -188 -53 -24 c-53 -23 -78 -44 -53 -44 8 0 18 4 24 9 22 22 137 51 200 51
48 0 65 3 62 13 -3 6 -21 13 -40 15 l-36 3 -7 86 c-8 102 -6 105 80 96 69 -7
95 -17 95 -38 0 -8 4 -15 9 -15 4 0 11 26 14 58 3 31 9 66 13 77 7 19 7 19
-12 3 -25 -22 -187 -37 -198 -19 -4 6 -4 70 0 141 l7 130 56 0 c33 0 70 -7 91
-18 29 -14 35 -23 38 -54 3 -41 22 -53 22 -15 0 25 25 143 35 170 4 10 3 17
-4 17 -6 0 -16 -11 -20 -23z"/>
<path d="M6410 5211 c-39 -12 -84 -38 -119 -67 -27 -22 -31 -32 -31 -74 0 -43
-4 -53 -37 -84 l-38 -35 33 -7 c19 -4 36 -12 39 -19 2 -7 0 -79 -5 -159 -7
-118 -13 -150 -27 -166 -24 -26 -14 -25 43 4 55 29 92 55 76 56 -18 0 -25 75
-18 180 l7 98 49 6 c47 7 118 34 118 45 0 3 -39 5 -86 3 l-87 -4 6 72 c7 81
26 120 60 120 32 0 67 -27 67 -53 0 -19 5 -17 40 18 22 21 40 42 40 46 0 10
-58 29 -84 28 -12 0 -32 -4 -46 -8z"/>
<path d="M8011 5201 c-36 -24 -410 -30 -433 -8 -14 14 -18 9 -41 -49 -25 -63
-26 -80 -3 -48 14 18 79 33 146 34 l45 0 -30 -18 c-43 -27 -104 -97 -126 -146
-54 -119 5 -262 124 -302 153 -51 357 58 357 190 0 86 -151 122 -277 66 -34
-15 -43 -24 -43 -43 0 -34 25 -52 72 -51 46 2 60 12 35 25 -9 6 -17 21 -17 35
0 55 93 53 119 -2 38 -84 -19 -198 -104 -205 -56 -4 -74 1 -109 31 -48 42 -68
99 -68 191 -1 91 22 149 76 197 35 31 40 32 124 32 102 0 130 -6 134 -29 2 -9
14 13 26 48 12 36 21 65 19 67 -1 1 -13 -6 -26 -15z"/>
<path d="M8968 5199 c-13 -21 -17 -21 -67 -9 -124 30 -245 -12 -283 -97 -42
-95 -2 -157 118 -187 38 -10 84 -24 102 -33 67 -32 80 -120 24 -164 -59 -46
-194 1 -214 75 -5 14 -11 38 -16 54 -5 20 -14 27 -31 27 -14 0 -26 -6 -29 -13
-2 -8 2 -10 13 -6 38 15 46 -55 15 -123 l-19 -43 51 -15 c73 -21 170 -20 216
4 68 35 122 111 122 171 0 73 -46 114 -167 149 -89 27 -124 54 -125 98 -1 40
14 59 57 73 65 21 157 -23 185 -90 15 -36 30 -30 30 13 0 37 34 117 50 117 5
0 10 5 10 10 0 18 -27 11 -42 -11z"/>
<path d="M3650 5197 c0 -16 36 -24 130 -30 l45 -2 -32 -18 c-25 -13 -34 -26
-38 -55 -29 -170 -97 -384 -131 -413 -24 -20 -15 -24 61 -27 56 -2 81 1 98 13
l21 15 -26 0 c-35 0 -58 24 -58 60 0 45 21 134 34 142 11 8 156 11 156 4 0 -6
29 -167 35 -193 4 -16 1 -23 -9 -23 -8 0 -17 -4 -21 -9 -3 -6 34 -10 90 -10
56 0 95 3 95 9 0 6 -11 10 -24 10 -13 0 -27 8 -30 17 -22 56 -86 389 -86 445
0 34 3 38 25 38 14 0 25 5 25 10 0 7 -25 9 -72 4 -70 -6 -234 7 -270 21 -13 5
-18 2 -18 -8z m210 -39 c0 -2 9 -49 20 -106 11 -57 18 -107 15 -111 -2 -5 -25
-11 -50 -14 -25 -4 -56 -9 -69 -13 l-24 -6 18 69 c33 123 59 183 81 183 5 0 9
-1 9 -2z"/>
<path d="M5235 5189 c-38 -16 -66 -19 -118 -16 -76 5 -99 -7 -35 -18 24 -4 46
-13 50 -19 11 -16 10 -400 -1 -429 -7 -19 -20 -27 -50 -32 -23 -4 -41 -11 -41
-17 0 -6 10 -8 23 -4 12 3 78 6 147 6 84 0 120 3 110 10 -8 5 -29 10 -46 10
-40 0 -44 11 -44 116 0 90 -2 87 60 84 47 -2 81 -28 179 -138 91 -102 139
-139 198 -153 39 -9 103 4 103 21 0 5 -14 4 -30 -2 -38 -13 -70 -5 -109 27
-36 31 -114 152 -106 165 19 32 -39 83 -110 98 l-38 7 47 30 c87 55 118 134
80 206 -33 66 -167 89 -269 48z m145 -19 c45 -45 53 -134 20 -200 -25 -50 -45
-60 -116 -60 l-57 0 5 117 c5 111 7 118 32 140 35 29 88 31 116 3z"/>
<path d="M7065 5200 c-9 -15 17 -23 99 -29 79 -6 80 -6 49 -20 -28 -11 -33
-20 -43 -70 -42 -217 -96 -379 -136 -408 -24 -18 -24 -18 58 -20 45 -1 91 3
102 9 18 10 17 12 -15 22 l-34 11 1 70 c1 39 7 82 13 98 10 26 13 27 89 27
l79 0 16 -93 c21 -114 21 -127 2 -127 -8 0 -15 -4 -15 -9 0 -6 43 -10 97 -10
55 0 92 3 87 8 -5 5 -18 11 -29 13 -16 2 -24 20 -42 91 -31 124 -75 389 -66
398 5 4 28 9 52 11 25 2 46 8 48 14 2 7 -19 8 -69 2 -76 -9 -238 -3 -301 12
-21 4 -39 4 -42 0z m210 -50 c3 -5 14 -55 24 -110 13 -73 15 -102 7 -105 -32
-9 -130 -24 -134 -21 -6 6 34 138 60 199 20 46 31 56 43 37z"/>
<path d="M2390 5180 c0 -5 8 -10 19 -10 15 0 23 -18 45 -92 33 -117 132 -417
140 -425 12 -13 41 26 85 117 26 52 54 115 64 140 l18 45 49 -148 c27 -82 51
-151 54 -154 13 -14 42 30 105 157 37 74 90 186 116 247 39 90 54 114 74 122
19 7 0 9 -74 9 -55 0 -86 -3 -70 -7 40 -8 43 -37 15 -138 -23 -86 -86 -240
-105 -262 -11 -11 -20 6 -49 98 -42 129 -66 224 -66 264 0 20 5 27 19 27 11 0
23 5 26 10 4 6 -31 10 -97 9 -66 0 -96 -3 -82 -9 15 -6 27 -29 42 -82 12 -40
22 -83 22 -95 0 -28 -79 -233 -90 -233 -12 0 -65 152 -99 283 l-29 112 24 3
c13 2 24 8 24 13 0 5 -40 9 -90 9 -53 0 -90 -4 -90 -10z"/>
<path d="M4064 5178 c-3 -4 0 -15 6 -25 5 -10 48 -111 94 -225 47 -114 95
-226 107 -249 l21 -43 22 28 c11 16 76 132 142 260 79 149 129 234 143 241 11
5 21 12 21 16 0 3 -49 6 -110 6 -62 1 -107 -3 -104 -8 3 -5 21 -9 40 -9 31 0
34 -3 34 -30 0 -57 -119 -370 -141 -370 -12 0 -149 361 -149 392 0 4 16 8 35
8 19 0 35 4 35 10 0 11 -189 9 -196 -2z"/>
<path d="M5965 5021 c-103 -26 -175 -112 -175 -208 0 -127 117 -196 232 -137
43 22 117 99 134 139 31 74 7 158 -55 189 -37 20 -97 27 -136 17z m74 -62 c55
-55 65 -166 20 -223 -16 -21 -29 -26 -63 -26 -52 0 -83 21 -107 74 -62 136 54
272 150 175z"/>
<path d="M6220 4223 c-30 -2 -59 -8 -64 -14 -6 -6 -4 -9 6 -9 22 0 28 -21 28
-101 l0 -69 -47 0 c-97 0 -171 -37 -211 -105 -33 -58 -28 -157 11 -208 49 -65
132 -67 218 -7 l29 21 0 -37 c0 -36 1 -36 33 -30 38 8 162 64 155 71 -2 3 -18
-1 -35 -7 -38 -14 -61 -6 -73 27 -22 59 -2 431 25 451 20 15 19 24 -2 22 -10
-1 -43 -3 -73 -5z m-56 -244 c25 -20 26 -25 26 -115 0 -89 -2 -97 -26 -121
-21 -21 -32 -24 -61 -20 -44 8 -89 48 -104 95 -17 51 -6 128 21 157 31 33 105
35 144 4z"/>
<path d="M5207 4029 c-20 -5 -60 -20 -88 -34 -42 -22 -48 -29 -39 -41 11 -12
18 -9 47 16 36 32 53 36 85 19 23 -12 52 -75 42 -91 -4 -6 -41 -26 -83 -45
-105 -48 -141 -77 -141 -113 0 -59 68 -88 137 -58 15 7 47 25 70 40 23 15 44
28 46 28 3 0 8 -15 11 -34 12 -61 28 -64 112 -23 l74 37 0 -35 c0 -42 14 -44
78 -15 l43 19 -21 21 c-16 16 -20 33 -20 85 0 36 6 80 14 98 30 73 95 92 144
43 26 -26 27 -29 27 -154 l0 -127 28 2 c16 1 56 15 90 32 l62 30 -46 -6 c-42
-5 -48 -3 -54 17 -4 13 -4 66 -1 119 9 117 0 146 -49 167 -48 20 -96 10 -151
-32 -24 -19 -46 -34 -49 -34 -3 0 -5 15 -5 34 0 19 -4 38 -10 41 -12 7 -105
-32 -121 -51 -9 -11 -8 -14 4 -14 32 0 47 -41 47 -131 l0 -86 -41 -19 c-41
-18 -41 -18 -59 4 -22 27 -40 105 -40 171 0 114 -37 145 -143 120z m69 -204
c7 -52 0 -65 -52 -90 -42 -20 -79 -13 -94 15 -18 33 -2 58 53 90 73 42 84 40
93 -15z"/>
<path d="M4034 3242 l-15 -37 -112 0 c-97 0 -119 -3 -165 -24 -99 -45 -152
-136 -152 -260 0 -78 22 -131 71 -178 59 -55 99 -66 236 -65 118 2 122 1 130
-21 6 -16 9 -4 13 48 4 39 5 72 3 74 -2 3 -10 -5 -19 -17 -24 -34 -87 -62
-141 -62 -51 0 -106 26 -133 63 -21 30 -49 107 -50 139 0 23 5 28 36 34 58 11
193 -2 213 -20 24 -22 31 -20 31 8 0 14 5 37 10 52 6 15 9 28 7 31 -2 2 -20
-4 -40 -12 -25 -10 -71 -15 -148 -15 l-111 0 7 38 c17 97 84 172 153 172 47 0
95 -23 124 -59 l25 -32 12 53 c6 30 23 71 37 91 20 30 22 37 9 37 -10 0 -23
-16 -31 -38z"/>
<path d="M7932 3267 c-6 -7 -16 -25 -22 -41 -9 -24 -14 -27 -38 -22 -177 42
-332 -13 -405 -142 -83 -149 -22 -326 132 -377 81 -27 184 -18 246 20 63 39
105 93 112 142 4 32 0 45 -21 70 -15 18 -43 37 -62 43 -77 26 -230 -4 -254
-49 -23 -44 33 -82 96 -67 22 6 23 7 6 35 -16 28 -15 31 2 50 11 12 31 21 48
21 77 0 120 -141 63 -209 -71 -83 -197 -54 -259 60 -35 63 -47 180 -26 245 36
114 143 174 229 130 41 -22 91 -83 91 -111 0 -51 18 -22 29 47 7 40 23 92 37
115 13 23 24 44 24 47 0 11 -17 6 -28 -7z"/>
<path d="M8442 3240 l-17 -40 -83 7 c-213 16 -344 -91 -345 -283 -1 -116 45
-186 149 -230 30 -13 66 -17 162 -16 100 1 122 -1 122 -13 0 -7 5 -17 10 -20
6 -4 10 20 10 65 l0 72 -28 -29 c-15 -17 -44 -36 -66 -43 -50 -16 -130 -8
-164 17 -38 28 -72 93 -79 152 -5 48 -5 50 22 57 47 12 205 -3 225 -21 16 -15
18 -13 29 29 16 65 15 67 -24 50 -23 -9 -71 -14 -146 -14 l-112 0 7 42 c15 91
84 168 150 168 45 -1 114 -35 127 -64 15 -32 25 -26 34 21 3 21 17 58 31 82
27 50 28 51 13 51 -6 0 -18 -18 -27 -40z"/>
<path d="M2978 3219 c-12 -19 -17 -20 -53 -10 -165 45 -324 -41 -311 -169 6
-61 34 -82 157 -120 86 -27 103 -36 120 -63 42 -67 -2 -147 -82 -147 -76 0
-159 63 -159 119 0 36 -22 64 -45 60 -27 -6 -29 -26 -3 -25 19 1 23 -5 26 -36
2 -22 -5 -56 -17 -82 l-19 -45 31 -11 c52 -18 169 -24 211 -10 76 25 146 112
146 182 0 42 -31 93 -67 111 -15 8 -62 25 -103 38 -92 28 -122 55 -118 107 3
32 8 40 41 55 70 35 165 -6 197 -83 17 -41 30 -38 30 8 0 41 33 122 50 122 5
0 10 5 10 10 0 18 -27 11 -42 -11z"/>
<path d="M3501 3222 c-37 -25 -400 -32 -424 -8 -19 20 -27 20 -27 2 0 -8 -9
-36 -20 -62 -20 -45 -19 -77 1 -42 12 22 69 38 133 38 l50 0 -41 -30 c-105
-77 -150 -188 -119 -294 45 -155 246 -205 399 -99 47 33 97 106 97 143 0 64
-79 107 -180 97 -64 -5 -127 -32 -144 -59 -16 -27 24 -62 68 -61 49 1 62 12
37 30 -26 18 -27 35 -3 56 25 23 56 21 87 -6 37 -32 44 -92 16 -149 -25 -53
-65 -78 -123 -78 -99 0 -153 78 -153 220 0 72 4 93 26 135 39 77 73 95 181 95
88 0 134 -12 123 -31 -4 -5 -2 -9 2 -9 5 0 18 29 29 65 12 36 18 65 15 64 -3
0 -17 -8 -30 -17z"/>
<path d="M5375 3207 c-39 -19 -76 -41 -84 -51 -8 -9 -16 -40 -19 -69 -3 -41
-11 -59 -35 -84 l-31 -33 32 -6 32 -6 -1 -112 c-1 -136 -11 -215 -30 -226 -7
-5 -11 -12 -7 -15 6 -7 114 51 123 65 3 5 1 11 -5 15 -6 4 -10 60 -10 139 l0
133 52 7 c56 8 118 30 118 43 0 4 -36 7 -80 5 l-80 -4 0 60 c0 78 15 120 47
128 31 8 71 -10 81 -36 7 -19 10 -18 46 19 l38 38 -33 12 c-51 18 -80 13 -154
-22z"/>
<path d="M5840 3221 c-37 -14 -81 -20 -133 -21 -50 0 -76 -4 -72 -10 3 -5 19
-10 35 -10 49 0 54 -23 53 -236 0 -224 -6 -247 -66 -252 -20 -2 -37 -7 -37
-13 0 -13 71 -10 98 5 20 10 33 10 75 -1 127 -33 237 -6 311 77 107 118 115
308 18 403 -71 69 -185 93 -282 58z m128 -25 c102 -54 154 -217 113 -358 -29
-99 -112 -159 -192 -138 -72 20 -74 26 -74 262 0 208 0 210 24 229 28 23 90
25 129 5z"/>
<path d="M10066 3218 c-14 -20 -19 -20 -54 -10 -22 7 -64 12 -94 12 -129 0
-218 -69 -218 -171 0 -64 42 -99 152 -128 108 -28 138 -54 138 -118 0 -108
-124 -128 -222 -35 -16 14 -28 36 -28 48 0 40 -18 74 -39 74 -11 0 -23 -4 -26
-10 -3 -5 3 -10 14 -10 40 0 39 -54 -3 -151 -5 -13 1 -20 26 -28 53 -20 170
-25 213 -11 53 17 121 88 135 140 25 93 -17 146 -148 186 -90 28 -142 65 -142
102 0 32 38 71 76 78 68 13 174 -52 174 -107 0 -41 18 -16 29 42 8 40 21 70
37 86 28 28 29 33 10 33 -8 0 -22 -10 -30 -22z"/>
<path d="M2130 3217 c0 -15 57 -27 134 -27 l41 0 -32 -20 c-24 -14 -34 -29
-38 -57 -32 -189 -104 -406 -140 -419 -33 -13 -11 -19 68 -19 47 0 91 5 102
12 19 12 19 12 -6 13 -55 0 -70 50 -45 155 l11 50 83 3 c45 2 82 1 82 0 0 -2
9 -50 20 -108 11 -58 20 -106 20 -107 0 -2 -6 -3 -14 -3 -8 0 -17 -3 -20 -8
-2 -4 38 -7 90 -7 52 0 94 3 94 7 0 5 -11 8 -24 8 -19 0 -27 8 -35 33 -17 52
-71 333 -78 402 l-6 64 48 3 c27 2 50 8 52 13 2 7 -27 8 -89 3 -87 -7 -264 3
-301 18 -11 4 -17 1 -17 -9z m215 -59 c17 -81 34 -192 29 -197 -3 -3 -34 -11
-70 -17 -77 -13 -76 -14 -38 108 27 86 48 128 64 128 5 0 12 -10 15 -22z"/>
<path d="M4245 3209 c-47 -17 -73 -20 -122 -15 -71 7 -87 -8 -19 -18 41 -6 44
-9 50 -44 8 -49 8 -303 -1 -370 -3 -30 -11 -55 -17 -57 -6 -2 -28 -6 -50 -10
-74 -12 -20 -20 122 -17 86 2 140 7 137 13 -4 5 -24 9 -45 9 -21 0 -41 4 -44
8 -12 20 -18 189 -7 196 6 4 32 4 59 0 50 -7 51 -8 227 -193 33 -35 77 -71 97
-82 59 -30 158 -23 158 13 0 4 -13 0 -28 -9 -35 -20 -69 -13 -113 24 -44 37
-111 143 -105 166 10 39 -58 90 -134 99 -23 3 -21 5 19 28 132 75 145 215 24
266 -46 20 -139 17 -208 -7z m159 -29 c50 -60 41 -173 -18 -229 -20 -19 -33
-22 -82 -19 l-59 3 3 80 c4 139 10 163 40 180 45 24 87 19 116 -15z"/>
<path d="M1480 3200 c-108 -37 -170 -138 -170 -274 1 -135 97 -246 214 -246
55 0 68 15 21 24 -108 21 -174 200 -130 351 22 79 85 145 137 145 44 0 85 -38
94 -87 4 -19 5 -118 2 -220 -4 -166 -7 -187 -23 -199 -16 -12 -7 -14 70 -14
l89 0 -22 20 c-21 20 -22 28 -22 211 0 204 7 242 51 273 13 9 42 16 65 16 73
0 116 -59 129 -180 16 -153 -52 -320 -132 -320 -12 0 -25 -4 -28 -10 -10 -17
47 -11 90 9 100 45 157 145 163 286 3 86 2 92 -27 137 -54 85 -150 114 -283
84 -67 -15 -77 -15 -104 -1 -39 20 -117 18 -184 -5z"/>
<path d="M6903 3213 c-46 -2 -83 -8 -83 -13 0 -6 11 -10 25 -10 39 0 45 -32
44 -243 -1 -223 -4 -241 -42 -245 -15 -2 -27 -8 -27 -13 0 -5 49 -9 111 -9 71
0 108 4 104 10 -3 6 -17 10 -30 10 -22 0 -24 5 -31 67 -10 98 3 300 22 333 46
77 165 102 223 46 17 -16 36 -45 43 -65 26 -76 2 -318 -38 -378 l-14 -23 85 0
c50 0 85 4 85 10 0 6 -13 10 -29 10 -17 0 -33 4 -36 10 -3 5 11 60 31 122 31
92 38 128 38 195 1 68 -3 86 -20 110 -70 94 -209 108 -328 33 -26 -17 -48 -30
-49 -30 -1 0 -1 18 1 40 2 22 3 39 1 38 -2 -1 -41 -4 -86 -5z"/>
<path d="M8686 3204 c-177 -56 -263 -246 -182 -403 21 -40 87 -97 132 -112 64
-22 171 -18 225 9 169 83 232 303 123 430 -63 74 -198 108 -298 76z m147 -33
c69 -45 101 -129 95 -250 -5 -98 -27 -151 -80 -196 -28 -24 -38 -27 -88 -23
-74 5 -115 35 -149 107 -22 48 -26 69 -25 146 0 77 4 97 27 141 14 29 41 61
59 73 43 27 122 28 161 2z"/>
<path d="M9148 3212 c-76 -3 -106 -17 -51 -24 37 -4 41 -24 41 -228 1 -216 -5
-254 -38 -258 -14 -2 -29 -8 -34 -13 -6 -5 36 -9 108 -9 75 0 115 4 111 10 -3
6 -17 10 -30 10 -21 0 -25 6 -31 45 -3 25 -5 109 -3 187 4 131 6 146 27 176
70 98 206 92 252 -11 35 -75 18 -326 -26 -394 l-14 -23 85 0 c50 0 85 4 85 10
0 6 -16 10 -35 10 -45 0 -44 4 2 144 28 86 36 128 37 187 1 69 -2 79 -28 113
-68 89 -216 98 -331 20 -20 -13 -38 -24 -41 -24 -3 0 -2 15 1 34 4 18 3 35 -2
37 -4 2 -43 3 -85 1z"/>
<path d="M6224 3185 c-8 -32 -1 -40 24 -26 12 6 39 11 62 11 l41 0 -25 -33
c-14 -18 -40 -64 -58 -102 -87 -187 4 -357 192 -359 53 -1 74 4 114 27 27 15
50 27 52 27 1 0 4 -10 6 -22 2 -19 10 -24 43 -26 22 -2 55 -10 73 -18 18 -8
38 -12 45 -7 8 5 4 9 -13 13 -47 11 -52 37 -47 270 3 118 8 223 12 233 4 9 18
17 31 17 13 0 24 4 24 9 0 6 -52 10 -120 10 -72 1 -120 -3 -120 -9 0 -6 16
-10 35 -10 54 0 58 -18 53 -206 -6 -184 -18 -223 -78 -256 -101 -54 -205 17
-229 157 -19 105 13 241 68 289 11 11 21 22 21 26 0 3 -45 7 -100 9 -99 2 -99
2 -106 -24z"/>
<path d="M4956 3034 c-109 -40 -172 -146 -146 -243 29 -108 127 -145 237 -88
47 24 121 113 134 160 22 82 -17 154 -97 176 -50 14 -80 13 -128 -5z m98 -52
c31 -29 46 -69 46 -127 0 -59 -19 -109 -45 -119 -59 -22 -129 12 -155 74 -17
42 -8 134 17 168 33 44 90 46 137 4z"/>
<path d="M2862 2398 l3 -73 440 -5 440 -5 49 -53 c91 -97 211 -136 416 -136
130 1 201 14 337 65 35 12 64 21 67 18 2 -2 -3 -31 -11 -64 -17 -67 -10 -112
27 -172 83 -137 315 -113 348 35 26 114 -61 201 -162 162 -38 -14 -32 -29 14
-36 110 -18 84 -174 -29 -174 -33 0 -49 7 -81 36 -37 34 -40 40 -40 91 0 62
14 95 62 140 72 70 189 88 342 53 135 -31 226 -78 307 -160 82 -83 109 -146
109 -253 0 -91 -28 -155 -94 -215 -83 -76 -186 -110 -294 -97 -48 6 -62 13
-105 54 -41 39 -50 54 -54 92 -7 58 16 113 59 139 62 40 156 9 172 -56 8 -31
20 -30 34 1 17 37 15 59 -10 90 -75 96 -273 58 -324 -62 -21 -49 -18 -139 7
-190 11 -23 41 -61 66 -82 62 -56 123 -74 232 -69 75 3 96 8 154 37 73 37 162
122 195 187 67 132 54 294 -36 424 -37 53 -149 148 -204 172 -15 7 -24 16 -22
20 8 12 822 9 829 -3 4 -5 1 -9 -5 -9 -20 0 -132 -81 -177 -129 -24 -25 -60
-78 -79 -117 -104 -209 -16 -442 209 -550 64 -31 80 -34 158 -34 103 0 163 21
222 78 57 55 80 106 80 177 0 93 -46 159 -132 190 -137 48 -268 -34 -216 -136
l17 -32 17 39 c23 50 41 65 89 71 106 14 177 -106 123 -207 -10 -19 -37 -48
-60 -65 -40 -28 -49 -30 -130 -30 -79 1 -95 4 -154 33 -130 64 -194 170 -185
306 12 182 168 328 413 386 105 25 210 22 278 -8 72 -32 137 -122 137 -190 0
-30 -34 -83 -65 -102 -67 -41 -148 -14 -161 55 -10 55 12 87 70 100 43 9 47
12 33 23 -30 25 -92 27 -130 3 -42 -25 -57 -58 -57 -120 0 -62 30 -108 90
-138 119 -61 261 9 291 142 11 48 10 63 -4 108 -9 28 -14 53 -12 56 3 2 54
-12 114 -32 130 -44 246 -61 356 -52 191 15 310 67 378 165 l17 25 445 3 445
3 0 75 0 74 -2830 0 -2831 0 3 -72z m1768 -86 c0 -5 -15 -14 -32 -20 -18 -6
-71 -24 -118 -40 -122 -42 -210 -55 -325 -50 -115 6 -179 24 -250 69 -44 28
-48 33 -30 39 28 11 755 12 755 2z m2870 -1 c24 -7 23 -8 -21 -39 -93 -63
-285 -91 -431 -61 -79 15 -298 91 -292 101 6 10 707 9 744 -1z"/>
<path d="M5641 2254 c-13 -9 -29 -32 -37 -50 -40 -95 86 -174 163 -102 18 17
23 32 23 69 0 40 -4 51 -31 73 -35 30 -83 34 -118 10z"/>
<path d="M3580 2252 c0 -4 13 -29 29 -54 52 -82 176 -165 307 -204 74 -23 301
-26 384 -5 90 23 183 71 167 87 -3 3 -61 -6 -128 -20 -160 -34 -324 -36 -420
-5 -98 32 -149 62 -240 139 -80 67 -99 79 -99 62z"/>
<path d="M7719 2204 c-152 -134 -254 -174 -441 -174 -87 0 -146 6 -234 25 -64
14 -122 24 -127 22 -18 -6 55 -54 107 -71 119 -40 329 -45 446 -10 129 38 270
136 310 215 35 68 23 66 -61 -7z"/>
<path d="M4942 2231 c-10 -6 -5 -14 22 -30 49 -30 83 -74 98 -124 6 -23 13
-44 15 -47 10 -12 23 29 23 71 0 55 -24 90 -81 119 -42 22 -57 24 -77 11z"/>
<path d="M6357 2219 c-62 -33 -89 -97 -71 -166 10 -35 20 -28 33 21 13 51 47
96 97 127 27 16 32 24 22 30 -20 13 -39 10 -81 -12z"/>
<path d="M5220 1981 c0 -6 13 -20 30 -32 50 -37 72 -107 56 -176 -10 -41 -65
-90 -113 -99 -35 -7 -112 4 -155 21 -31 12 -20 -13 18 -42 50 -37 142 -44 200
-15 71 37 114 104 114 180 0 46 -36 119 -70 143 -32 23 -80 35 -80 20z"/>
<path d="M6102 1973 c-51 -25 -92 -98 -92 -165 0 -37 25 -96 53 -126 71 -77
218 -84 281 -13 26 29 18 33 -39 16 -64 -20 -112 -19 -155 3 -96 48 -107 176
-21 256 49 47 36 61 -27 29z"/>
<path d="M5666 1575 c-78 -102 -106 -247 -71 -360 17 -53 61 -121 90 -137 21
-13 63 29 95 96 26 55 30 75 30 145 0 56 -6 97 -19 132 -22 56 -81 159 -92
159 -4 0 -19 -16 -33 -35z m53 -185 c14 -64 14 -95 0 -143 -13 -47 -30 -44
-47 9 -20 56 -1 184 27 184 5 0 14 -23 20 -50z"/>
</g>
</svg>
