<?xml version="1.0" encoding="utf-8"?>
<!-- Generator: Fusion 360, Shaper Origin Export Add-In, Version 1.8.0  -->
<svg xmlns="http://www.w3.org/2000/svg" xmlns:xlink="http://www.w3.org/1999/xlink" xmlns:shaper="http://www.shapertools.com/namespaces/shaper" shaper:fusionaddin="version:1.8.0" width="50cm" height="32cm" version="1.1" x="0cm" y="0cm" viewBox="0 0 50 32" enable-background="new 0 0 50 32" xml:space="preserve"><path d="M25,2.75 L-25,2.75 -25,-29.25 25,-29.25 25,2.75z" transform="matrix(1,0,0,-1,25,2.75)" fill="rgb(0,0,0)" stroke-linecap="round" stroke-linejoin="round" /><path d="M-20.342,-2.75 L20.342,-2.75 A0.2,0.2 90 0,0 20.542,-2.95 L20.542,-25.95 A0.2,0.2 0 0,0 20.342,-26.15 L-20.342,-26.15 A0.2,0.2 270 0,0 -20.542,-25.95 L-20.542,-2.95 A0.2,0.2 180 0,0 -20.342,-2.75z" transform="matrix(1,0,0,-1,25,2.75)" fill="rgb(255,255,255)" stroke="rgb(0,0,0)" stroke-width="0.0010cm" stroke-linecap="round" stroke-linejoin="round" /></svg>